<?xml version="1.0" encoding="utf-8" standalone="no"?>
<!DOCTYPE svg PUBLIC "-//W3C//DTD SVG 1.1//EN"
  "http://www.w3.org/Graphics/SVG/1.1/DTD/svg11.dtd">
<!-- Created with matplotlib (https://matplotlib.org/) -->
<svg height="288pt" version="1.1" viewBox="0 0 432 288" width="432pt" xmlns="http://www.w3.org/2000/svg" xmlns:xlink="http://www.w3.org/1999/xlink">
 <metadata>
  <rdf:RDF xmlns:cc="http://creativecommons.org/ns#" xmlns:dc="http://purl.org/dc/elements/1.1/" xmlns:rdf="http://www.w3.org/1999/02/22-rdf-syntax-ns#">
   <cc:Work>
    <dc:type rdf:resource="http://purl.org/dc/dcmitype/StillImage"/>
    <dc:date>2021-01-13T09:33:19.201081</dc:date>
    <dc:format>image/svg+xml</dc:format>
    <dc:creator>
     <cc:Agent>
      <dc:title>Matplotlib v3.3.2, https://matplotlib.org/</dc:title>
     </cc:Agent>
    </dc:creator>
   </cc:Work>
  </rdf:RDF>
 </metadata>
 <defs>
  <style type="text/css">*{stroke-linecap:butt;stroke-linejoin:round;}</style>
 </defs>
 <g id="figure_1">
  <g id="patch_1">
   <path d="M 0 288 
L 432 288 
L 432 0 
L 0 0 
z
" style="fill:#ffffff;"/>
  </g>
  <g id="axes_1">
   <g id="patch_2">
    <path d="M 54 252 
L 388.8 252 
L 388.8 34.56 
L 54 34.56 
z
" style="fill:#ffffff;"/>
   </g>
   <g id="matplotlib.axis_1">
    <g id="xtick_1">
     <g id="line2d_1">
      <defs>
       <path d="M 0 0 
L 0 3.5 
" id="m20f981ccde" style="stroke:#000000;stroke-width:0.8;"/>
      </defs>
      <g>
       <use style="stroke:#000000;stroke-width:0.8;" x="102.844118" xlink:href="#m20f981ccde" y="252"/>
      </g>
     </g>
     <g id="text_1">
      <!-- −0.02 -->
      <g transform="translate(87.521462 266.598437)scale(0.1 -0.1)">
       <defs>
        <path d="M 10.59375 35.5 
L 73.1875 35.5 
L 73.1875 27.203125 
L 10.59375 27.203125 
z
" id="DejaVuSans-8722"/>
        <path d="M 31.78125 66.40625 
Q 24.171875 66.40625 20.328125 58.90625 
Q 16.5 51.421875 16.5 36.375 
Q 16.5 21.390625 20.328125 13.890625 
Q 24.171875 6.390625 31.78125 6.390625 
Q 39.453125 6.390625 43.28125 13.890625 
Q 47.125 21.390625 47.125 36.375 
Q 47.125 51.421875 43.28125 58.90625 
Q 39.453125 66.40625 31.78125 66.40625 
z
M 31.78125 74.21875 
Q 44.046875 74.21875 50.515625 64.515625 
Q 56.984375 54.828125 56.984375 36.375 
Q 56.984375 17.96875 50.515625 8.265625 
Q 44.046875 -1.421875 31.78125 -1.421875 
Q 19.53125 -1.421875 13.0625 8.265625 
Q 6.59375 17.96875 6.59375 36.375 
Q 6.59375 54.828125 13.0625 64.515625 
Q 19.53125 74.21875 31.78125 74.21875 
z
" id="DejaVuSans-48"/>
        <path d="M 10.6875 12.40625 
L 21 12.40625 
L 21 0 
L 10.6875 0 
z
" id="DejaVuSans-46"/>
        <path d="M 19.1875 8.296875 
L 53.609375 8.296875 
L 53.609375 0 
L 7.328125 0 
L 7.328125 8.296875 
Q 12.9375 14.109375 22.625 23.890625 
Q 32.328125 33.6875 34.8125 36.53125 
Q 39.546875 41.84375 41.421875 45.53125 
Q 43.3125 49.21875 43.3125 52.78125 
Q 43.3125 58.59375 39.234375 62.25 
Q 35.15625 65.921875 28.609375 65.921875 
Q 23.96875 65.921875 18.8125 64.3125 
Q 13.671875 62.703125 7.8125 59.421875 
L 7.8125 69.390625 
Q 13.765625 71.78125 18.9375 73 
Q 24.125 74.21875 28.421875 74.21875 
Q 39.75 74.21875 46.484375 68.546875 
Q 53.21875 62.890625 53.21875 53.421875 
Q 53.21875 48.921875 51.53125 44.890625 
Q 49.859375 40.875 45.40625 35.40625 
Q 44.1875 33.984375 37.640625 27.21875 
Q 31.109375 20.453125 19.1875 8.296875 
z
" id="DejaVuSans-50"/>
       </defs>
       <use xlink:href="#DejaVuSans-8722"/>
       <use x="83.789062" xlink:href="#DejaVuSans-48"/>
       <use x="147.412109" xlink:href="#DejaVuSans-46"/>
       <use x="179.199219" xlink:href="#DejaVuSans-48"/>
       <use x="242.822266" xlink:href="#DejaVuSans-50"/>
      </g>
     </g>
    </g>
    <g id="xtick_2">
     <g id="line2d_2">
      <g>
       <use style="stroke:#000000;stroke-width:0.8;" x="167.094209" xlink:href="#m20f981ccde" y="252"/>
      </g>
     </g>
     <g id="text_2">
      <!-- −0.01 -->
      <g transform="translate(151.771552 266.598437)scale(0.1 -0.1)">
       <defs>
        <path d="M 12.40625 8.296875 
L 28.515625 8.296875 
L 28.515625 63.921875 
L 10.984375 60.40625 
L 10.984375 69.390625 
L 28.421875 72.90625 
L 38.28125 72.90625 
L 38.28125 8.296875 
L 54.390625 8.296875 
L 54.390625 0 
L 12.40625 0 
z
" id="DejaVuSans-49"/>
       </defs>
       <use xlink:href="#DejaVuSans-8722"/>
       <use x="83.789062" xlink:href="#DejaVuSans-48"/>
       <use x="147.412109" xlink:href="#DejaVuSans-46"/>
       <use x="179.199219" xlink:href="#DejaVuSans-48"/>
       <use x="242.822266" xlink:href="#DejaVuSans-49"/>
      </g>
     </g>
    </g>
    <g id="xtick_3">
     <g id="line2d_3">
      <g>
       <use style="stroke:#000000;stroke-width:0.8;" x="231.344299" xlink:href="#m20f981ccde" y="252"/>
      </g>
     </g>
     <g id="text_3">
      <!-- 0.00 -->
      <g transform="translate(220.211487 266.598437)scale(0.1 -0.1)">
       <use xlink:href="#DejaVuSans-48"/>
       <use x="63.623047" xlink:href="#DejaVuSans-46"/>
       <use x="95.410156" xlink:href="#DejaVuSans-48"/>
       <use x="159.033203" xlink:href="#DejaVuSans-48"/>
      </g>
     </g>
    </g>
    <g id="xtick_4">
     <g id="line2d_4">
      <g>
       <use style="stroke:#000000;stroke-width:0.8;" x="295.59439" xlink:href="#m20f981ccde" y="252"/>
      </g>
     </g>
     <g id="text_4">
      <!-- 0.01 -->
      <g transform="translate(284.461578 266.598437)scale(0.1 -0.1)">
       <use xlink:href="#DejaVuSans-48"/>
       <use x="63.623047" xlink:href="#DejaVuSans-46"/>
       <use x="95.410156" xlink:href="#DejaVuSans-48"/>
       <use x="159.033203" xlink:href="#DejaVuSans-49"/>
      </g>
     </g>
    </g>
    <g id="xtick_5">
     <g id="line2d_5">
      <g>
       <use style="stroke:#000000;stroke-width:0.8;" x="359.844481" xlink:href="#m20f981ccde" y="252"/>
      </g>
     </g>
     <g id="text_5">
      <!-- 0.02 -->
      <g transform="translate(348.711668 266.598437)scale(0.1 -0.1)">
       <use xlink:href="#DejaVuSans-48"/>
       <use x="63.623047" xlink:href="#DejaVuSans-46"/>
       <use x="95.410156" xlink:href="#DejaVuSans-48"/>
       <use x="159.033203" xlink:href="#DejaVuSans-50"/>
      </g>
     </g>
    </g>
    <g id="text_6">
     <!-- Quantiles of 2nd Sample -->
     <g transform="translate(159.783594 280.276563)scale(0.1 -0.1)">
      <defs>
       <path d="M 39.40625 66.21875 
Q 28.65625 66.21875 22.328125 58.203125 
Q 16.015625 50.203125 16.015625 36.375 
Q 16.015625 22.609375 22.328125 14.59375 
Q 28.65625 6.59375 39.40625 6.59375 
Q 50.140625 6.59375 56.421875 14.59375 
Q 62.703125 22.609375 62.703125 36.375 
Q 62.703125 50.203125 56.421875 58.203125 
Q 50.140625 66.21875 39.40625 66.21875 
z
M 53.21875 1.3125 
L 66.21875 -12.890625 
L 54.296875 -12.890625 
L 43.5 -1.21875 
Q 41.890625 -1.3125 41.03125 -1.359375 
Q 40.1875 -1.421875 39.40625 -1.421875 
Q 24.03125 -1.421875 14.8125 8.859375 
Q 5.609375 19.140625 5.609375 36.375 
Q 5.609375 53.65625 14.8125 63.9375 
Q 24.03125 74.21875 39.40625 74.21875 
Q 54.734375 74.21875 63.90625 63.9375 
Q 73.09375 53.65625 73.09375 36.375 
Q 73.09375 23.6875 67.984375 14.640625 
Q 62.890625 5.609375 53.21875 1.3125 
z
" id="DejaVuSans-81"/>
       <path d="M 8.5 21.578125 
L 8.5 54.6875 
L 17.484375 54.6875 
L 17.484375 21.921875 
Q 17.484375 14.15625 20.5 10.265625 
Q 23.53125 6.390625 29.59375 6.390625 
Q 36.859375 6.390625 41.078125 11.03125 
Q 45.3125 15.671875 45.3125 23.6875 
L 45.3125 54.6875 
L 54.296875 54.6875 
L 54.296875 0 
L 45.3125 0 
L 45.3125 8.40625 
Q 42.046875 3.421875 37.71875 1 
Q 33.40625 -1.421875 27.6875 -1.421875 
Q 18.265625 -1.421875 13.375 4.4375 
Q 8.5 10.296875 8.5 21.578125 
z
M 31.109375 56 
z
" id="DejaVuSans-117"/>
       <path d="M 34.28125 27.484375 
Q 23.390625 27.484375 19.1875 25 
Q 14.984375 22.515625 14.984375 16.5 
Q 14.984375 11.71875 18.140625 8.90625 
Q 21.296875 6.109375 26.703125 6.109375 
Q 34.1875 6.109375 38.703125 11.40625 
Q 43.21875 16.703125 43.21875 25.484375 
L 43.21875 27.484375 
z
M 52.203125 31.203125 
L 52.203125 0 
L 43.21875 0 
L 43.21875 8.296875 
Q 40.140625 3.328125 35.546875 0.953125 
Q 30.953125 -1.421875 24.3125 -1.421875 
Q 15.921875 -1.421875 10.953125 3.296875 
Q 6 8.015625 6 15.921875 
Q 6 25.140625 12.171875 29.828125 
Q 18.359375 34.515625 30.609375 34.515625 
L 43.21875 34.515625 
L 43.21875 35.40625 
Q 43.21875 41.609375 39.140625 45 
Q 35.0625 48.390625 27.6875 48.390625 
Q 23 48.390625 18.546875 47.265625 
Q 14.109375 46.140625 10.015625 43.890625 
L 10.015625 52.203125 
Q 14.9375 54.109375 19.578125 55.046875 
Q 24.21875 56 28.609375 56 
Q 40.484375 56 46.34375 49.84375 
Q 52.203125 43.703125 52.203125 31.203125 
z
" id="DejaVuSans-97"/>
       <path d="M 54.890625 33.015625 
L 54.890625 0 
L 45.90625 0 
L 45.90625 32.71875 
Q 45.90625 40.484375 42.875 44.328125 
Q 39.84375 48.1875 33.796875 48.1875 
Q 26.515625 48.1875 22.3125 43.546875 
Q 18.109375 38.921875 18.109375 30.90625 
L 18.109375 0 
L 9.078125 0 
L 9.078125 54.6875 
L 18.109375 54.6875 
L 18.109375 46.1875 
Q 21.34375 51.125 25.703125 53.5625 
Q 30.078125 56 35.796875 56 
Q 45.21875 56 50.046875 50.171875 
Q 54.890625 44.34375 54.890625 33.015625 
z
" id="DejaVuSans-110"/>
       <path d="M 18.3125 70.21875 
L 18.3125 54.6875 
L 36.8125 54.6875 
L 36.8125 47.703125 
L 18.3125 47.703125 
L 18.3125 18.015625 
Q 18.3125 11.328125 20.140625 9.421875 
Q 21.96875 7.515625 27.59375 7.515625 
L 36.8125 7.515625 
L 36.8125 0 
L 27.59375 0 
Q 17.1875 0 13.234375 3.875 
Q 9.28125 7.765625 9.28125 18.015625 
L 9.28125 47.703125 
L 2.6875 47.703125 
L 2.6875 54.6875 
L 9.28125 54.6875 
L 9.28125 70.21875 
z
" id="DejaVuSans-116"/>
       <path d="M 9.421875 54.6875 
L 18.40625 54.6875 
L 18.40625 0 
L 9.421875 0 
z
M 9.421875 75.984375 
L 18.40625 75.984375 
L 18.40625 64.59375 
L 9.421875 64.59375 
z
" id="DejaVuSans-105"/>
       <path d="M 9.421875 75.984375 
L 18.40625 75.984375 
L 18.40625 0 
L 9.421875 0 
z
" id="DejaVuSans-108"/>
       <path d="M 56.203125 29.59375 
L 56.203125 25.203125 
L 14.890625 25.203125 
Q 15.484375 15.921875 20.484375 11.0625 
Q 25.484375 6.203125 34.421875 6.203125 
Q 39.59375 6.203125 44.453125 7.46875 
Q 49.3125 8.734375 54.109375 11.28125 
L 54.109375 2.78125 
Q 49.265625 0.734375 44.1875 -0.34375 
Q 39.109375 -1.421875 33.890625 -1.421875 
Q 20.796875 -1.421875 13.15625 6.1875 
Q 5.515625 13.8125 5.515625 26.8125 
Q 5.515625 40.234375 12.765625 48.109375 
Q 20.015625 56 32.328125 56 
Q 43.359375 56 49.78125 48.890625 
Q 56.203125 41.796875 56.203125 29.59375 
z
M 47.21875 32.234375 
Q 47.125 39.59375 43.09375 43.984375 
Q 39.0625 48.390625 32.421875 48.390625 
Q 24.90625 48.390625 20.390625 44.140625 
Q 15.875 39.890625 15.1875 32.171875 
z
" id="DejaVuSans-101"/>
       <path d="M 44.28125 53.078125 
L 44.28125 44.578125 
Q 40.484375 46.53125 36.375 47.5 
Q 32.28125 48.484375 27.875 48.484375 
Q 21.1875 48.484375 17.84375 46.4375 
Q 14.5 44.390625 14.5 40.28125 
Q 14.5 37.15625 16.890625 35.375 
Q 19.28125 33.59375 26.515625 31.984375 
L 29.59375 31.296875 
Q 39.15625 29.25 43.1875 25.515625 
Q 47.21875 21.78125 47.21875 15.09375 
Q 47.21875 7.46875 41.1875 3.015625 
Q 35.15625 -1.421875 24.609375 -1.421875 
Q 20.21875 -1.421875 15.453125 -0.5625 
Q 10.6875 0.296875 5.421875 2 
L 5.421875 11.28125 
Q 10.40625 8.6875 15.234375 7.390625 
Q 20.0625 6.109375 24.8125 6.109375 
Q 31.15625 6.109375 34.5625 8.28125 
Q 37.984375 10.453125 37.984375 14.40625 
Q 37.984375 18.0625 35.515625 20.015625 
Q 33.0625 21.96875 24.703125 23.78125 
L 21.578125 24.515625 
Q 13.234375 26.265625 9.515625 29.90625 
Q 5.8125 33.546875 5.8125 39.890625 
Q 5.8125 47.609375 11.28125 51.796875 
Q 16.75 56 26.8125 56 
Q 31.78125 56 36.171875 55.265625 
Q 40.578125 54.546875 44.28125 53.078125 
z
" id="DejaVuSans-115"/>
       <path id="DejaVuSans-32"/>
       <path d="M 30.609375 48.390625 
Q 23.390625 48.390625 19.1875 42.75 
Q 14.984375 37.109375 14.984375 27.296875 
Q 14.984375 17.484375 19.15625 11.84375 
Q 23.34375 6.203125 30.609375 6.203125 
Q 37.796875 6.203125 41.984375 11.859375 
Q 46.1875 17.53125 46.1875 27.296875 
Q 46.1875 37.015625 41.984375 42.703125 
Q 37.796875 48.390625 30.609375 48.390625 
z
M 30.609375 56 
Q 42.328125 56 49.015625 48.375 
Q 55.71875 40.765625 55.71875 27.296875 
Q 55.71875 13.875 49.015625 6.21875 
Q 42.328125 -1.421875 30.609375 -1.421875 
Q 18.84375 -1.421875 12.171875 6.21875 
Q 5.515625 13.875 5.515625 27.296875 
Q 5.515625 40.765625 12.171875 48.375 
Q 18.84375 56 30.609375 56 
z
" id="DejaVuSans-111"/>
       <path d="M 37.109375 75.984375 
L 37.109375 68.5 
L 28.515625 68.5 
Q 23.6875 68.5 21.796875 66.546875 
Q 19.921875 64.59375 19.921875 59.515625 
L 19.921875 54.6875 
L 34.71875 54.6875 
L 34.71875 47.703125 
L 19.921875 47.703125 
L 19.921875 0 
L 10.890625 0 
L 10.890625 47.703125 
L 2.296875 47.703125 
L 2.296875 54.6875 
L 10.890625 54.6875 
L 10.890625 58.5 
Q 10.890625 67.625 15.140625 71.796875 
Q 19.390625 75.984375 28.609375 75.984375 
z
" id="DejaVuSans-102"/>
       <path d="M 45.40625 46.390625 
L 45.40625 75.984375 
L 54.390625 75.984375 
L 54.390625 0 
L 45.40625 0 
L 45.40625 8.203125 
Q 42.578125 3.328125 38.25 0.953125 
Q 33.9375 -1.421875 27.875 -1.421875 
Q 17.96875 -1.421875 11.734375 6.484375 
Q 5.515625 14.40625 5.515625 27.296875 
Q 5.515625 40.1875 11.734375 48.09375 
Q 17.96875 56 27.875 56 
Q 33.9375 56 38.25 53.625 
Q 42.578125 51.265625 45.40625 46.390625 
z
M 14.796875 27.296875 
Q 14.796875 17.390625 18.875 11.75 
Q 22.953125 6.109375 30.078125 6.109375 
Q 37.203125 6.109375 41.296875 11.75 
Q 45.40625 17.390625 45.40625 27.296875 
Q 45.40625 37.203125 41.296875 42.84375 
Q 37.203125 48.484375 30.078125 48.484375 
Q 22.953125 48.484375 18.875 42.84375 
Q 14.796875 37.203125 14.796875 27.296875 
z
" id="DejaVuSans-100"/>
       <path d="M 53.515625 70.515625 
L 53.515625 60.890625 
Q 47.90625 63.578125 42.921875 64.890625 
Q 37.9375 66.21875 33.296875 66.21875 
Q 25.25 66.21875 20.875 63.09375 
Q 16.5 59.96875 16.5 54.203125 
Q 16.5 49.359375 19.40625 46.890625 
Q 22.3125 44.4375 30.421875 42.921875 
L 36.375 41.703125 
Q 47.40625 39.59375 52.65625 34.296875 
Q 57.90625 29 57.90625 20.125 
Q 57.90625 9.515625 50.796875 4.046875 
Q 43.703125 -1.421875 29.984375 -1.421875 
Q 24.8125 -1.421875 18.96875 -0.25 
Q 13.140625 0.921875 6.890625 3.21875 
L 6.890625 13.375 
Q 12.890625 10.015625 18.65625 8.296875 
Q 24.421875 6.59375 29.984375 6.59375 
Q 38.421875 6.59375 43.015625 9.90625 
Q 47.609375 13.234375 47.609375 19.390625 
Q 47.609375 24.75 44.3125 27.78125 
Q 41.015625 30.8125 33.5 32.328125 
L 27.484375 33.5 
Q 16.453125 35.6875 11.515625 40.375 
Q 6.59375 45.0625 6.59375 53.421875 
Q 6.59375 63.09375 13.40625 68.65625 
Q 20.21875 74.21875 32.171875 74.21875 
Q 37.3125 74.21875 42.625 73.28125 
Q 47.953125 72.359375 53.515625 70.515625 
z
" id="DejaVuSans-83"/>
       <path d="M 52 44.1875 
Q 55.375 50.25 60.0625 53.125 
Q 64.75 56 71.09375 56 
Q 79.640625 56 84.28125 50.015625 
Q 88.921875 44.046875 88.921875 33.015625 
L 88.921875 0 
L 79.890625 0 
L 79.890625 32.71875 
Q 79.890625 40.578125 77.09375 44.375 
Q 74.3125 48.1875 68.609375 48.1875 
Q 61.625 48.1875 57.5625 43.546875 
Q 53.515625 38.921875 53.515625 30.90625 
L 53.515625 0 
L 44.484375 0 
L 44.484375 32.71875 
Q 44.484375 40.625 41.703125 44.40625 
Q 38.921875 48.1875 33.109375 48.1875 
Q 26.21875 48.1875 22.15625 43.53125 
Q 18.109375 38.875 18.109375 30.90625 
L 18.109375 0 
L 9.078125 0 
L 9.078125 54.6875 
L 18.109375 54.6875 
L 18.109375 46.1875 
Q 21.1875 51.21875 25.484375 53.609375 
Q 29.78125 56 35.6875 56 
Q 41.65625 56 45.828125 52.96875 
Q 50 49.953125 52 44.1875 
z
" id="DejaVuSans-109"/>
       <path d="M 18.109375 8.203125 
L 18.109375 -20.796875 
L 9.078125 -20.796875 
L 9.078125 54.6875 
L 18.109375 54.6875 
L 18.109375 46.390625 
Q 20.953125 51.265625 25.265625 53.625 
Q 29.59375 56 35.59375 56 
Q 45.5625 56 51.78125 48.09375 
Q 58.015625 40.1875 58.015625 27.296875 
Q 58.015625 14.40625 51.78125 6.484375 
Q 45.5625 -1.421875 35.59375 -1.421875 
Q 29.59375 -1.421875 25.265625 0.953125 
Q 20.953125 3.328125 18.109375 8.203125 
z
M 48.6875 27.296875 
Q 48.6875 37.203125 44.609375 42.84375 
Q 40.53125 48.484375 33.40625 48.484375 
Q 26.265625 48.484375 22.1875 42.84375 
Q 18.109375 37.203125 18.109375 27.296875 
Q 18.109375 17.390625 22.1875 11.75 
Q 26.265625 6.109375 33.40625 6.109375 
Q 40.53125 6.109375 44.609375 11.75 
Q 48.6875 17.390625 48.6875 27.296875 
z
" id="DejaVuSans-112"/>
      </defs>
      <use xlink:href="#DejaVuSans-81"/>
      <use x="78.710938" xlink:href="#DejaVuSans-117"/>
      <use x="142.089844" xlink:href="#DejaVuSans-97"/>
      <use x="203.369141" xlink:href="#DejaVuSans-110"/>
      <use x="266.748047" xlink:href="#DejaVuSans-116"/>
      <use x="305.957031" xlink:href="#DejaVuSans-105"/>
      <use x="333.740234" xlink:href="#DejaVuSans-108"/>
      <use x="361.523438" xlink:href="#DejaVuSans-101"/>
      <use x="423.046875" xlink:href="#DejaVuSans-115"/>
      <use x="475.146484" xlink:href="#DejaVuSans-32"/>
      <use x="506.933594" xlink:href="#DejaVuSans-111"/>
      <use x="568.115234" xlink:href="#DejaVuSans-102"/>
      <use x="603.320312" xlink:href="#DejaVuSans-32"/>
      <use x="635.107422" xlink:href="#DejaVuSans-50"/>
      <use x="698.730469" xlink:href="#DejaVuSans-110"/>
      <use x="762.109375" xlink:href="#DejaVuSans-100"/>
      <use x="825.585938" xlink:href="#DejaVuSans-32"/>
      <use x="857.373047" xlink:href="#DejaVuSans-83"/>
      <use x="920.849609" xlink:href="#DejaVuSans-97"/>
      <use x="982.128906" xlink:href="#DejaVuSans-109"/>
      <use x="1079.541016" xlink:href="#DejaVuSans-112"/>
      <use x="1143.017578" xlink:href="#DejaVuSans-108"/>
      <use x="1170.800781" xlink:href="#DejaVuSans-101"/>
     </g>
    </g>
   </g>
   <g id="matplotlib.axis_2">
    <g id="ytick_1">
     <g id="line2d_6">
      <defs>
       <path d="M 0 0 
L -3.5 0 
" id="m8fed919045" style="stroke:#000000;stroke-width:0.8;"/>
      </defs>
      <g>
       <use style="stroke:#000000;stroke-width:0.8;" x="54" xlink:href="#m8fed919045" y="220.277584"/>
      </g>
     </g>
     <g id="text_7">
      <!-- −0.02 -->
      <g transform="translate(16.354687 224.076802)scale(0.1 -0.1)">
       <use xlink:href="#DejaVuSans-8722"/>
       <use x="83.789062" xlink:href="#DejaVuSans-48"/>
       <use x="147.412109" xlink:href="#DejaVuSans-46"/>
       <use x="179.199219" xlink:href="#DejaVuSans-48"/>
       <use x="242.822266" xlink:href="#DejaVuSans-50"/>
      </g>
     </g>
    </g>
    <g id="ytick_2">
     <g id="line2d_7">
      <g>
       <use style="stroke:#000000;stroke-width:0.8;" x="54" xlink:href="#m8fed919045" y="178.549568"/>
      </g>
     </g>
     <g id="text_8">
      <!-- −0.01 -->
      <g transform="translate(16.354687 182.348787)scale(0.1 -0.1)">
       <use xlink:href="#DejaVuSans-8722"/>
       <use x="83.789062" xlink:href="#DejaVuSans-48"/>
       <use x="147.412109" xlink:href="#DejaVuSans-46"/>
       <use x="179.199219" xlink:href="#DejaVuSans-48"/>
       <use x="242.822266" xlink:href="#DejaVuSans-49"/>
      </g>
     </g>
    </g>
    <g id="ytick_3">
     <g id="line2d_8">
      <g>
       <use style="stroke:#000000;stroke-width:0.8;" x="54" xlink:href="#m8fed919045" y="136.821552"/>
      </g>
     </g>
     <g id="text_9">
      <!-- 0.00 -->
      <g transform="translate(24.734375 140.620771)scale(0.1 -0.1)">
       <use xlink:href="#DejaVuSans-48"/>
       <use x="63.623047" xlink:href="#DejaVuSans-46"/>
       <use x="95.410156" xlink:href="#DejaVuSans-48"/>
       <use x="159.033203" xlink:href="#DejaVuSans-48"/>
      </g>
     </g>
    </g>
    <g id="ytick_4">
     <g id="line2d_9">
      <g>
       <use style="stroke:#000000;stroke-width:0.8;" x="54" xlink:href="#m8fed919045" y="95.093536"/>
      </g>
     </g>
     <g id="text_10">
      <!-- 0.01 -->
      <g transform="translate(24.734375 98.892755)scale(0.1 -0.1)">
       <use xlink:href="#DejaVuSans-48"/>
       <use x="63.623047" xlink:href="#DejaVuSans-46"/>
       <use x="95.410156" xlink:href="#DejaVuSans-48"/>
       <use x="159.033203" xlink:href="#DejaVuSans-49"/>
      </g>
     </g>
    </g>
    <g id="ytick_5">
     <g id="line2d_10">
      <g>
       <use style="stroke:#000000;stroke-width:0.8;" x="54" xlink:href="#m8fed919045" y="53.36552"/>
      </g>
     </g>
     <g id="text_11">
      <!-- 0.02 -->
      <g transform="translate(24.734375 57.164739)scale(0.1 -0.1)">
       <use xlink:href="#DejaVuSans-48"/>
       <use x="63.623047" xlink:href="#DejaVuSans-46"/>
       <use x="95.410156" xlink:href="#DejaVuSans-48"/>
       <use x="159.033203" xlink:href="#DejaVuSans-50"/>
      </g>
     </g>
    </g>
    <g id="text_12">
     <!-- Quantiles of 1st Sample -->
     <g transform="translate(10.275 203.118281)rotate(-90)scale(0.1 -0.1)">
      <use xlink:href="#DejaVuSans-81"/>
      <use x="78.710938" xlink:href="#DejaVuSans-117"/>
      <use x="142.089844" xlink:href="#DejaVuSans-97"/>
      <use x="203.369141" xlink:href="#DejaVuSans-110"/>
      <use x="266.748047" xlink:href="#DejaVuSans-116"/>
      <use x="305.957031" xlink:href="#DejaVuSans-105"/>
      <use x="333.740234" xlink:href="#DejaVuSans-108"/>
      <use x="361.523438" xlink:href="#DejaVuSans-101"/>
      <use x="423.046875" xlink:href="#DejaVuSans-115"/>
      <use x="475.146484" xlink:href="#DejaVuSans-32"/>
      <use x="506.933594" xlink:href="#DejaVuSans-111"/>
      <use x="568.115234" xlink:href="#DejaVuSans-102"/>
      <use x="603.320312" xlink:href="#DejaVuSans-32"/>
      <use x="635.107422" xlink:href="#DejaVuSans-49"/>
      <use x="698.730469" xlink:href="#DejaVuSans-115"/>
      <use x="750.830078" xlink:href="#DejaVuSans-116"/>
      <use x="790.039062" xlink:href="#DejaVuSans-32"/>
      <use x="821.826172" xlink:href="#DejaVuSans-83"/>
      <use x="885.302734" xlink:href="#DejaVuSans-97"/>
      <use x="946.582031" xlink:href="#DejaVuSans-109"/>
      <use x="1043.994141" xlink:href="#DejaVuSans-112"/>
      <use x="1107.470703" xlink:href="#DejaVuSans-108"/>
      <use x="1135.253906" xlink:href="#DejaVuSans-101"/>
     </g>
    </g>
   </g>
   <g id="line2d_11">
    <defs>
     <path d="M 0 3 
C 0.795609 3 1.55874 2.683901 2.12132 2.12132 
C 2.683901 1.55874 3 0.795609 3 0 
C 3 -0.795609 2.683901 -1.55874 2.12132 -2.12132 
C 1.55874 -2.683901 0.795609 -3 0 -3 
C -0.795609 -3 -1.55874 -2.683901 -2.12132 -2.12132 
C -2.683901 -1.55874 -3 -0.795609 -3 0 
C -3 0.795609 -2.683901 1.55874 -2.12132 2.12132 
C -1.55874 2.683901 -0.795609 3 0 3 
z
" id="m8f4b5c7c15" style="stroke:#0000ff;"/>
    </defs>
    <g clip-path="url(#p91d1ded67c)">
     <use style="fill:#0000ff;stroke:#0000ff;" x="127.38838" xlink:href="#m8f4b5c7c15" y="242.116364"/>
    </g>
   </g>
   <g id="line2d_12">
    <g clip-path="url(#p91d1ded67c)">
     <use style="fill:#0000ff;stroke:#0000ff;" x="150.419653" xlink:href="#m8f4b5c7c15" y="200.88885"/>
    </g>
   </g>
   <g id="line2d_13">
    <g clip-path="url(#p91d1ded67c)">
     <use style="fill:#0000ff;stroke:#0000ff;" x="160.779311" xlink:href="#m8f4b5c7c15" y="198.268374"/>
    </g>
   </g>
   <g id="line2d_14">
    <g clip-path="url(#p91d1ded67c)">
     <use style="fill:#0000ff;stroke:#0000ff;" x="168.987993" xlink:href="#m8f4b5c7c15" y="196.122523"/>
    </g>
   </g>
   <g id="line2d_15">
    <g clip-path="url(#p91d1ded67c)">
     <use style="fill:#0000ff;stroke:#0000ff;" x="174.951822" xlink:href="#m8f4b5c7c15" y="193.454404"/>
    </g>
   </g>
   <g id="line2d_16">
    <g clip-path="url(#p91d1ded67c)">
     <use style="fill:#0000ff;stroke:#0000ff;" x="179.687185" xlink:href="#m8f4b5c7c15" y="189.029442"/>
    </g>
   </g>
   <g id="line2d_17">
    <g clip-path="url(#p91d1ded67c)">
     <use style="fill:#0000ff;stroke:#0000ff;" x="183.604634" xlink:href="#m8f4b5c7c15" y="187.099254"/>
    </g>
   </g>
   <g id="line2d_18">
    <g clip-path="url(#p91d1ded67c)">
     <use style="fill:#0000ff;stroke:#0000ff;" x="187.297819" xlink:href="#m8f4b5c7c15" y="179.003436"/>
    </g>
   </g>
   <g id="line2d_19">
    <g clip-path="url(#p91d1ded67c)">
     <use style="fill:#0000ff;stroke:#0000ff;" x="190.533009" xlink:href="#m8f4b5c7c15" y="178.400502"/>
    </g>
   </g>
   <g id="line2d_20">
    <g clip-path="url(#p91d1ded67c)">
     <use style="fill:#0000ff;stroke:#0000ff;" x="193.546352" xlink:href="#m8f4b5c7c15" y="177.655954"/>
    </g>
   </g>
   <g id="line2d_21">
    <g clip-path="url(#p91d1ded67c)">
     <use style="fill:#0000ff;stroke:#0000ff;" x="196.486867" xlink:href="#m8f4b5c7c15" y="171.460731"/>
    </g>
   </g>
   <g id="line2d_22">
    <g clip-path="url(#p91d1ded67c)">
     <use style="fill:#0000ff;stroke:#0000ff;" x="199.281768" xlink:href="#m8f4b5c7c15" y="170.761472"/>
    </g>
   </g>
   <g id="line2d_23">
    <g clip-path="url(#p91d1ded67c)">
     <use style="fill:#0000ff;stroke:#0000ff;" x="201.912758" xlink:href="#m8f4b5c7c15" y="167.248764"/>
    </g>
   </g>
   <g id="line2d_24">
    <g clip-path="url(#p91d1ded67c)">
     <use style="fill:#0000ff;stroke:#0000ff;" x="204.560795" xlink:href="#m8f4b5c7c15" y="166.515342"/>
    </g>
   </g>
   <g id="line2d_25">
    <g clip-path="url(#p91d1ded67c)">
     <use style="fill:#0000ff;stroke:#0000ff;" x="206.854318" xlink:href="#m8f4b5c7c15" y="163.307996"/>
    </g>
   </g>
   <g id="line2d_26">
    <g clip-path="url(#p91d1ded67c)">
     <use style="fill:#0000ff;stroke:#0000ff;" x="208.959438" xlink:href="#m8f4b5c7c15" y="160.197045"/>
    </g>
   </g>
   <g id="line2d_27">
    <g clip-path="url(#p91d1ded67c)">
     <use style="fill:#0000ff;stroke:#0000ff;" x="211.184761" xlink:href="#m8f4b5c7c15" y="158.178079"/>
    </g>
   </g>
   <g id="line2d_28">
    <g clip-path="url(#p91d1ded67c)">
     <use style="fill:#0000ff;stroke:#0000ff;" x="213.03831" xlink:href="#m8f4b5c7c15" y="152.689149"/>
    </g>
   </g>
   <g id="line2d_29">
    <g clip-path="url(#p91d1ded67c)">
     <use style="fill:#0000ff;stroke:#0000ff;" x="214.962546" xlink:href="#m8f4b5c7c15" y="152.522616"/>
    </g>
   </g>
   <g id="line2d_30">
    <g clip-path="url(#p91d1ded67c)">
     <use style="fill:#0000ff;stroke:#0000ff;" x="216.608196" xlink:href="#m8f4b5c7c15" y="151.145359"/>
    </g>
   </g>
   <g id="line2d_31">
    <g clip-path="url(#p91d1ded67c)">
     <use style="fill:#0000ff;stroke:#0000ff;" x="218.272338" xlink:href="#m8f4b5c7c15" y="150.216359"/>
    </g>
   </g>
   <g id="line2d_32">
    <g clip-path="url(#p91d1ded67c)">
     <use style="fill:#0000ff;stroke:#0000ff;" x="219.867127" xlink:href="#m8f4b5c7c15" y="149.246588"/>
    </g>
   </g>
   <g id="line2d_33">
    <g clip-path="url(#p91d1ded67c)">
     <use style="fill:#0000ff;stroke:#0000ff;" x="221.55432" xlink:href="#m8f4b5c7c15" y="147.281289"/>
    </g>
   </g>
   <g id="line2d_34">
    <g clip-path="url(#p91d1ded67c)">
     <use style="fill:#0000ff;stroke:#0000ff;" x="222.992425" xlink:href="#m8f4b5c7c15" y="146.863812"/>
    </g>
   </g>
   <g id="line2d_35">
    <g clip-path="url(#p91d1ded67c)">
     <use style="fill:#0000ff;stroke:#0000ff;" x="224.355497" xlink:href="#m8f4b5c7c15" y="145.856378"/>
    </g>
   </g>
   <g id="line2d_36">
    <g clip-path="url(#p91d1ded67c)">
     <use style="fill:#0000ff;stroke:#0000ff;" x="225.787465" xlink:href="#m8f4b5c7c15" y="144.378809"/>
    </g>
   </g>
   <g id="line2d_37">
    <g clip-path="url(#p91d1ded67c)">
     <use style="fill:#0000ff;stroke:#0000ff;" x="226.972344" xlink:href="#m8f4b5c7c15" y="144.179963"/>
    </g>
   </g>
   <g id="line2d_38">
    <g clip-path="url(#p91d1ded67c)">
     <use style="fill:#0000ff;stroke:#0000ff;" x="228.013222" xlink:href="#m8f4b5c7c15" y="143.30215"/>
    </g>
   </g>
   <g id="line2d_39">
    <g clip-path="url(#p91d1ded67c)">
     <use style="fill:#0000ff;stroke:#0000ff;" x="228.992079" xlink:href="#m8f4b5c7c15" y="141.537532"/>
    </g>
   </g>
   <g id="line2d_40">
    <g clip-path="url(#p91d1ded67c)">
     <use style="fill:#0000ff;stroke:#0000ff;" x="229.937968" xlink:href="#m8f4b5c7c15" y="139.644035"/>
    </g>
   </g>
   <g id="line2d_41">
    <g clip-path="url(#p91d1ded67c)">
     <use style="fill:#0000ff;stroke:#0000ff;" x="230.984159" xlink:href="#m8f4b5c7c15" y="136.821552"/>
    </g>
   </g>
   <g id="line2d_42">
    <g clip-path="url(#p91d1ded67c)">
     <use style="fill:#0000ff;stroke:#0000ff;" x="232.002132" xlink:href="#m8f4b5c7c15" y="136.821552"/>
    </g>
   </g>
   <g id="line2d_43">
    <g clip-path="url(#p91d1ded67c)">
     <use style="fill:#0000ff;stroke:#0000ff;" x="232.960443" xlink:href="#m8f4b5c7c15" y="134.710579"/>
    </g>
   </g>
   <g id="line2d_44">
    <g clip-path="url(#p91d1ded67c)">
     <use style="fill:#0000ff;stroke:#0000ff;" x="233.91696" xlink:href="#m8f4b5c7c15" y="133.025165"/>
    </g>
   </g>
   <g id="line2d_45">
    <g clip-path="url(#p91d1ded67c)">
     <use style="fill:#0000ff;stroke:#0000ff;" x="234.946116" xlink:href="#m8f4b5c7c15" y="132.670574"/>
    </g>
   </g>
   <g id="line2d_46">
    <g clip-path="url(#p91d1ded67c)">
     <use style="fill:#0000ff;stroke:#0000ff;" x="235.917312" xlink:href="#m8f4b5c7c15" y="132.514806"/>
    </g>
   </g>
   <g id="line2d_47">
    <g clip-path="url(#p91d1ded67c)">
     <use style="fill:#0000ff;stroke:#0000ff;" x="237.048125" xlink:href="#m8f4b5c7c15" y="130.780896"/>
    </g>
   </g>
   <g id="line2d_48">
    <g clip-path="url(#p91d1ded67c)">
     <use style="fill:#0000ff;stroke:#0000ff;" x="238.303284" xlink:href="#m8f4b5c7c15" y="129.197633"/>
    </g>
   </g>
   <g id="line2d_49">
    <g clip-path="url(#p91d1ded67c)">
     <use style="fill:#0000ff;stroke:#0000ff;" x="239.556879" xlink:href="#m8f4b5c7c15" y="129.134616"/>
    </g>
   </g>
   <g id="line2d_50">
    <g clip-path="url(#p91d1ded67c)">
     <use style="fill:#0000ff;stroke:#0000ff;" x="240.741092" xlink:href="#m8f4b5c7c15" y="122.637322"/>
    </g>
   </g>
   <g id="line2d_51">
    <g clip-path="url(#p91d1ded67c)">
     <use style="fill:#0000ff;stroke:#0000ff;" x="241.981273" xlink:href="#m8f4b5c7c15" y="122.080819"/>
    </g>
   </g>
   <g id="line2d_52">
    <g clip-path="url(#p91d1ded67c)">
     <use style="fill:#0000ff;stroke:#0000ff;" x="243.289104" xlink:href="#m8f4b5c7c15" y="120.353007"/>
    </g>
   </g>
   <g id="line2d_53">
    <g clip-path="url(#p91d1ded67c)">
     <use style="fill:#0000ff;stroke:#0000ff;" x="244.832114" xlink:href="#m8f4b5c7c15" y="120.113556"/>
    </g>
   </g>
   <g id="line2d_54">
    <g clip-path="url(#p91d1ded67c)">
     <use style="fill:#0000ff;stroke:#0000ff;" x="246.466479" xlink:href="#m8f4b5c7c15" y="117.190483"/>
    </g>
   </g>
   <g id="line2d_55">
    <g clip-path="url(#p91d1ded67c)">
     <use style="fill:#0000ff;stroke:#0000ff;" x="247.912437" xlink:href="#m8f4b5c7c15" y="112.977032"/>
    </g>
   </g>
   <g id="line2d_56">
    <g clip-path="url(#p91d1ded67c)">
     <use style="fill:#0000ff;stroke:#0000ff;" x="249.189442" xlink:href="#m8f4b5c7c15" y="104.119763"/>
    </g>
   </g>
   <g id="line2d_57">
    <g clip-path="url(#p91d1ded67c)">
     <use style="fill:#0000ff;stroke:#0000ff;" x="250.752582" xlink:href="#m8f4b5c7c15" y="103.46998"/>
    </g>
   </g>
   <g id="line2d_58">
    <g clip-path="url(#p91d1ded67c)">
     <use style="fill:#0000ff;stroke:#0000ff;" x="252.376027" xlink:href="#m8f4b5c7c15" y="101.661825"/>
    </g>
   </g>
   <g id="line2d_59">
    <g clip-path="url(#p91d1ded67c)">
     <use style="fill:#0000ff;stroke:#0000ff;" x="254.102913" xlink:href="#m8f4b5c7c15" y="98.897614"/>
    </g>
   </g>
   <g id="line2d_60">
    <g clip-path="url(#p91d1ded67c)">
     <use style="fill:#0000ff;stroke:#0000ff;" x="255.830534" xlink:href="#m8f4b5c7c15" y="98.810817"/>
    </g>
   </g>
   <g id="line2d_61">
    <g clip-path="url(#p91d1ded67c)">
     <use style="fill:#0000ff;stroke:#0000ff;" x="257.673543" xlink:href="#m8f4b5c7c15" y="97.31892"/>
    </g>
   </g>
   <g id="line2d_62">
    <g clip-path="url(#p91d1ded67c)">
     <use style="fill:#0000ff;stroke:#0000ff;" x="259.796421" xlink:href="#m8f4b5c7c15" y="97.169083"/>
    </g>
   </g>
   <g id="line2d_63">
    <g clip-path="url(#p91d1ded67c)">
     <use style="fill:#0000ff;stroke:#0000ff;" x="261.646513" xlink:href="#m8f4b5c7c15" y="92.138526"/>
    </g>
   </g>
   <g id="line2d_64">
    <g clip-path="url(#p91d1ded67c)">
     <use style="fill:#0000ff;stroke:#0000ff;" x="263.626658" xlink:href="#m8f4b5c7c15" y="88.548338"/>
    </g>
   </g>
   <g id="line2d_65">
    <g clip-path="url(#p91d1ded67c)">
     <use style="fill:#0000ff;stroke:#0000ff;" x="265.942344" xlink:href="#m8f4b5c7c15" y="87.847158"/>
    </g>
   </g>
   <g id="line2d_66">
    <g clip-path="url(#p91d1ded67c)">
     <use style="fill:#0000ff;stroke:#0000ff;" x="268.270879" xlink:href="#m8f4b5c7c15" y="84.841843"/>
    </g>
   </g>
   <g id="line2d_67">
    <g clip-path="url(#p91d1ded67c)">
     <use style="fill:#0000ff;stroke:#0000ff;" x="271.037364" xlink:href="#m8f4b5c7c15" y="83.606399"/>
    </g>
   </g>
   <g id="line2d_68">
    <g clip-path="url(#p91d1ded67c)">
     <use style="fill:#0000ff;stroke:#0000ff;" x="274.360024" xlink:href="#m8f4b5c7c15" y="77.662112"/>
    </g>
   </g>
   <g id="line2d_69">
    <g clip-path="url(#p91d1ded67c)">
     <use style="fill:#0000ff;stroke:#0000ff;" x="277.682121" xlink:href="#m8f4b5c7c15" y="75.969838"/>
    </g>
   </g>
   <g id="line2d_70">
    <g clip-path="url(#p91d1ded67c)">
     <use style="fill:#0000ff;stroke:#0000ff;" x="281.456685" xlink:href="#m8f4b5c7c15" y="74.534921"/>
    </g>
   </g>
   <g id="line2d_71">
    <g clip-path="url(#p91d1ded67c)">
     <use style="fill:#0000ff;stroke:#0000ff;" x="285.341834" xlink:href="#m8f4b5c7c15" y="74.243309"/>
    </g>
   </g>
   <g id="line2d_72">
    <g clip-path="url(#p91d1ded67c)">
     <use style="fill:#0000ff;stroke:#0000ff;" x="290.204143" xlink:href="#m8f4b5c7c15" y="64.838508"/>
    </g>
   </g>
   <g id="line2d_73">
    <g clip-path="url(#p91d1ded67c)">
     <use style="fill:#0000ff;stroke:#0000ff;" x="295.074131" xlink:href="#m8f4b5c7c15" y="58.316709"/>
    </g>
   </g>
   <g id="line2d_74">
    <g clip-path="url(#p91d1ded67c)">
     <use style="fill:#0000ff;stroke:#0000ff;" x="303.677662" xlink:href="#m8f4b5c7c15" y="55.962231"/>
    </g>
   </g>
   <g id="line2d_75">
    <g clip-path="url(#p91d1ded67c)">
     <use style="fill:#0000ff;stroke:#0000ff;" x="317.703044" xlink:href="#m8f4b5c7c15" y="44.443636"/>
    </g>
   </g>
   <g id="line2d_76">
    <path clip-path="url(#p91d1ded67c)" d="M 54 252 
L 388.8 34.56 
" style="fill:none;stroke:#ff0000;stroke-linecap:square;stroke-width:1.5;"/>
   </g>
   <g id="patch_3">
    <path d="M 54 252 
L 54 34.56 
" style="fill:none;stroke:#000000;stroke-linecap:square;stroke-linejoin:miter;stroke-width:0.8;"/>
   </g>
   <g id="patch_4">
    <path d="M 388.8 252 
L 388.8 34.56 
" style="fill:none;stroke:#000000;stroke-linecap:square;stroke-linejoin:miter;stroke-width:0.8;"/>
   </g>
   <g id="patch_5">
    <path d="M 54 252 
L 388.8 252 
" style="fill:none;stroke:#000000;stroke-linecap:square;stroke-linejoin:miter;stroke-width:0.8;"/>
   </g>
   <g id="patch_6">
    <path d="M 54 34.56 
L 388.8 34.56 
" style="fill:none;stroke:#000000;stroke-linecap:square;stroke-linejoin:miter;stroke-width:0.8;"/>
   </g>
  </g>
 </g>
 <defs>
  <clipPath id="p91d1ded67c">
   <rect height="217.44" width="334.8" x="54" y="34.56"/>
  </clipPath>
 </defs>
</svg>
