<?xml version="1.0" encoding="utf-8" standalone="no"?>
<!DOCTYPE svg PUBLIC "-//W3C//DTD SVG 1.1//EN"
  "http://www.w3.org/Graphics/SVG/1.1/DTD/svg11.dtd">
<!-- Created with matplotlib (https://matplotlib.org/) -->
<svg height="288pt" version="1.1" viewBox="0 0 432 288" width="432pt" xmlns="http://www.w3.org/2000/svg" xmlns:xlink="http://www.w3.org/1999/xlink">
 <metadata>
  <rdf:RDF xmlns:cc="http://creativecommons.org/ns#" xmlns:dc="http://purl.org/dc/elements/1.1/" xmlns:rdf="http://www.w3.org/1999/02/22-rdf-syntax-ns#">
   <cc:Work>
    <dc:type rdf:resource="http://purl.org/dc/dcmitype/StillImage"/>
    <dc:date>2021-02-02T16:55:57.996132</dc:date>
    <dc:format>image/svg+xml</dc:format>
    <dc:creator>
     <cc:Agent>
      <dc:title>Matplotlib v3.3.2, https://matplotlib.org/</dc:title>
     </cc:Agent>
    </dc:creator>
   </cc:Work>
  </rdf:RDF>
 </metadata>
 <defs>
  <style type="text/css">*{stroke-linecap:butt;stroke-linejoin:round;}</style>
 </defs>
 <g id="figure_1">
  <g id="patch_1">
   <path d="M 0 288 
L 432 288 
L 432 0 
L 0 0 
z
" style="fill:#ffffff;"/>
  </g>
  <g id="axes_1">
   <g id="patch_2">
    <path d="M 54 252 
L 388.8 252 
L 388.8 34.56 
L 54 34.56 
z
" style="fill:#ffffff;"/>
   </g>
   <g id="patch_3">
    <path clip-path="url(#pf3f3cb0972)" d="M 69.218182 252 
L 75.305455 252 
L 75.305455 217.485714 
L 69.218182 217.485714 
z
" style="fill:#1f77b4;fill-opacity:0.75;stroke:#000000;stroke-linejoin:miter;stroke-width:0.608727;"/>
   </g>
   <g id="patch_4">
    <path clip-path="url(#pf3f3cb0972)" d="M 75.305455 252 
L 81.392727 252 
L 81.392727 252 
L 75.305455 252 
z
" style="fill:#1f77b4;fill-opacity:0.75;stroke:#000000;stroke-linejoin:miter;stroke-width:0.608727;"/>
   </g>
   <g id="patch_5">
    <path clip-path="url(#pf3f3cb0972)" d="M 81.392727 252 
L 87.48 252 
L 87.48 252 
L 81.392727 252 
z
" style="fill:#1f77b4;fill-opacity:0.75;stroke:#000000;stroke-linejoin:miter;stroke-width:0.608727;"/>
   </g>
   <g id="patch_6">
    <path clip-path="url(#pf3f3cb0972)" d="M 87.48 252 
L 93.567273 252 
L 93.567273 217.485714 
L 87.48 217.485714 
z
" style="fill:#1f77b4;fill-opacity:0.75;stroke:#000000;stroke-linejoin:miter;stroke-width:0.608727;"/>
   </g>
   <g id="patch_7">
    <path clip-path="url(#pf3f3cb0972)" d="M 93.567273 252 
L 99.654545 252 
L 99.654545 252 
L 93.567273 252 
z
" style="fill:#1f77b4;fill-opacity:0.75;stroke:#000000;stroke-linejoin:miter;stroke-width:0.608727;"/>
   </g>
   <g id="patch_8">
    <path clip-path="url(#pf3f3cb0972)" d="M 99.654545 252 
L 105.741818 252 
L 105.741818 252 
L 99.654545 252 
z
" style="fill:#1f77b4;fill-opacity:0.75;stroke:#000000;stroke-linejoin:miter;stroke-width:0.608727;"/>
   </g>
   <g id="patch_9">
    <path clip-path="url(#pf3f3cb0972)" d="M 105.741818 252 
L 111.829091 252 
L 111.829091 252 
L 105.741818 252 
z
" style="fill:#1f77b4;fill-opacity:0.75;stroke:#000000;stroke-linejoin:miter;stroke-width:0.608727;"/>
   </g>
   <g id="patch_10">
    <path clip-path="url(#pf3f3cb0972)" d="M 111.829091 252 
L 117.916364 252 
L 117.916364 252 
L 111.829091 252 
z
" style="fill:#1f77b4;fill-opacity:0.75;stroke:#000000;stroke-linejoin:miter;stroke-width:0.608727;"/>
   </g>
   <g id="patch_11">
    <path clip-path="url(#pf3f3cb0972)" d="M 117.916364 252 
L 124.003636 252 
L 124.003636 252 
L 117.916364 252 
z
" style="fill:#1f77b4;fill-opacity:0.75;stroke:#000000;stroke-linejoin:miter;stroke-width:0.608727;"/>
   </g>
   <g id="patch_12">
    <path clip-path="url(#pf3f3cb0972)" d="M 124.003636 252 
L 130.090909 252 
L 130.090909 252 
L 124.003636 252 
z
" style="fill:#1f77b4;fill-opacity:0.75;stroke:#000000;stroke-linejoin:miter;stroke-width:0.608727;"/>
   </g>
   <g id="patch_13">
    <path clip-path="url(#pf3f3cb0972)" d="M 130.090909 252 
L 136.178182 252 
L 136.178182 252 
L 130.090909 252 
z
" style="fill:#1f77b4;fill-opacity:0.75;stroke:#000000;stroke-linejoin:miter;stroke-width:0.608727;"/>
   </g>
   <g id="patch_14">
    <path clip-path="url(#pf3f3cb0972)" d="M 136.178182 252 
L 142.265455 252 
L 142.265455 217.485714 
L 136.178182 217.485714 
z
" style="fill:#1f77b4;fill-opacity:0.75;stroke:#000000;stroke-linejoin:miter;stroke-width:0.608727;"/>
   </g>
   <g id="patch_15">
    <path clip-path="url(#pf3f3cb0972)" d="M 142.265455 252 
L 148.352727 252 
L 148.352727 252 
L 142.265455 252 
z
" style="fill:#1f77b4;fill-opacity:0.75;stroke:#000000;stroke-linejoin:miter;stroke-width:0.608727;"/>
   </g>
   <g id="patch_16">
    <path clip-path="url(#pf3f3cb0972)" d="M 148.352727 252 
L 154.44 252 
L 154.44 252 
L 148.352727 252 
z
" style="fill:#1f77b4;fill-opacity:0.75;stroke:#000000;stroke-linejoin:miter;stroke-width:0.608727;"/>
   </g>
   <g id="patch_17">
    <path clip-path="url(#pf3f3cb0972)" d="M 154.44 252 
L 160.527273 252 
L 160.527273 252 
L 154.44 252 
z
" style="fill:#1f77b4;fill-opacity:0.75;stroke:#000000;stroke-linejoin:miter;stroke-width:0.608727;"/>
   </g>
   <g id="patch_18">
    <path clip-path="url(#pf3f3cb0972)" d="M 160.527273 252 
L 166.614545 252 
L 166.614545 252 
L 160.527273 252 
z
" style="fill:#1f77b4;fill-opacity:0.75;stroke:#000000;stroke-linejoin:miter;stroke-width:0.608727;"/>
   </g>
   <g id="patch_19">
    <path clip-path="url(#pf3f3cb0972)" d="M 166.614545 252 
L 172.701818 252 
L 172.701818 252 
L 166.614545 252 
z
" style="fill:#1f77b4;fill-opacity:0.75;stroke:#000000;stroke-linejoin:miter;stroke-width:0.608727;"/>
   </g>
   <g id="patch_20">
    <path clip-path="url(#pf3f3cb0972)" d="M 172.701818 252 
L 178.789091 252 
L 178.789091 217.485714 
L 172.701818 217.485714 
z
" style="fill:#1f77b4;fill-opacity:0.75;stroke:#000000;stroke-linejoin:miter;stroke-width:0.608727;"/>
   </g>
   <g id="patch_21">
    <path clip-path="url(#pf3f3cb0972)" d="M 178.789091 252 
L 184.876364 252 
L 184.876364 252 
L 178.789091 252 
z
" style="fill:#1f77b4;fill-opacity:0.75;stroke:#000000;stroke-linejoin:miter;stroke-width:0.608727;"/>
   </g>
   <g id="patch_22">
    <path clip-path="url(#pf3f3cb0972)" d="M 184.876364 252 
L 190.963636 252 
L 190.963636 252 
L 184.876364 252 
z
" style="fill:#1f77b4;fill-opacity:0.75;stroke:#000000;stroke-linejoin:miter;stroke-width:0.608727;"/>
   </g>
   <g id="patch_23">
    <path clip-path="url(#pf3f3cb0972)" d="M 190.963636 252 
L 197.050909 252 
L 197.050909 252 
L 190.963636 252 
z
" style="fill:#1f77b4;fill-opacity:0.75;stroke:#000000;stroke-linejoin:miter;stroke-width:0.608727;"/>
   </g>
   <g id="patch_24">
    <path clip-path="url(#pf3f3cb0972)" d="M 197.050909 252 
L 203.138182 252 
L 203.138182 182.971429 
L 197.050909 182.971429 
z
" style="fill:#1f77b4;fill-opacity:0.75;stroke:#000000;stroke-linejoin:miter;stroke-width:0.608727;"/>
   </g>
   <g id="patch_25">
    <path clip-path="url(#pf3f3cb0972)" d="M 203.138182 252 
L 209.225455 252 
L 209.225455 252 
L 203.138182 252 
z
" style="fill:#1f77b4;fill-opacity:0.75;stroke:#000000;stroke-linejoin:miter;stroke-width:0.608727;"/>
   </g>
   <g id="patch_26">
    <path clip-path="url(#pf3f3cb0972)" d="M 209.225455 252 
L 215.312727 252 
L 215.312727 217.485714 
L 209.225455 217.485714 
z
" style="fill:#1f77b4;fill-opacity:0.75;stroke:#000000;stroke-linejoin:miter;stroke-width:0.608727;"/>
   </g>
   <g id="patch_27">
    <path clip-path="url(#pf3f3cb0972)" d="M 215.312727 252 
L 221.4 252 
L 221.4 252 
L 215.312727 252 
z
" style="fill:#1f77b4;fill-opacity:0.75;stroke:#000000;stroke-linejoin:miter;stroke-width:0.608727;"/>
   </g>
   <g id="patch_28">
    <path clip-path="url(#pf3f3cb0972)" d="M 221.4 252 
L 227.487273 252 
L 227.487273 252 
L 221.4 252 
z
" style="fill:#1f77b4;fill-opacity:0.75;stroke:#000000;stroke-linejoin:miter;stroke-width:0.608727;"/>
   </g>
   <g id="patch_29">
    <path clip-path="url(#pf3f3cb0972)" d="M 227.487273 252 
L 233.574545 252 
L 233.574545 217.485714 
L 227.487273 217.485714 
z
" style="fill:#1f77b4;fill-opacity:0.75;stroke:#000000;stroke-linejoin:miter;stroke-width:0.608727;"/>
   </g>
   <g id="patch_30">
    <path clip-path="url(#pf3f3cb0972)" d="M 233.574545 252 
L 239.661818 252 
L 239.661818 252 
L 233.574545 252 
z
" style="fill:#1f77b4;fill-opacity:0.75;stroke:#000000;stroke-linejoin:miter;stroke-width:0.608727;"/>
   </g>
   <g id="patch_31">
    <path clip-path="url(#pf3f3cb0972)" d="M 239.661818 252 
L 245.749091 252 
L 245.749091 148.457143 
L 239.661818 148.457143 
z
" style="fill:#1f77b4;fill-opacity:0.75;stroke:#000000;stroke-linejoin:miter;stroke-width:0.608727;"/>
   </g>
   <g id="patch_32">
    <path clip-path="url(#pf3f3cb0972)" d="M 245.749091 252 
L 251.836364 252 
L 251.836364 113.942857 
L 245.749091 113.942857 
z
" style="fill:#1f77b4;fill-opacity:0.75;stroke:#000000;stroke-linejoin:miter;stroke-width:0.608727;"/>
   </g>
   <g id="patch_33">
    <path clip-path="url(#pf3f3cb0972)" d="M 251.836364 252 
L 257.923636 252 
L 257.923636 113.942857 
L 251.836364 113.942857 
z
" style="fill:#1f77b4;fill-opacity:0.75;stroke:#000000;stroke-linejoin:miter;stroke-width:0.608727;"/>
   </g>
   <g id="patch_34">
    <path clip-path="url(#pf3f3cb0972)" d="M 257.923636 252 
L 264.010909 252 
L 264.010909 148.457143 
L 257.923636 148.457143 
z
" style="fill:#1f77b4;fill-opacity:0.75;stroke:#000000;stroke-linejoin:miter;stroke-width:0.608727;"/>
   </g>
   <g id="patch_35">
    <path clip-path="url(#pf3f3cb0972)" d="M 264.010909 252 
L 270.098182 252 
L 270.098182 217.485714 
L 264.010909 217.485714 
z
" style="fill:#1f77b4;fill-opacity:0.75;stroke:#000000;stroke-linejoin:miter;stroke-width:0.608727;"/>
   </g>
   <g id="patch_36">
    <path clip-path="url(#pf3f3cb0972)" d="M 270.098182 252 
L 276.185455 252 
L 276.185455 148.457143 
L 270.098182 148.457143 
z
" style="fill:#1f77b4;fill-opacity:0.75;stroke:#000000;stroke-linejoin:miter;stroke-width:0.608727;"/>
   </g>
   <g id="patch_37">
    <path clip-path="url(#pf3f3cb0972)" d="M 276.185455 252 
L 282.272727 252 
L 282.272727 148.457143 
L 276.185455 148.457143 
z
" style="fill:#1f77b4;fill-opacity:0.75;stroke:#000000;stroke-linejoin:miter;stroke-width:0.608727;"/>
   </g>
   <g id="patch_38">
    <path clip-path="url(#pf3f3cb0972)" d="M 282.272727 252 
L 288.36 252 
L 288.36 44.914286 
L 282.272727 44.914286 
z
" style="fill:#1f77b4;fill-opacity:0.75;stroke:#000000;stroke-linejoin:miter;stroke-width:0.608727;"/>
   </g>
   <g id="patch_39">
    <path clip-path="url(#pf3f3cb0972)" d="M 288.36 252 
L 294.447273 252 
L 294.447273 182.971429 
L 288.36 182.971429 
z
" style="fill:#1f77b4;fill-opacity:0.75;stroke:#000000;stroke-linejoin:miter;stroke-width:0.608727;"/>
   </g>
   <g id="patch_40">
    <path clip-path="url(#pf3f3cb0972)" d="M 294.447273 252 
L 300.534545 252 
L 300.534545 182.971429 
L 294.447273 182.971429 
z
" style="fill:#1f77b4;fill-opacity:0.75;stroke:#000000;stroke-linejoin:miter;stroke-width:0.608727;"/>
   </g>
   <g id="patch_41">
    <path clip-path="url(#pf3f3cb0972)" d="M 300.534545 252 
L 306.621818 252 
L 306.621818 44.914286 
L 300.534545 44.914286 
z
" style="fill:#1f77b4;fill-opacity:0.75;stroke:#000000;stroke-linejoin:miter;stroke-width:0.608727;"/>
   </g>
   <g id="patch_42">
    <path clip-path="url(#pf3f3cb0972)" d="M 306.621818 252 
L 312.709091 252 
L 312.709091 182.971429 
L 306.621818 182.971429 
z
" style="fill:#1f77b4;fill-opacity:0.75;stroke:#000000;stroke-linejoin:miter;stroke-width:0.608727;"/>
   </g>
   <g id="patch_43">
    <path clip-path="url(#pf3f3cb0972)" d="M 312.709091 252 
L 318.796364 252 
L 318.796364 79.428571 
L 312.709091 79.428571 
z
" style="fill:#1f77b4;fill-opacity:0.75;stroke:#000000;stroke-linejoin:miter;stroke-width:0.608727;"/>
   </g>
   <g id="patch_44">
    <path clip-path="url(#pf3f3cb0972)" d="M 318.796364 252 
L 324.883636 252 
L 324.883636 217.485714 
L 318.796364 217.485714 
z
" style="fill:#1f77b4;fill-opacity:0.75;stroke:#000000;stroke-linejoin:miter;stroke-width:0.608727;"/>
   </g>
   <g id="patch_45">
    <path clip-path="url(#pf3f3cb0972)" d="M 324.883636 252 
L 330.970909 252 
L 330.970909 182.971429 
L 324.883636 182.971429 
z
" style="fill:#1f77b4;fill-opacity:0.75;stroke:#000000;stroke-linejoin:miter;stroke-width:0.608727;"/>
   </g>
   <g id="patch_46">
    <path clip-path="url(#pf3f3cb0972)" d="M 330.970909 252 
L 337.058182 252 
L 337.058182 182.971429 
L 330.970909 182.971429 
z
" style="fill:#1f77b4;fill-opacity:0.75;stroke:#000000;stroke-linejoin:miter;stroke-width:0.608727;"/>
   </g>
   <g id="patch_47">
    <path clip-path="url(#pf3f3cb0972)" d="M 337.058182 252 
L 343.145455 252 
L 343.145455 217.485714 
L 337.058182 217.485714 
z
" style="fill:#1f77b4;fill-opacity:0.75;stroke:#000000;stroke-linejoin:miter;stroke-width:0.608727;"/>
   </g>
   <g id="patch_48">
    <path clip-path="url(#pf3f3cb0972)" d="M 343.145455 252 
L 349.232727 252 
L 349.232727 252 
L 343.145455 252 
z
" style="fill:#1f77b4;fill-opacity:0.75;stroke:#000000;stroke-linejoin:miter;stroke-width:0.608727;"/>
   </g>
   <g id="patch_49">
    <path clip-path="url(#pf3f3cb0972)" d="M 349.232727 252 
L 355.32 252 
L 355.32 217.485714 
L 349.232727 217.485714 
z
" style="fill:#1f77b4;fill-opacity:0.75;stroke:#000000;stroke-linejoin:miter;stroke-width:0.608727;"/>
   </g>
   <g id="patch_50">
    <path clip-path="url(#pf3f3cb0972)" d="M 355.32 252 
L 361.407273 252 
L 361.407273 252 
L 355.32 252 
z
" style="fill:#1f77b4;fill-opacity:0.75;stroke:#000000;stroke-linejoin:miter;stroke-width:0.608727;"/>
   </g>
   <g id="patch_51">
    <path clip-path="url(#pf3f3cb0972)" d="M 361.407273 252 
L 367.494545 252 
L 367.494545 252 
L 361.407273 252 
z
" style="fill:#1f77b4;fill-opacity:0.75;stroke:#000000;stroke-linejoin:miter;stroke-width:0.608727;"/>
   </g>
   <g id="patch_52">
    <path clip-path="url(#pf3f3cb0972)" d="M 367.494545 252 
L 373.581818 252 
L 373.581818 182.971429 
L 367.494545 182.971429 
z
" style="fill:#1f77b4;fill-opacity:0.75;stroke:#000000;stroke-linejoin:miter;stroke-width:0.608727;"/>
   </g>
   <g id="matplotlib.axis_1">
    <g id="xtick_1">
     <g id="line2d_1">
      <defs>
       <path d="M 0 0 
L 0 3.5 
" id="m9c7b18eb9a" style="stroke:#000000;stroke-width:0.8;"/>
      </defs>
      <g>
       <use style="stroke:#000000;stroke-width:0.8;" x="69.145017" xlink:href="#m9c7b18eb9a" y="252"/>
      </g>
     </g>
     <g id="text_1">
      <!-- −0.125 -->
      <g transform="translate(55.075486 265.85625)scale(0.1 -0.1)">
       <defs>
        <path d="M 2.984375 28.65625 
L 53.46875 28.65625 
L 53.46875 21.828125 
L 2.984375 21.828125 
z
" id="Times-Roman-8722"/>
        <path d="M 23.921875 1.8125 
Q 31.109375 1.8125 33.78125 9.671875 
Q 36.46875 17.53125 36.46875 32.421875 
Q 36.46875 44.28125 34.859375 51.375 
Q 31.84375 64.546875 23.53125 64.546875 
Q 15.234375 64.546875 12.15625 50.984375 
Q 10.546875 43.75 10.546875 31.9375 
Q 10.546875 20.84375 12.203125 14.203125 
Q 15.328125 1.8125 23.921875 1.8125 
z
M 23.78125 67.1875 
Q 35.015625 67.1875 41.21875 55.421875 
Q 46.140625 45.90625 46.140625 33.546875 
Q 46.140625 23.828125 43.109375 15.234375 
Q 37.40625 -0.921875 23.34375 -0.921875 
Q 13.71875 -0.921875 7.515625 7.8125 
Q 0.875 17.140625 0.875 33.15625 
Q 0.875 45.75 5.328125 54.828125 
Q 11.328125 67.1875 23.78125 67.1875 
z
" id="Times-Roman-48"/>
        <path d="M 16.3125 -1.171875 
Q 13.96875 -1.171875 12.359375 0.453125 
Q 10.75 2.09375 10.75 4.390625 
Q 10.75 6.6875 12.375 8.296875 
Q 14.015625 9.90625 16.3125 9.90625 
Q 18.609375 9.90625 20.21875 8.296875 
Q 21.828125 6.6875 21.828125 4.390625 
Q 21.828125 2.09375 20.234375 0.453125 
Q 18.65625 -1.171875 16.3125 -1.171875 
z
" id="Times-Roman-46"/>
        <path d="M 29.59375 67.09375 
Q 29.78125 66.84375 29.796875 66.71875 
Q 29.828125 66.609375 29.828125 66.15625 
L 29.828125 7.375 
Q 29.828125 3.609375 31.828125 2.578125 
Q 33.84375 1.5625 39.3125 1.375 
L 39.3125 0 
L 11.765625 0 
L 11.765625 1.46875 
Q 17.671875 1.765625 19.484375 3.078125 
Q 21.296875 4.390625 21.296875 8.796875 
L 21.296875 54 
Q 21.296875 56.34375 20.703125 57.5625 
Q 20.125 58.796875 18.171875 58.796875 
Q 16.890625 58.796875 14.859375 58.078125 
Q 12.84375 57.375 11.078125 56.59375 
L 11.078125 57.953125 
L 29 67.09375 
L 29.59375 67.09375 
z
" id="Times-Roman-49"/>
        <path d="M 2.984375 1.125 
Q 20.84375 19.671875 27.234375 28.359375 
Q 33.640625 37.0625 33.640625 45.3125 
Q 33.640625 52.546875 29.734375 56.328125 
Q 25.828125 60.109375 20.40625 60.109375 
Q 13.71875 60.109375 9.578125 55.21875 
Q 7.28125 52.546875 5.171875 46.96875 
L 3.078125 47.40625 
Q 5.515625 58.640625 11.34375 63.015625 
Q 17.1875 67.390625 23.875 67.390625 
Q 32.125 67.390625 37.21875 62.1875 
Q 42.328125 56.984375 42.328125 49.46875 
Q 42.328125 41.453125 36.8125 34.03125 
Q 31.296875 26.609375 12.84375 7.625 
L 35.25 7.625 
Q 39.9375 7.625 41.84375 8.734375 
Q 43.75 9.859375 46.140625 14.203125 
L 47.40625 13.625 
L 42 0 
L 2.984375 0 
z
" id="Times-Roman-50"/>
        <path d="M 7.46875 8.9375 
Q 10.25 8.9375 14.765625 5.78125 
Q 19.28125 2.640625 21.734375 2.640625 
Q 27.34375 2.640625 31.546875 7.59375 
Q 35.75 12.546875 35.75 19.78125 
Q 35.75 32.421875 22.265625 37.984375 
Q 14.796875 41.0625 8.34375 41.0625 
Q 7.28125 41.0625 7 41.140625 
Q 6.734375 41.21875 6.34375 41.65625 
Q 6.453125 42.046875 6.515625 42.3125 
Q 6.59375 42.578125 6.6875 42.828125 
L 17.328125 66.15625 
L 38.28125 66.15625 
Q 39.84375 66.15625 40.6875 66.6875 
Q 41.546875 67.234375 42.921875 68.703125 
L 43.703125 68.015625 
L 39.890625 58.984375 
Q 39.703125 58.546875 38.8125 58.421875 
Q 37.9375 58.296875 36.921875 58.296875 
L 18.015625 58.296875 
L 13.875 49.75 
Q 21.875 48.390625 25.59375 47.171875 
Q 31.6875 45.125 35.796875 41.109375 
Q 39.3125 37.640625 41.109375 33.3125 
Q 42.921875 29 42.921875 24.171875 
Q 42.921875 13.375 35.234375 6.140625 
Q 27.546875 -1.078125 15.765625 -1.078125 
Q 10.984375 -1.078125 8.0625 -0.140625 
Q 3.171875 1.375 3.171875 5.28125 
Q 3.171875 6.734375 4.21875 7.828125 
Q 5.28125 8.9375 7.46875 8.9375 
z
" id="Times-Roman-53"/>
       </defs>
       <use xlink:href="#Times-Roman-8722"/>
       <use x="56.396484" xlink:href="#Times-Roman-48"/>
       <use x="106.396484" xlink:href="#Times-Roman-46"/>
       <use x="131.396484" xlink:href="#Times-Roman-49"/>
       <use x="181.396484" xlink:href="#Times-Roman-50"/>
       <use x="231.396484" xlink:href="#Times-Roman-53"/>
      </g>
     </g>
    </g>
    <g id="xtick_2">
     <g id="line2d_2">
      <g>
       <use style="stroke:#000000;stroke-width:0.8;" x="112.636544" xlink:href="#m9c7b18eb9a" y="252"/>
      </g>
     </g>
     <g id="text_2">
      <!-- −0.100 -->
      <g transform="translate(98.567013 265.85625)scale(0.1 -0.1)">
       <use xlink:href="#Times-Roman-8722"/>
       <use x="56.396484" xlink:href="#Times-Roman-48"/>
       <use x="106.396484" xlink:href="#Times-Roman-46"/>
       <use x="131.396484" xlink:href="#Times-Roman-49"/>
       <use x="181.396484" xlink:href="#Times-Roman-48"/>
       <use x="231.396484" xlink:href="#Times-Roman-48"/>
      </g>
     </g>
    </g>
    <g id="xtick_3">
     <g id="line2d_3">
      <g>
       <use style="stroke:#000000;stroke-width:0.8;" x="156.12807" xlink:href="#m9c7b18eb9a" y="252"/>
      </g>
     </g>
     <g id="text_3">
      <!-- −0.075 -->
      <g transform="translate(142.058539 265.85625)scale(0.1 -0.1)">
       <defs>
        <path d="M 44.875 66.15625 
L 44.875 64.546875 
L 23.6875 -0.921875 
L 17.234375 -0.921875 
L 37.015625 58.796875 
L 15.71875 58.796875 
Q 10.984375 58.796875 8.90625 57.234375 
Q 6.84375 55.671875 3.65625 50.6875 
L 1.953125 51.46875 
Q 5.125 59.28125 5.875 61.109375 
Q 6.640625 62.9375 7.859375 66.15625 
z
" id="Times-Roman-55"/>
       </defs>
       <use xlink:href="#Times-Roman-8722"/>
       <use x="56.396484" xlink:href="#Times-Roman-48"/>
       <use x="106.396484" xlink:href="#Times-Roman-46"/>
       <use x="131.396484" xlink:href="#Times-Roman-48"/>
       <use x="181.396484" xlink:href="#Times-Roman-55"/>
       <use x="231.396484" xlink:href="#Times-Roman-53"/>
      </g>
     </g>
    </g>
    <g id="xtick_4">
     <g id="line2d_4">
      <g>
       <use style="stroke:#000000;stroke-width:0.8;" x="199.619597" xlink:href="#m9c7b18eb9a" y="252"/>
      </g>
     </g>
     <g id="text_4">
      <!-- −0.050 -->
      <g transform="translate(185.550066 265.85625)scale(0.1 -0.1)">
       <use xlink:href="#Times-Roman-8722"/>
       <use x="56.396484" xlink:href="#Times-Roman-48"/>
       <use x="106.396484" xlink:href="#Times-Roman-46"/>
       <use x="131.396484" xlink:href="#Times-Roman-48"/>
       <use x="181.396484" xlink:href="#Times-Roman-53"/>
       <use x="231.396484" xlink:href="#Times-Roman-48"/>
      </g>
     </g>
    </g>
    <g id="xtick_5">
     <g id="line2d_5">
      <g>
       <use style="stroke:#000000;stroke-width:0.8;" x="243.111124" xlink:href="#m9c7b18eb9a" y="252"/>
      </g>
     </g>
     <g id="text_5">
      <!-- −0.025 -->
      <g transform="translate(229.041593 265.85625)scale(0.1 -0.1)">
       <use xlink:href="#Times-Roman-8722"/>
       <use x="56.396484" xlink:href="#Times-Roman-48"/>
       <use x="106.396484" xlink:href="#Times-Roman-46"/>
       <use x="131.396484" xlink:href="#Times-Roman-48"/>
       <use x="181.396484" xlink:href="#Times-Roman-50"/>
       <use x="231.396484" xlink:href="#Times-Roman-53"/>
      </g>
     </g>
    </g>
    <g id="xtick_6">
     <g id="line2d_6">
      <g>
       <use style="stroke:#000000;stroke-width:0.8;" x="286.602651" xlink:href="#m9c7b18eb9a" y="252"/>
      </g>
     </g>
     <g id="text_6">
      <!-- 0.000 -->
      <g transform="translate(275.352651 265.85625)scale(0.1 -0.1)">
       <use xlink:href="#Times-Roman-48"/>
       <use x="50" xlink:href="#Times-Roman-46"/>
       <use x="75" xlink:href="#Times-Roman-48"/>
       <use x="125" xlink:href="#Times-Roman-48"/>
       <use x="175" xlink:href="#Times-Roman-48"/>
      </g>
     </g>
    </g>
    <g id="xtick_7">
     <g id="line2d_7">
      <g>
       <use style="stroke:#000000;stroke-width:0.8;" x="330.094177" xlink:href="#m9c7b18eb9a" y="252"/>
      </g>
     </g>
     <g id="text_7">
      <!-- 0.025 -->
      <g transform="translate(318.844177 265.85625)scale(0.1 -0.1)">
       <use xlink:href="#Times-Roman-48"/>
       <use x="50" xlink:href="#Times-Roman-46"/>
       <use x="75" xlink:href="#Times-Roman-48"/>
       <use x="125" xlink:href="#Times-Roman-50"/>
       <use x="175" xlink:href="#Times-Roman-53"/>
      </g>
     </g>
    </g>
    <g id="xtick_8">
     <g id="line2d_8">
      <g>
       <use style="stroke:#000000;stroke-width:0.8;" x="373.585704" xlink:href="#m9c7b18eb9a" y="252"/>
      </g>
     </g>
     <g id="text_8">
      <!-- 0.050 -->
      <g transform="translate(362.335704 265.85625)scale(0.1 -0.1)">
       <use xlink:href="#Times-Roman-48"/>
       <use x="50" xlink:href="#Times-Roman-46"/>
       <use x="75" xlink:href="#Times-Roman-48"/>
       <use x="125" xlink:href="#Times-Roman-53"/>
       <use x="175" xlink:href="#Times-Roman-48"/>
      </g>
     </g>
    </g>
    <g id="text_9">
     <!-- Cumulative Returns -->
     <g transform="translate(181.264844 278.890625)scale(0.1 -0.1)">
      <defs>
       <path d="M 37.015625 67.328125 
Q 42.4375 67.328125 48.140625 65.71875 
Q 53.859375 64.109375 54.546875 64.109375 
Q 55.953125 64.109375 57.21875 64.890625 
Q 58.5 65.671875 58.984375 67.328125 
L 61.078125 67.328125 
L 62.015625 44.875 
L 59.71875 44.875 
Q 57.71875 51.5625 54.5 55.671875 
Q 48.34375 63.375 37.9375 63.375 
Q 27.4375 63.375 20.765625 55.078125 
Q 14.109375 46.78125 14.109375 32.234375 
Q 14.109375 18.84375 21.109375 10.859375 
Q 28.125 2.875 38.875 2.875 
Q 46.625 2.875 53.171875 6.59375 
Q 56.9375 8.6875 61.421875 12.9375 
L 63.28125 11.078125 
Q 59.96875 6.890625 55.03125 3.71875 
Q 46.625 -1.65625 36.8125 -1.65625 
Q 20.703125 -1.65625 11.234375 8.640625 
Q 2.484375 18.171875 2.484375 32.421875 
Q 2.484375 47.015625 11.71875 56.9375 
Q 21.4375 67.328125 37.015625 67.328125 
z
M 36.671875 67.328125 
z
" id="Times-Roman-67"/>
       <path d="M 15.484375 45.21875 
L 15.484375 13.96875 
Q 15.484375 10.640625 16.40625 8.640625 
Q 18.21875 4.9375 23.046875 4.9375 
Q 26.375 4.9375 29.546875 7.125 
Q 31.34375 8.34375 33.203125 10.5 
L 33.203125 37.25 
Q 33.203125 41.015625 31.734375 42.1875 
Q 30.28125 43.359375 25.875 43.609375 
L 25.875 45.21875 
L 41.65625 45.21875 
L 41.65625 10.84375 
Q 41.65625 7.515625 42.84375 6.265625 
Q 44.046875 5.03125 47.90625 5.171875 
L 47.90625 3.8125 
Q 45.21875 3.078125 43.9375 2.703125 
Q 42.671875 2.34375 39.703125 1.375 
Q 38.421875 0.921875 34.125 -0.734375 
Q 33.890625 -0.734375 33.84375 -0.515625 
Q 33.796875 -0.296875 33.796875 0 
L 33.796875 7.859375 
Q 30.46875 3.90625 27.734375 2 
Q 23.578125 -0.921875 18.953125 -0.921875 
Q 14.703125 -0.921875 10.9375 2.09375 
Q 7.125 5.078125 7.125 12.109375 
L 7.125 37.453125 
Q 7.125 41.359375 5.46875 42.671875 
Q 4.390625 43.5 0.875 43.84375 
L 0.875 45.21875 
z
M 25.046875 45.796875 
z
" id="Times-Roman-117"/>
       <path d="M 1.609375 1.265625 
Q 5.421875 1.609375 6.6875 2.546875 
Q 8.640625 3.953125 8.640625 8.203125 
L 8.640625 33.453125 
Q 8.640625 37.0625 7.6875 38.1875 
Q 6.734375 39.3125 4.546875 39.3125 
Q 3.515625 39.3125 3 39.203125 
Q 2.484375 39.109375 1.8125 38.875 
L 1.8125 40.578125 
L 5.328125 41.75 
Q 7.234375 42.390625 11.578125 44.046875 
Q 15.921875 45.703125 16.15625 45.703125 
Q 16.40625 45.703125 16.453125 45.453125 
Q 16.5 45.21875 16.5 44.53125 
L 16.5 37.9375 
Q 21.34375 42.328125 24.859375 44.015625 
Q 28.375 45.703125 32.078125 45.703125 
Q 37.109375 45.703125 40.09375 42.28125 
Q 41.65625 40.4375 42.671875 37.25 
Q 46.296875 40.921875 48.96875 42.671875 
Q 53.609375 45.703125 58.453125 45.703125 
Q 66.3125 45.703125 68.953125 39.3125 
Q 70.453125 35.6875 70.453125 27.875 
L 70.453125 7.625 
Q 70.453125 4.15625 71.984375 2.90625 
Q 73.53125 1.65625 77.546875 1.265625 
L 77.546875 0 
L 55.515625 0 
L 55.515625 1.375 
Q 59.765625 1.765625 61.109375 3.078125 
Q 62.453125 4.390625 62.453125 8.453125 
L 62.453125 29.5 
Q 62.453125 34.234375 61.421875 36.46875 
Q 59.625 40.484375 54.34375 40.484375 
Q 51.171875 40.484375 48.046875 38.375 
Q 46.234375 37.15625 43.609375 34.46875 
L 43.609375 9.46875 
Q 43.609375 5.515625 45 3.46875 
Q 46.390625 1.421875 50.875 1.265625 
L 50.875 0 
L 28.46875 0 
L 28.46875 1.265625 
Q 33.109375 1.859375 34.375 3.515625 
Q 35.640625 5.171875 35.640625 11.671875 
L 35.640625 25.34375 
Q 35.640625 32.859375 34.671875 35.6875 
Q 33.0625 40.484375 27.828125 40.484375 
Q 24.859375 40.484375 21.96875 38.84375 
Q 19.09375 37.203125 16.890625 34.578125 
L 16.890625 7.859375 
Q 16.890625 4.15625 18.1875 2.734375 
Q 19.484375 1.3125 23.828125 1.265625 
L 23.828125 0 
L 1.609375 0 
z
" id="Times-Roman-109"/>
       <path d="M 2.046875 1.375 
Q 6.59375 1.8125 8.203125 3.203125 
Q 9.8125 4.59375 9.8125 8.640625 
L 9.8125 56.34375 
Q 9.8125 59.578125 9.28125 60.796875 
Q 8.296875 62.84375 5.328125 62.84375 
Q 4.640625 62.84375 3.828125 62.6875 
Q 3.03125 62.546875 1.8125 62.25 
L 1.8125 63.875 
Q 8.40625 65.625 17.671875 68.5625 
Q 18.015625 68.5625 18.09375 68.265625 
Q 18.171875 67.96875 18.171875 67 
L 18.171875 8.453125 
Q 18.171875 4.203125 19.625 2.953125 
Q 21.09375 1.703125 25.6875 1.375 
L 25.6875 0 
L 2.046875 0 
z
" id="Times-Roman-108"/>
       <path d="M 28.65625 27.046875 
Q 23.046875 25.203125 19.390625 22.953125 
Q 12.359375 18.609375 12.359375 13.09375 
Q 12.359375 8.640625 15.28125 6.546875 
Q 17.1875 5.171875 19.53125 5.171875 
Q 22.75 5.171875 25.703125 6.984375 
Q 28.65625 8.796875 28.65625 11.578125 
z
M 3.65625 9.71875 
Q 3.65625 16.796875 10.75 21.53125 
Q 15.234375 24.46875 28.65625 29.5 
L 28.65625 33.640625 
Q 28.65625 38.625 27.6875 40.578125 
Q 26.03125 43.84375 20.796875 43.84375 
Q 18.3125 43.84375 16.0625 42.578125 
Q 13.8125 41.265625 13.8125 38.96875 
Q 13.8125 38.375 14.0625 36.984375 
Q 14.3125 35.59375 14.3125 35.203125 
Q 14.3125 32.46875 12.5 31.390625 
Q 11.46875 30.765625 10.0625 30.765625 
Q 7.859375 30.765625 6.6875 32.203125 
Q 5.515625 33.640625 5.515625 35.40625 
Q 5.515625 38.8125 9.734375 42.546875 
Q 13.96875 46.296875 22.125 46.296875 
Q 31.59375 46.296875 34.96875 40.140625 
Q 36.765625 36.765625 36.765625 30.328125 
L 36.765625 10.75 
Q 36.765625 7.90625 37.15625 6.84375 
Q 37.796875 4.9375 39.796875 4.9375 
Q 40.921875 4.9375 41.65625 5.265625 
Q 42.390625 5.609375 44.1875 6.9375 
L 44.1875 4.390625 
Q 42.625 2.484375 40.828125 1.265625 
Q 38.09375 -0.59375 35.25 -0.59375 
Q 31.9375 -0.59375 30.4375 1.5625 
Q 28.953125 3.71875 28.8125 6.6875 
Q 25.09375 3.46875 22.46875 1.90625 
Q 18.015625 -0.734375 14.015625 -0.734375 
Q 9.8125 -0.734375 6.734375 2.21875 
Q 3.65625 5.171875 3.65625 9.71875 
z
M 22.265625 46.296875 
z
" id="Times-Roman-97"/>
       <path d="M 25.4375 45.015625 
L 25.4375 41.5 
L 15.484375 41.5 
L 15.375 13.375 
Q 15.375 9.671875 16.015625 7.765625 
Q 17.1875 4.390625 20.609375 4.390625 
Q 22.359375 4.390625 23.65625 5.21875 
Q 24.953125 6.0625 26.609375 7.859375 
L 27.875 6.78125 
L 26.8125 5.328125 
Q 24.265625 1.90625 21.4375 0.484375 
Q 18.609375 -0.921875 15.96875 -0.921875 
Q 10.203125 -0.921875 8.15625 4.203125 
Q 7.03125 6.984375 7.03125 11.921875 
L 7.03125 41.5 
L 1.703125 41.5 
Q 1.46875 41.65625 1.34375 41.796875 
Q 1.21875 41.9375 1.21875 42.1875 
Q 1.21875 42.671875 1.4375 42.9375 
Q 1.65625 43.21875 2.828125 44.1875 
Q 6.203125 46.96875 7.6875 48.703125 
Q 9.1875 50.4375 14.703125 57.859375 
Q 15.328125 57.859375 15.453125 57.765625 
Q 15.578125 57.671875 15.578125 57.03125 
L 15.578125 45.015625 
z
" id="Times-Roman-116"/>
       <path d="M 8.203125 63.03125 
Q 8.203125 65.140625 9.671875 66.65625 
Q 11.140625 68.171875 13.28125 68.171875 
Q 15.375 68.171875 16.859375 66.671875 
Q 18.359375 65.1875 18.359375 63.03125 
Q 18.359375 60.9375 16.859375 59.4375 
Q 15.375 57.953125 13.28125 57.953125 
Q 11.140625 57.953125 9.671875 59.4375 
Q 8.203125 60.9375 8.203125 63.03125 
z
M 1.953125 1.375 
Q 7.171875 1.859375 8.53125 3.140625 
Q 9.90625 4.4375 9.90625 10.15625 
L 9.90625 33.453125 
Q 9.90625 36.625 9.46875 37.84375 
Q 8.734375 39.84375 6.390625 39.84375 
Q 5.859375 39.84375 5.34375 39.75 
Q 4.828125 39.65625 2.390625 38.96875 
L 2.390625 40.484375 
L 4.5 41.15625 
Q 13.03125 43.953125 16.40625 45.359375 
Q 17.78125 45.953125 18.171875 45.953125 
Q 18.265625 45.609375 18.265625 45.21875 
L 18.265625 10.15625 
Q 18.265625 4.59375 19.609375 3.171875 
Q 20.953125 1.765625 25.6875 1.375 
L 25.6875 0 
L 1.953125 0 
z
" id="Times-Roman-105"/>
       <path d="M 21.484375 45.359375 
L 21.484375 43.84375 
Q 18.953125 43.5625 17.890625 43.0625 
Q 16.84375 42.578125 16.84375 40.921875 
Q 16.84375 40.140625 17.0625 39.421875 
Q 17.28125 38.71875 17.828125 37.359375 
L 27.984375 12.109375 
L 36.765625 34.46875 
Q 37.40625 36.078125 37.96875 37.828125 
Q 38.53125 39.59375 38.53125 40.53125 
Q 38.53125 42.4375 36.71875 43.265625 
Q 35.640625 43.703125 33.796875 43.84375 
L 33.796875 45.359375 
L 47.65625 45.359375 
L 47.65625 43.84375 
Q 45.265625 43.65625 44.21875 42.265625 
Q 43.171875 40.875 41.15625 35.84375 
L 27.046875 0.6875 
Q 26.65625 -0.25 26.40625 -0.578125 
Q 26.171875 -0.921875 25.734375 -0.921875 
Q 25.25 -0.921875 24.90625 -0.359375 
Q 24.5625 0.203125 24.171875 1.03125 
L 9.234375 36.765625 
Q 7.421875 41.109375 5.375 42.671875 
Q 4.15625 43.5625 1.8125 43.84375 
L 1.8125 45.359375 
z
" id="Times-Roman-118"/>
       <path d="M 22.90625 45.796875 
Q 29.78125 45.796875 34.953125 41.03125 
Q 40.140625 36.28125 40.140625 27.546875 
L 9.125 27.546875 
Q 9.625 16.21875 14.25 11.03125 
Q 18.890625 5.859375 25.25 5.859375 
Q 30.375 5.859375 33.890625 8.546875 
Q 37.40625 11.234375 40.375 16.15625 
L 42.09375 15.578125 
Q 40.09375 9.375 34.59375 4.09375 
Q 29.109375 -1.171875 21.140625 -1.171875 
Q 11.96875 -1.171875 6.953125 5.765625 
Q 1.953125 12.703125 1.953125 21.734375 
Q 1.953125 31.546875 7.765625 38.671875 
Q 13.578125 45.796875 22.90625 45.796875 
z
M 20.0625 42.234375 
Q 14.5 42.234375 11.578125 37.3125 
Q 10.015625 34.671875 9.328125 30.671875 
L 29.9375 30.671875 
Q 29.390625 35.546875 28.078125 37.9375 
Q 25.6875 42.234375 20.0625 42.234375 
z
M 22.265625 45.796875 
z
" id="Times-Roman-101"/>
       <path id="Times-Roman-32"/>
       <path d="M 19.875 34.234375 
Q 30.671875 34.625 35.296875 36.46875 
Q 43.265625 39.75 43.265625 48.78125 
Q 43.265625 57.46875 36.140625 60.640625 
Q 32.328125 62.359375 26.03125 62.359375 
Q 21.78125 62.359375 20.828125 61.75 
Q 19.875 61.140625 19.875 58.890625 
L 19.875 34.234375 
z
M 1.125 1.8125 
Q 6.890625 2.34375 8.296875 4.046875 
Q 9.71875 5.765625 9.71875 12.015625 
L 9.71875 55.328125 
Q 9.71875 60.59375 8.125 62.234375 
Q 6.546875 63.875 1.125 64.3125 
L 1.125 66.15625 
L 28.8125 66.15625 
Q 37.453125 66.15625 43.21875 63.96875 
Q 54.15625 59.8125 54.15625 48.6875 
Q 54.15625 41.21875 49.296875 37.203125 
Q 44.4375 33.203125 36.078125 31.9375 
L 56.6875 6.59375 
Q 58.59375 4.25 60.5 3.171875 
Q 62.40625 2.09375 65.375 1.8125 
L 65.375 0 
L 49.265625 0 
L 25.4375 30.765625 
L 19.875 30.515625 
L 19.875 10.84375 
Q 19.875 5.28125 21.5625 3.78125 
Q 23.25 2.296875 28.90625 1.8125 
L 28.90625 0 
L 1.125 0 
z
" id="Times-Roman-82"/>
       <path d="M 0.4375 1.609375 
Q 4.9375 2 6.390625 3.1875 
Q 7.859375 4.390625 7.859375 8.296875 
L 7.859375 30.328125 
Q 7.859375 35.15625 6.953125 37.234375 
Q 6.0625 39.3125 3.65625 39.3125 
Q 3.171875 39.3125 2.359375 39.1875 
Q 1.5625 39.0625 0.6875 38.875 
L 0.6875 40.484375 
Q 3.46875 41.453125 6.390625 42.46875 
Q 9.328125 43.5 10.453125 43.953125 
Q 12.890625 44.875 15.484375 46.046875 
Q 15.828125 46.046875 15.890625 45.796875 
Q 15.96875 45.5625 15.96875 44.78125 
L 15.96875 36.765625 
Q 19.09375 41.109375 22 43.546875 
Q 24.90625 46 28.03125 46 
Q 30.515625 46 32.078125 44.5 
Q 33.640625 43.015625 33.640625 40.765625 
Q 33.640625 38.765625 32.4375 37.390625 
Q 31.25 36.03125 29.4375 36.03125 
Q 27.59375 36.03125 25.703125 37.734375 
Q 23.828125 39.453125 22.75 39.453125 
Q 21.046875 39.453125 18.546875 36.6875 
Q 16.0625 33.9375 16.0625 31 
L 16.0625 8.984375 
Q 16.0625 4.78125 18.015625 3.140625 
Q 19.96875 1.515625 24.515625 1.609375 
L 24.515625 0 
L 0.4375 0 
z
" id="Times-Roman-114"/>
       <path d="M 1.8125 1.375 
Q 5.28125 1.8125 6.671875 3.09375 
Q 8.0625 4.390625 8.0625 8.890625 
L 8.0625 33.640625 
Q 8.0625 36.765625 7.46875 38.03125 
Q 6.546875 39.890625 3.65625 39.890625 
Q 3.21875 39.890625 2.75 39.84375 
Q 2.296875 39.796875 1.609375 39.703125 
L 1.609375 41.40625 
Q 3.609375 42 11.078125 44.4375 
L 15.671875 45.953125 
Q 16.015625 45.953125 16.078125 45.703125 
Q 16.15625 45.453125 16.15625 45.015625 
L 16.15625 37.84375 
Q 20.65625 42.046875 23.1875 43.609375 
Q 27 46 31.109375 46 
Q 34.421875 46 37.15625 44.09375 
Q 42.4375 40.375 42.4375 30.859375 
L 42.4375 8.0625 
Q 42.4375 4.546875 43.84375 2.984375 
Q 45.265625 1.421875 48.578125 1.375 
L 48.578125 0 
L 27.734375 0 
L 27.734375 1.375 
Q 31.296875 1.859375 32.703125 3.34375 
Q 34.125 4.828125 34.125 9.8125 
L 34.125 30.671875 
Q 34.125 34.859375 32.5625 37.609375 
Q 31 40.375 26.8125 40.375 
Q 23.921875 40.375 20.953125 38.421875 
Q 19.28125 37.3125 16.65625 34.71875 
L 16.65625 7.375 
Q 16.65625 3.859375 18.21875 2.65625 
Q 19.78125 1.46875 23.140625 1.375 
L 23.140625 0 
L 1.8125 0 
z
M 25.046875 46 
z
" id="Times-Roman-110"/>
       <path d="M 5.171875 15.375 
L 6.78125 15.375 
Q 7.90625 9.8125 9.8125 6.84375 
Q 13.234375 1.375 19.828125 1.375 
Q 23.484375 1.375 25.609375 3.390625 
Q 27.734375 5.421875 27.734375 8.640625 
Q 27.734375 10.6875 26.515625 12.59375 
Q 25.296875 14.5 22.21875 16.3125 
L 16.75 19.4375 
Q 10.75 22.65625 7.90625 25.921875 
Q 5.078125 29.203125 5.078125 33.640625 
Q 5.078125 39.109375 8.984375 42.625 
Q 12.890625 46.140625 18.796875 46.140625 
Q 21.390625 46.140625 24.484375 45.15625 
Q 27.59375 44.1875 27.984375 44.1875 
Q 28.859375 44.1875 29.25 44.421875 
Q 29.640625 44.671875 29.9375 45.21875 
L 31.109375 45.21875 
L 31.453125 31.59375 
L 29.9375 31.59375 
Q 28.953125 36.328125 27.296875 38.96875 
Q 24.265625 43.84375 18.5625 43.84375 
Q 15.140625 43.84375 13.1875 41.75 
Q 11.234375 39.65625 11.234375 36.8125 
Q 11.234375 32.328125 17.96875 28.8125 
L 24.421875 25.34375 
Q 34.8125 19.671875 34.8125 12.15625 
Q 34.8125 6.390625 30.484375 2.734375 
Q 26.171875 -0.921875 19.1875 -0.921875 
Q 16.265625 -0.921875 12.546875 0.046875 
Q 8.84375 1.03125 8.15625 1.03125 
Q 7.5625 1.03125 7.125 0.609375 
Q 6.6875 0.203125 6.453125 -0.390625 
L 5.171875 -0.390625 
z
M 19.484375 46.140625 
z
" id="Times-Roman-115"/>
      </defs>
      <use xlink:href="#Times-Roman-67"/>
      <use x="66.699219" xlink:href="#Times-Roman-117"/>
      <use x="116.699219" xlink:href="#Times-Roman-109"/>
      <use x="194.482422" xlink:href="#Times-Roman-117"/>
      <use x="244.482422" xlink:href="#Times-Roman-108"/>
      <use x="272.265625" xlink:href="#Times-Roman-97"/>
      <use x="316.650391" xlink:href="#Times-Roman-116"/>
      <use x="344.433594" xlink:href="#Times-Roman-105"/>
      <use x="372.216797" xlink:href="#Times-Roman-118"/>
      <use x="422.216797" xlink:href="#Times-Roman-101"/>
      <use x="466.601562" xlink:href="#Times-Roman-32"/>
      <use x="491.601562" xlink:href="#Times-Roman-82"/>
      <use x="558.300781" xlink:href="#Times-Roman-101"/>
      <use x="602.685547" xlink:href="#Times-Roman-116"/>
      <use x="630.46875" xlink:href="#Times-Roman-117"/>
      <use x="680.46875" xlink:href="#Times-Roman-114"/>
      <use x="713.769531" xlink:href="#Times-Roman-110"/>
      <use x="763.769531" xlink:href="#Times-Roman-115"/>
     </g>
    </g>
   </g>
   <g id="matplotlib.axis_2">
    <g id="ytick_1">
     <g id="line2d_9">
      <defs>
       <path d="M 0 0 
L -3.5 0 
" id="m546e96247a" style="stroke:#000000;stroke-width:0.8;"/>
      </defs>
      <g>
       <use style="stroke:#000000;stroke-width:0.8;" x="54" xlink:href="#m546e96247a" y="252"/>
      </g>
     </g>
     <g id="text_10">
      <!-- 0 -->
      <g transform="translate(42 255.428125)scale(0.1 -0.1)">
       <use xlink:href="#Times-Roman-48"/>
      </g>
     </g>
    </g>
    <g id="ytick_2">
     <g id="line2d_10">
      <g>
       <use style="stroke:#000000;stroke-width:0.8;" x="54" xlink:href="#m546e96247a" y="221.807643"/>
      </g>
     </g>
     <g id="text_11">
      <!-- 250 -->
      <g transform="translate(32 225.235768)scale(0.1 -0.1)">
       <use xlink:href="#Times-Roman-50"/>
       <use x="50" xlink:href="#Times-Roman-53"/>
       <use x="100" xlink:href="#Times-Roman-48"/>
      </g>
     </g>
    </g>
    <g id="ytick_3">
     <g id="line2d_11">
      <g>
       <use style="stroke:#000000;stroke-width:0.8;" x="54" xlink:href="#m546e96247a" y="191.615287"/>
      </g>
     </g>
     <g id="text_12">
      <!-- 500 -->
      <g transform="translate(32 195.043412)scale(0.1 -0.1)">
       <use xlink:href="#Times-Roman-53"/>
       <use x="50" xlink:href="#Times-Roman-48"/>
       <use x="100" xlink:href="#Times-Roman-48"/>
      </g>
     </g>
    </g>
    <g id="ytick_4">
     <g id="line2d_12">
      <g>
       <use style="stroke:#000000;stroke-width:0.8;" x="54" xlink:href="#m546e96247a" y="161.42293"/>
      </g>
     </g>
     <g id="text_13">
      <!-- 750 -->
      <g transform="translate(32 164.851055)scale(0.1 -0.1)">
       <use xlink:href="#Times-Roman-55"/>
       <use x="50" xlink:href="#Times-Roman-53"/>
       <use x="100" xlink:href="#Times-Roman-48"/>
      </g>
     </g>
    </g>
    <g id="ytick_5">
     <g id="line2d_13">
      <g>
       <use style="stroke:#000000;stroke-width:0.8;" x="54" xlink:href="#m546e96247a" y="131.230573"/>
      </g>
     </g>
     <g id="text_14">
      <!-- 1000 -->
      <g transform="translate(27 134.658698)scale(0.1 -0.1)">
       <use xlink:href="#Times-Roman-49"/>
       <use x="50" xlink:href="#Times-Roman-48"/>
       <use x="100" xlink:href="#Times-Roman-48"/>
       <use x="150" xlink:href="#Times-Roman-48"/>
      </g>
     </g>
    </g>
    <g id="ytick_6">
     <g id="line2d_14">
      <g>
       <use style="stroke:#000000;stroke-width:0.8;" x="54" xlink:href="#m546e96247a" y="101.038216"/>
      </g>
     </g>
     <g id="text_15">
      <!-- 1250 -->
      <g transform="translate(27 104.466341)scale(0.1 -0.1)">
       <use xlink:href="#Times-Roman-49"/>
       <use x="50" xlink:href="#Times-Roman-50"/>
       <use x="100" xlink:href="#Times-Roman-53"/>
       <use x="150" xlink:href="#Times-Roman-48"/>
      </g>
     </g>
    </g>
    <g id="ytick_7">
     <g id="line2d_15">
      <g>
       <use style="stroke:#000000;stroke-width:0.8;" x="54" xlink:href="#m546e96247a" y="70.84586"/>
      </g>
     </g>
     <g id="text_16">
      <!-- 1500 -->
      <g transform="translate(27 74.273985)scale(0.1 -0.1)">
       <use xlink:href="#Times-Roman-49"/>
       <use x="50" xlink:href="#Times-Roman-53"/>
       <use x="100" xlink:href="#Times-Roman-48"/>
       <use x="150" xlink:href="#Times-Roman-48"/>
      </g>
     </g>
    </g>
    <g id="ytick_8">
     <g id="line2d_16">
      <g>
       <use style="stroke:#000000;stroke-width:0.8;" x="54" xlink:href="#m546e96247a" y="40.653503"/>
      </g>
     </g>
     <g id="text_17">
      <!-- 1750 -->
      <g transform="translate(27 44.081628)scale(0.1 -0.1)">
       <use xlink:href="#Times-Roman-49"/>
       <use x="50" xlink:href="#Times-Roman-55"/>
       <use x="100" xlink:href="#Times-Roman-53"/>
       <use x="150" xlink:href="#Times-Roman-48"/>
      </g>
     </g>
    </g>
    <g id="text_18">
     <!-- Frequency -->
     <g transform="translate(20.8125 164.383906)rotate(-90)scale(0.1 -0.1)">
      <defs>
       <path d="M 1.125 1.8125 
Q 7.03125 2.4375 8.46875 3.96875 
Q 9.90625 5.515625 9.90625 12.015625 
L 9.90625 55.328125 
Q 9.90625 60.640625 8.296875 62.28125 
Q 6.6875 63.921875 1.125 64.3125 
L 1.125 66.15625 
L 54.390625 66.15625 
L 54.734375 51.8125 
L 51.953125 51.8125 
Q 50.921875 58.6875 48.09375 60.515625 
Q 45.265625 62.359375 36.921875 62.359375 
L 23.25 62.359375 
Q 21.234375 62.359375 20.671875 61.671875 
Q 20.125 60.984375 20.125 58.984375 
L 20.125 36.671875 
L 34.578125 36.671875 
Q 40.96875 36.671875 42.71875 38.578125 
Q 44.484375 40.484375 45.5625 46.296875 
L 47.90625 46.296875 
L 47.90625 23.140625 
L 45.5625 23.140625 
Q 44.4375 28.953125 42.671875 30.828125 
Q 40.921875 32.71875 34.578125 32.71875 
L 20.125 32.71875 
L 20.125 10.84375 
Q 20.125 5.328125 21.796875 3.78125 
Q 23.484375 2.25 29.15625 1.8125 
L 29.15625 0 
L 1.125 0 
z
" id="Times-Roman-70"/>
       <path d="M 23.828125 5.21875 
Q 25 5.21875 26.96875 5.609375 
Q 28.953125 6 30.671875 6.9375 
Q 33.015625 8.203125 33.5 9.171875 
Q 33.984375 10.15625 33.984375 12.84375 
L 33.984375 33.453125 
Q 33.984375 37.3125 32.8125 39.453125 
Q 30.609375 43.359375 24.515625 43.359375 
Q 17.578125 43.359375 14.28125 37.625 
Q 10.984375 31.890625 10.984375 24.515625 
Q 10.984375 15.875 14.328125 10.546875 
Q 17.671875 5.21875 23.828125 5.21875 
z
M 24.953125 46.046875 
Q 28.265625 46.046875 30.8125 45.125 
Q 32.515625 44.53125 35.984375 42.578125 
L 41.40625 45.796875 
Q 41.84375 46 42.09375 46.046875 
Q 42.328125 45.84375 42.375 45.75 
Q 42.4375 45.65625 42.4375 45.125 
L 42.4375 -14.265625 
Q 42.4375 -16.84375 43.359375 -18.109375 
Q 44.78125 -20.015625 48.828125 -20.40625 
L 48.828125 -21.78125 
L 25.203125 -21.78125 
L 25.203125 -20.171875 
Q 29.546875 -20.125 31.671875 -18.703125 
Q 33.796875 -17.28125 33.796875 -12.40625 
L 33.796875 6.203125 
Q 30.375 2.828125 27.875 1.375 
Q 23.78125 -1.03125 18.65625 -1.03125 
Q 12.546875 -1.03125 7.46875 4.609375 
Q 2.390625 10.25 2.390625 21.1875 
Q 2.390625 31.25 8.65625 38.640625 
Q 14.9375 46.046875 24.953125 46.046875 
z
" id="Times-Roman-113"/>
       <path d="M 24.859375 46.046875 
Q 30.953125 46.046875 35.375 42.890625 
Q 39.796875 39.75 39.796875 35.984375 
Q 39.796875 34.375 38.671875 32.984375 
Q 37.546875 31.59375 35.203125 31.59375 
Q 33.5 31.59375 32.203125 32.765625 
Q 30.90625 33.9375 30.328125 36.1875 
L 29.734375 38.53125 
Q 29.109375 41.109375 27.546875 42.1875 
Q 25.921875 43.21875 23.296875 43.21875 
Q 17.71875 43.21875 13.890625 38.359375 
Q 10.0625 33.5 10.0625 25.4375 
Q 10.0625 18.0625 14.28125 12.203125 
Q 18.5 6.34375 25.6875 6.34375 
Q 30.765625 6.34375 34.71875 9.671875 
Q 36.96875 11.578125 39.796875 15.71875 
L 41.15625 14.890625 
Q 38.375 9.03125 35.296875 5.609375 
Q 29.390625 -0.921875 21.625 -0.921875 
Q 14.015625 -0.921875 8.15625 5.078125 
Q 2.296875 11.078125 2.296875 21.390625 
Q 2.296875 31.5 8.6875 38.765625 
Q 15.09375 46.046875 24.859375 46.046875 
z
M 22.703125 46.046875 
z
" id="Times-Roman-99"/>
       <path d="M 1.375 44.875 
L 21.96875 44.875 
L 21.96875 43.359375 
Q 19.53125 43.3125 18.359375 42.921875 
Q 16.109375 42.28125 16.109375 40.4375 
Q 16.109375 39.75 16.359375 39.03125 
Q 16.609375 38.328125 17.234375 36.921875 
L 28.65625 11.578125 
L 37.84375 37.109375 
Q 37.984375 37.5 38.296875 38.859375 
Q 38.625 40.234375 38.625 40.71875 
Q 38.625 42 37.734375 42.578125 
Q 36.859375 43.171875 35.5 43.265625 
L 33.984375 43.359375 
L 33.984375 44.875 
L 47.40625 44.875 
L 47.40625 43.359375 
Q 45.40625 43.109375 44.40625 41.984375 
Q 43.40625 40.875 42.671875 38.875 
L 27.296875 -1.859375 
Q 23.296875 -12.40625 19.625 -17.140625 
Q 15.96875 -21.875 10.359375 -21.875 
Q 7.625 -21.875 5.21875 -20.5 
Q 2.828125 -19.140625 2.828125 -16.15625 
Q 2.828125 -14.203125 4.265625 -12.953125 
Q 5.71875 -11.71875 7.90625 -11.71875 
Q 9.1875 -11.71875 11.6875 -12.640625 
Q 14.203125 -13.578125 15.28125 -13.578125 
Q 18.015625 -13.578125 21.046875 -7.21875 
Q 24.078125 -0.875 24.078125 1.265625 
Q 24.078125 1.703125 23.921875 2.34375 
Q 23.78125 2.984375 23.578125 3.46875 
L 7.953125 37.25 
Q 6.296875 40.875 5.046875 42.015625 
Q 3.8125 43.171875 1.375 43.5 
z
M 24.609375 45.796875 
z
" id="Times-Roman-121"/>
      </defs>
      <use xlink:href="#Times-Roman-70"/>
      <use x="55.615234" xlink:href="#Times-Roman-114"/>
      <use x="88.916016" xlink:href="#Times-Roman-101"/>
      <use x="133.300781" xlink:href="#Times-Roman-113"/>
      <use x="183.300781" xlink:href="#Times-Roman-117"/>
      <use x="233.300781" xlink:href="#Times-Roman-101"/>
      <use x="277.685547" xlink:href="#Times-Roman-110"/>
      <use x="327.685547" xlink:href="#Times-Roman-99"/>
      <use x="372.070312" xlink:href="#Times-Roman-121"/>
     </g>
    </g>
   </g>
   <g id="patch_53">
    <path d="M 54 252 
L 54 34.56 
" style="fill:none;stroke:#000000;stroke-linecap:square;stroke-linejoin:miter;stroke-width:0.8;"/>
   </g>
   <g id="patch_54">
    <path d="M 388.8 252 
L 388.8 34.56 
" style="fill:none;stroke:#000000;stroke-linecap:square;stroke-linejoin:miter;stroke-width:0.8;"/>
   </g>
   <g id="patch_55">
    <path d="M 54 252 
L 388.8 252 
" style="fill:none;stroke:#000000;stroke-linecap:square;stroke-linejoin:miter;stroke-width:0.8;"/>
   </g>
   <g id="patch_56">
    <path d="M 54 34.56 
L 388.8 34.56 
" style="fill:none;stroke:#000000;stroke-linecap:square;stroke-linejoin:miter;stroke-width:0.8;"/>
   </g>
  </g>
 </g>
 <defs>
  <clipPath id="pf3f3cb0972">
   <rect height="217.44" width="334.8" x="54" y="34.56"/>
  </clipPath>
 </defs>
</svg>
