<?xml version="1.0" encoding="UTF-8" standalone="no"?>
<svg
   xmlns:dc="http://purl.org/dc/elements/1.1/"
   xmlns:cc="http://creativecommons.org/ns#"
   xmlns:rdf="http://www.w3.org/1999/02/22-rdf-syntax-ns#"
   xmlns:svg="http://www.w3.org/2000/svg"
   xmlns="http://www.w3.org/2000/svg"
   xmlns:xlink="http://www.w3.org/1999/xlink"
   xmlns:sodipodi="http://sodipodi.sourceforge.net/DTD/sodipodi-0.dtd"
   xmlns:inkscape="http://www.inkscape.org/namespaces/inkscape"
   height="288pt"
   version="1.1"
   viewBox="0 0 432 288"
   width="432pt"
   id="svg12472"
   sodipodi:docname="13CVAE Kopie 4.svg"
   inkscape:version="1.0.2 (e86c8708, 2021-01-15)">
  <sodipodi:namedview
     pagecolor="#ffffff"
     bordercolor="#666666"
     borderopacity="1"
     objecttolerance="10"
     gridtolerance="10"
     guidetolerance="10"
     inkscape:pageopacity="0"
     inkscape:pageshadow="2"
     inkscape:window-width="2560"
     inkscape:window-height="1369"
     id="namedview12474"
     showgrid="false"
     inkscape:zoom="1.74"
     inkscape:cx="279.96413"
     inkscape:cy="192"
     inkscape:window-x="0"
     inkscape:window-y="23"
     inkscape:window-maximized="0"
     inkscape:current-layer="svg12472"
     inkscape:document-rotation="0" />
  <metadata
     id="metadata11951">
    <rdf:RDF>
      <cc:Work>
        <dc:type
           rdf:resource="http://purl.org/dc/dcmitype/StillImage" />
        <dc:date>2021-03-05T10:23:49.835247</dc:date>
        <dc:format>image/svg+xml</dc:format>
        <dc:creator>
          <cc:Agent>
            <dc:title>Matplotlib v3.3.2, https://matplotlib.org/</dc:title>
          </cc:Agent>
        </dc:creator>
      </cc:Work>
    </rdf:RDF>
  </metadata>
  <defs
     id="defs11955">
    <style
       type="text/css"
       id="style11953">*{stroke-linecap:butt;stroke-linejoin:round;}</style>
    <clipPath
       id="p37a075e3cb">
      <rect
         height="217.44"
         width="217.44"
         x="112.68"
         y="34.560001"
         id="rect12992" />
    </clipPath>
    <clipPath
       id="clipPath14058">
      <rect
         height="217.44"
         width="217.44"
         x="112.68"
         y="34.560001"
         id="rect14056" />
    </clipPath>
    <path
       d="M 0,3 C 0.795609,3 1.55874,2.683901 2.12132,2.12132 2.683901,1.55874 3,0.795609 3,0 3,-0.795609 2.683901,-1.55874 2.12132,-2.12132 1.55874,-2.683901 0.795609,-3 0,-3 -0.795609,-3 -1.55874,-2.683901 -2.12132,-2.12132 -2.683901,-1.55874 -3,-0.795609 -3,0 -3,0.795609 -2.683901,1.55874 -2.12132,2.12132 -1.55874,2.683901 -0.795609,3 0,3 Z"
       id="m02d90101b9" />
    <clipPath
       id="pc89326d438">
      <rect
         height="217.44"
         width="217.44"
         x="112.68"
         y="34.560001"
         id="rect4304" />
    </clipPath>
    <clipPath
       id="clipPath4477">
      <rect
         height="217.44"
         width="217.44"
         x="112.68"
         y="34.560001"
         id="rect4475" />
    </clipPath>
    <path
       d="M 0,3 C 0.795609,3 1.55874,2.683901 2.12132,2.12132 2.683901,1.55874 3,0.795609 3,0 3,-0.795609 2.683901,-1.55874 2.12132,-2.12132 1.55874,-2.683901 0.795609,-3 0,-3 -0.795609,-3 -1.55874,-2.683901 -2.12132,-2.12132 -2.683901,-1.55874 -3,-0.795609 -3,0 -3,0.795609 -2.683901,1.55874 -2.12132,2.12132 -1.55874,2.683901 -0.795609,3 0,3 Z"
       id="m3431023246"
       style="stroke:#4c72b0" />
  </defs>
  <g
     id="figure_1">
    <g
       id="patch_1">
      <path
         d="M 0 288  L 432 288  L 432 0  L 0 0  z "
         style="fill:#ffffff;"
         id="path11957" />
    </g>
    <g
       id="axes_1">
      <g
         id="patch_2">
        <path
           d="M 112.68 252  L 330.12 252  L 330.12 34.56  L 112.68 34.56  z "
           style="fill:#ffffff;"
           id="path11960" />
      </g>
      <g
         id="matplotlib.axis_1">
        <g
           id="xtick_1">
          <g
             id="line2d_1">
            <defs
               id="defs11964">
              <path
                 d="M 0 0  L 0 3.5  "
                 id="m70db56efe3"
                 style="stroke:#000000;stroke-width:0.8;" />
            </defs>
            <g
               id="g11968">
              <use
                 style="stroke:#000000;stroke-width:0.8;"
                 x="112.68"
                 xlink:href="#m70db56efe3"
                 y="252"
                 id="use11966" />
            </g>
          </g>
          <g
             id="text_1">
            <!-- −0.04 -->
            <g
               transform="translate(101.110469 265.85625)scale(0.13 -0.13)"
               id="g11987">
              <defs
                 id="defs11975">
                <path
                   d="M 2.984375 28.65625  L 53.46875 28.65625  L 53.46875 21.828125  L 2.984375 21.828125  z "
                   id="Times-Roman-8722" />
                <path
                   d="M 23.921875 1.8125  Q 31.109375 1.8125 33.78125 9.671875  Q 36.46875 17.53125 36.46875 32.421875  Q 36.46875 44.28125 34.859375 51.375  Q 31.84375 64.546875 23.53125 64.546875  Q 15.234375 64.546875 12.15625 50.984375  Q 10.546875 43.75 10.546875 31.9375  Q 10.546875 20.84375 12.203125 14.203125  Q 15.328125 1.8125 23.921875 1.8125  z M 23.78125 67.1875  Q 35.015625 67.1875 41.21875 55.421875  Q 46.140625 45.90625 46.140625 33.546875  Q 46.140625 23.828125 43.109375 15.234375  Q 37.40625 -0.921875 23.34375 -0.921875  Q 13.71875 -0.921875 7.515625 7.8125  Q 0.875 17.140625 0.875 33.15625  Q 0.875 45.75 5.328125 54.828125  Q 11.328125 67.1875 23.78125 67.1875  z "
                   id="Times-Roman-48" />
                <path
                   d="M 16.3125 -1.171875  Q 13.96875 -1.171875 12.359375 0.453125  Q 10.75 2.09375 10.75 4.390625  Q 10.75 6.6875 12.375 8.296875  Q 14.015625 9.90625 16.3125 9.90625  Q 18.609375 9.90625 20.21875 8.296875  Q 21.828125 6.6875 21.828125 4.390625  Q 21.828125 2.09375 20.234375 0.453125  Q 18.65625 -1.171875 16.3125 -1.171875  z "
                   id="Times-Roman-46" />
                <path
                   d="M 29.15625 57.03125  L 5.171875 23.140625  L 29.15625 23.140625  z M 32.375 67.09375  L 37.015625 67.09375  L 37.015625 23.140625  L 47.21875 23.140625  L 47.21875 16.65625  L 37.015625 16.65625  L 37.015625 0  L 29.25 0  L 29.25 16.65625  L 1.125 16.65625  L 1.125 23.140625  z "
                   id="Times-Roman-52" />
              </defs>
              <use
                 xlink:href="#Times-Roman-8722"
                 id="use11977" />
              <use
                 x="56.396484"
                 xlink:href="#Times-Roman-48"
                 id="use11979" />
              <use
                 x="106.396484"
                 xlink:href="#Times-Roman-46"
                 id="use11981" />
              <use
                 x="131.396484"
                 xlink:href="#Times-Roman-48"
                 id="use11983" />
              <use
                 x="181.396484"
                 xlink:href="#Times-Roman-52"
                 id="use11985" />
            </g>
          </g>
        </g>
        <g
           id="xtick_2">
          <g
             id="line2d_2">
            <g
               id="g11993">
              <use
                 style="stroke:#000000;stroke-width:0.8;"
                 x="167.04"
                 xlink:href="#m70db56efe3"
                 y="252"
                 id="use11991" />
            </g>
          </g>
          <g
             id="text_2">
            <!-- −0.02 -->
            <g
               transform="translate(155.470469 265.85625)scale(0.13 -0.13)"
               id="g12009">
              <defs
                 id="defs11997">
                <path
                   d="M 2.984375 1.125  Q 20.84375 19.671875 27.234375 28.359375  Q 33.640625 37.0625 33.640625 45.3125  Q 33.640625 52.546875 29.734375 56.328125  Q 25.828125 60.109375 20.40625 60.109375  Q 13.71875 60.109375 9.578125 55.21875  Q 7.28125 52.546875 5.171875 46.96875  L 3.078125 47.40625  Q 5.515625 58.640625 11.34375 63.015625  Q 17.1875 67.390625 23.875 67.390625  Q 32.125 67.390625 37.21875 62.1875  Q 42.328125 56.984375 42.328125 49.46875  Q 42.328125 41.453125 36.8125 34.03125  Q 31.296875 26.609375 12.84375 7.625  L 35.25 7.625  Q 39.9375 7.625 41.84375 8.734375  Q 43.75 9.859375 46.140625 14.203125  L 47.40625 13.625  L 42 0  L 2.984375 0  z "
                   id="Times-Roman-50" />
              </defs>
              <use
                 xlink:href="#Times-Roman-8722"
                 id="use11999" />
              <use
                 x="56.396484"
                 xlink:href="#Times-Roman-48"
                 id="use12001" />
              <use
                 x="106.396484"
                 xlink:href="#Times-Roman-46"
                 id="use12003" />
              <use
                 x="131.396484"
                 xlink:href="#Times-Roman-48"
                 id="use12005" />
              <use
                 x="181.396484"
                 xlink:href="#Times-Roman-50"
                 id="use12007" />
            </g>
          </g>
        </g>
        <g
           id="xtick_3">
          <g
             id="line2d_3">
            <g
               id="g12015">
              <use
                 style="stroke:#000000;stroke-width:0.8;"
                 x="221.4"
                 xlink:href="#m70db56efe3"
                 y="252"
                 id="use12013" />
            </g>
          </g>
          <g
             id="text_3">
            <!-- 0.00 -->
            <g
               transform="translate(212.65 265.85625)scale(0.13 -0.13)"
               id="g12026">
              <use
                 xlink:href="#Times-Roman-48"
                 id="use12018" />
              <use
                 x="50"
                 xlink:href="#Times-Roman-46"
                 id="use12020" />
              <use
                 x="75"
                 xlink:href="#Times-Roman-48"
                 id="use12022" />
              <use
                 x="125"
                 xlink:href="#Times-Roman-48"
                 id="use12024" />
            </g>
          </g>
        </g>
        <g
           id="xtick_4">
          <g
             id="line2d_4">
            <g
               id="g12032">
              <use
                 style="stroke:#000000;stroke-width:0.8;"
                 x="275.76"
                 xlink:href="#m70db56efe3"
                 y="252"
                 id="use12030" />
            </g>
          </g>
          <g
             id="text_4">
            <!-- 0.02 -->
            <g
               transform="translate(267.01 265.85625)scale(0.13 -0.13)"
               id="g12043">
              <use
                 xlink:href="#Times-Roman-48"
                 id="use12035" />
              <use
                 x="50"
                 xlink:href="#Times-Roman-46"
                 id="use12037" />
              <use
                 x="75"
                 xlink:href="#Times-Roman-48"
                 id="use12039" />
              <use
                 x="125"
                 xlink:href="#Times-Roman-50"
                 id="use12041" />
            </g>
          </g>
        </g>
        <g
           id="xtick_5">
          <g
             id="line2d_5">
            <g
               id="g12049">
              <use
                 style="stroke:#000000;stroke-width:0.8;"
                 x="330.12"
                 xlink:href="#m70db56efe3"
                 y="252"
                 id="use12047" />
            </g>
          </g>
          <g
             id="text_5">
            <!-- 0.04 -->
            <g
               transform="translate(321.37 265.85625)scale(0.13 -0.13)"
               id="g12060">
              <use
                 xlink:href="#Times-Roman-48"
                 id="use12052" />
              <use
                 x="50"
                 xlink:href="#Times-Roman-46"
                 id="use12054" />
              <use
                 x="75"
                 xlink:href="#Times-Roman-48"
                 id="use12056" />
              <use
                 x="125"
                 xlink:href="#Times-Roman-52"
                 id="use12058" />
            </g>
          </g>
        </g>
        <g
           id="text_6">
          <!-- Theoretical Quantiles -->
          <g
             transform="translate(168.222656 280.890625)scale(0.13 -0.13)"
             id="g12123">
            <defs
               id="defs12079">
              <path
                 d="M 1.953125 66.15625  L 58.453125 66.15625  L 58.984375 49.171875  L 56.59375 49.171875  Q 54.828125 57.171875 52.125 59.59375  Q 49.421875 62.015625 40.71875 62.015625  L 35.15625 62.015625  L 35.15625 10.84375  Q 35.15625 5.03125 36.953125 3.640625  Q 38.765625 2.25 44.875 1.8125  L 44.875 0  L 15.71875 0  L 15.71875 1.8125  Q 22.078125 2.296875 23.640625 3.90625  Q 25.203125 5.515625 25.203125 12.015625  L 25.203125 62.015625  L 19.625 62.015625  Q 11.328125 62.015625 8.328125 59.625  Q 5.328125 57.234375 3.8125 49.171875  L 1.375 49.171875  z "
                 id="Times-Roman-84" />
              <path
                 d="M 0.875 1.375  Q 4.890625 1.90625 6.125 3.34375  Q 7.375 4.78125 7.375 10.15625  L 7.375 57.03125  Q 7.375 59.765625 6.65625 61.0625  Q 5.953125 62.359375 3.21875 62.359375  Q 2.6875 62.359375 2.171875 62.28125  Q 1.65625 62.203125 1.03125 62.109375  L 1.03125 63.875  Q 3.171875 64.5 6.3125 65.40625  Q 9.46875 66.3125 10.6875 66.703125  L 15.375 68.171875  L 15.484375 67.828125  L 15.484375 37.84375  Q 18.5625 41.359375 20.953125 43.015625  Q 25.25 45.953125 30.21875 45.953125  Q 38.140625 45.953125 41.015625 39.3125  Q 42.578125 35.796875 42.578125 30.078125  L 42.578125 10.15625  Q 42.578125 4.984375 43.765625 3.421875  Q 44.96875 1.859375 48.6875 1.375  L 48.6875 0  L 27.546875 0  L 27.546875 1.375  Q 31.78125 1.953125 33 3.359375  Q 34.234375 4.78125 34.234375 10.15625  L 34.234375 29.9375  Q 34.234375 34.671875 32.640625 37.59375  Q 31.0625 40.53125 26.65625 40.53125  Q 22.859375 40.53125 19.28125 37.796875  Q 15.71875 35.0625 15.71875 34.234375  L 15.71875 10.15625  Q 15.71875 4.6875 16.984375 3.3125  Q 18.265625 1.953125 22.40625 1.375  L 22.40625 0  L 0.875 0  z "
                 id="Times-Roman-104" />
              <path
                 d="M 22.90625 45.796875  Q 29.78125 45.796875 34.953125 41.03125  Q 40.140625 36.28125 40.140625 27.546875  L 9.125 27.546875  Q 9.625 16.21875 14.25 11.03125  Q 18.890625 5.859375 25.25 5.859375  Q 30.375 5.859375 33.890625 8.546875  Q 37.40625 11.234375 40.375 16.15625  L 42.09375 15.578125  Q 40.09375 9.375 34.59375 4.09375  Q 29.109375 -1.171875 21.140625 -1.171875  Q 11.96875 -1.171875 6.953125 5.765625  Q 1.953125 12.703125 1.953125 21.734375  Q 1.953125 31.546875 7.765625 38.671875  Q 13.578125 45.796875 22.90625 45.796875  z M 20.0625 42.234375  Q 14.5 42.234375 11.578125 37.3125  Q 10.015625 34.671875 9.328125 30.671875  L 29.9375 30.671875  Q 29.390625 35.546875 28.078125 37.9375  Q 25.6875 42.234375 20.0625 42.234375  z M 22.265625 45.796875  z "
                 id="Times-Roman-101" />
              <path
                 d="M 2.546875 22.65625  Q 2.546875 32.375 8.71875 39.078125  Q 14.890625 45.796875 24.609375 45.796875  Q 34.28125 45.796875 40.625 39.453125  Q 46.96875 33.109375 46.96875 22.5625  Q 46.96875 12.84375 40.8125 5.65625  Q 34.671875 -1.515625 24.90625 -1.515625  Q 15.53125 -1.515625 9.03125 5.359375  Q 2.546875 12.25 2.546875 22.65625  z M 23.25 42.875  Q 19.390625 42.875 16.546875 40.328125  Q 11.671875 35.890625 11.671875 25  Q 11.671875 16.3125 15.59375 8.78125  Q 19.53125 1.265625 26.515625 1.265625  Q 31.984375 1.265625 34.9375 6.296875  Q 37.890625 11.328125 37.890625 19.484375  Q 37.890625 27.9375 34.125 35.40625  Q 30.375 42.875 23.25 42.875  z M 25.046875 45.796875  z "
                 id="Times-Roman-111" />
              <path
                 d="M 0.4375 1.609375  Q 4.9375 2 6.390625 3.1875  Q 7.859375 4.390625 7.859375 8.296875  L 7.859375 30.328125  Q 7.859375 35.15625 6.953125 37.234375  Q 6.0625 39.3125 3.65625 39.3125  Q 3.171875 39.3125 2.359375 39.1875  Q 1.5625 39.0625 0.6875 38.875  L 0.6875 40.484375  Q 3.46875 41.453125 6.390625 42.46875  Q 9.328125 43.5 10.453125 43.953125  Q 12.890625 44.875 15.484375 46.046875  Q 15.828125 46.046875 15.890625 45.796875  Q 15.96875 45.5625 15.96875 44.78125  L 15.96875 36.765625  Q 19.09375 41.109375 22 43.546875  Q 24.90625 46 28.03125 46  Q 30.515625 46 32.078125 44.5  Q 33.640625 43.015625 33.640625 40.765625  Q 33.640625 38.765625 32.4375 37.390625  Q 31.25 36.03125 29.4375 36.03125  Q 27.59375 36.03125 25.703125 37.734375  Q 23.828125 39.453125 22.75 39.453125  Q 21.046875 39.453125 18.546875 36.6875  Q 16.0625 33.9375 16.0625 31  L 16.0625 8.984375  Q 16.0625 4.78125 18.015625 3.140625  Q 19.96875 1.515625 24.515625 1.609375  L 24.515625 0  L 0.4375 0  z "
                 id="Times-Roman-114" />
              <path
                 d="M 25.4375 45.015625  L 25.4375 41.5  L 15.484375 41.5  L 15.375 13.375  Q 15.375 9.671875 16.015625 7.765625  Q 17.1875 4.390625 20.609375 4.390625  Q 22.359375 4.390625 23.65625 5.21875  Q 24.953125 6.0625 26.609375 7.859375  L 27.875 6.78125  L 26.8125 5.328125  Q 24.265625 1.90625 21.4375 0.484375  Q 18.609375 -0.921875 15.96875 -0.921875  Q 10.203125 -0.921875 8.15625 4.203125  Q 7.03125 6.984375 7.03125 11.921875  L 7.03125 41.5  L 1.703125 41.5  Q 1.46875 41.65625 1.34375 41.796875  Q 1.21875 41.9375 1.21875 42.1875  Q 1.21875 42.671875 1.4375 42.9375  Q 1.65625 43.21875 2.828125 44.1875  Q 6.203125 46.96875 7.6875 48.703125  Q 9.1875 50.4375 14.703125 57.859375  Q 15.328125 57.859375 15.453125 57.765625  Q 15.578125 57.671875 15.578125 57.03125  L 15.578125 45.015625  z "
                 id="Times-Roman-116" />
              <path
                 d="M 8.203125 63.03125  Q 8.203125 65.140625 9.671875 66.65625  Q 11.140625 68.171875 13.28125 68.171875  Q 15.375 68.171875 16.859375 66.671875  Q 18.359375 65.1875 18.359375 63.03125  Q 18.359375 60.9375 16.859375 59.4375  Q 15.375 57.953125 13.28125 57.953125  Q 11.140625 57.953125 9.671875 59.4375  Q 8.203125 60.9375 8.203125 63.03125  z M 1.953125 1.375  Q 7.171875 1.859375 8.53125 3.140625  Q 9.90625 4.4375 9.90625 10.15625  L 9.90625 33.453125  Q 9.90625 36.625 9.46875 37.84375  Q 8.734375 39.84375 6.390625 39.84375  Q 5.859375 39.84375 5.34375 39.75  Q 4.828125 39.65625 2.390625 38.96875  L 2.390625 40.484375  L 4.5 41.15625  Q 13.03125 43.953125 16.40625 45.359375  Q 17.78125 45.953125 18.171875 45.953125  Q 18.265625 45.609375 18.265625 45.21875  L 18.265625 10.15625  Q 18.265625 4.59375 19.609375 3.171875  Q 20.953125 1.765625 25.6875 1.375  L 25.6875 0  L 1.953125 0  z "
                 id="Times-Roman-105" />
              <path
                 d="M 24.859375 46.046875  Q 30.953125 46.046875 35.375 42.890625  Q 39.796875 39.75 39.796875 35.984375  Q 39.796875 34.375 38.671875 32.984375  Q 37.546875 31.59375 35.203125 31.59375  Q 33.5 31.59375 32.203125 32.765625  Q 30.90625 33.9375 30.328125 36.1875  L 29.734375 38.53125  Q 29.109375 41.109375 27.546875 42.1875  Q 25.921875 43.21875 23.296875 43.21875  Q 17.71875 43.21875 13.890625 38.359375  Q 10.0625 33.5 10.0625 25.4375  Q 10.0625 18.0625 14.28125 12.203125  Q 18.5 6.34375 25.6875 6.34375  Q 30.765625 6.34375 34.71875 9.671875  Q 36.96875 11.578125 39.796875 15.71875  L 41.15625 14.890625  Q 38.375 9.03125 35.296875 5.609375  Q 29.390625 -0.921875 21.625 -0.921875  Q 14.015625 -0.921875 8.15625 5.078125  Q 2.296875 11.078125 2.296875 21.390625  Q 2.296875 31.5 8.6875 38.765625  Q 15.09375 46.046875 24.859375 46.046875  z M 22.703125 46.046875  z "
                 id="Times-Roman-99" />
              <path
                 d="M 28.65625 27.046875  Q 23.046875 25.203125 19.390625 22.953125  Q 12.359375 18.609375 12.359375 13.09375  Q 12.359375 8.640625 15.28125 6.546875  Q 17.1875 5.171875 19.53125 5.171875  Q 22.75 5.171875 25.703125 6.984375  Q 28.65625 8.796875 28.65625 11.578125  z M 3.65625 9.71875  Q 3.65625 16.796875 10.75 21.53125  Q 15.234375 24.46875 28.65625 29.5  L 28.65625 33.640625  Q 28.65625 38.625 27.6875 40.578125  Q 26.03125 43.84375 20.796875 43.84375  Q 18.3125 43.84375 16.0625 42.578125  Q 13.8125 41.265625 13.8125 38.96875  Q 13.8125 38.375 14.0625 36.984375  Q 14.3125 35.59375 14.3125 35.203125  Q 14.3125 32.46875 12.5 31.390625  Q 11.46875 30.765625 10.0625 30.765625  Q 7.859375 30.765625 6.6875 32.203125  Q 5.515625 33.640625 5.515625 35.40625  Q 5.515625 38.8125 9.734375 42.546875  Q 13.96875 46.296875 22.125 46.296875  Q 31.59375 46.296875 34.96875 40.140625  Q 36.765625 36.765625 36.765625 30.328125  L 36.765625 10.75  Q 36.765625 7.90625 37.15625 6.84375  Q 37.796875 4.9375 39.796875 4.9375  Q 40.921875 4.9375 41.65625 5.265625  Q 42.390625 5.609375 44.1875 6.9375  L 44.1875 4.390625  Q 42.625 2.484375 40.828125 1.265625  Q 38.09375 -0.59375 35.25 -0.59375  Q 31.9375 -0.59375 30.4375 1.5625  Q 28.953125 3.71875 28.8125 6.6875  Q 25.09375 3.46875 22.46875 1.90625  Q 18.015625 -0.734375 14.015625 -0.734375  Q 9.8125 -0.734375 6.734375 2.21875  Q 3.65625 5.171875 3.65625 9.71875  z M 22.265625 46.296875  z "
                 id="Times-Roman-97" />
              <path
                 d="M 2.046875 1.375  Q 6.59375 1.8125 8.203125 3.203125  Q 9.8125 4.59375 9.8125 8.640625  L 9.8125 56.34375  Q 9.8125 59.578125 9.28125 60.796875  Q 8.296875 62.84375 5.328125 62.84375  Q 4.640625 62.84375 3.828125 62.6875  Q 3.03125 62.546875 1.8125 62.25  L 1.8125 63.875  Q 8.40625 65.625 17.671875 68.5625  Q 18.015625 68.5625 18.09375 68.265625  Q 18.171875 67.96875 18.171875 67  L 18.171875 8.453125  Q 18.171875 4.203125 19.625 2.953125  Q 21.09375 1.703125 25.6875 1.375  L 25.6875 0  L 2.046875 0  z "
                 id="Times-Roman-108" />
              <path
                 id="Times-Roman-32" />
              <path
                 d="M 14.3125 33.0625  Q 14.3125 17.28125 20.5 9.734375  Q 26.703125 2.203125 35.75 2.203125  Q 44.578125 2.203125 50.84375 9.546875  Q 57.125 16.890625 57.125 33.0625  Q 57.125 49.421875 50.78125 56.6875  Q 44.4375 63.96875 35.75 63.96875  Q 26.765625 63.96875 20.53125 56.421875  Q 14.3125 48.875 14.3125 33.0625  z M 2.984375 33.0625  Q 2.984375 49.078125 13.03125 58.734375  Q 22.265625 67.578125 35.75 67.578125  Q 49.03125 67.578125 58.296875 58.84375  Q 68.5 49.21875 68.5 33.0625  Q 68.5 20.265625 62.015625 11.421875  Q 54.984375 1.90625 42.09375 -0.59375  Q 48.140625 -9.328125 56.734375 -12.984375  Q 61.578125 -15.046875 69.78125 -16.015625  L 69.78125 -17.828125  L 65.671875 -17.828125  Q 57.5625 -17.828125 51.28125 -16.5  Q 45.015625 -15.1875 39.890625 -12.5  Q 34.765625 -9.859375 30.390625 -5.171875  Q 26.03125 -0.484375 25.53125 -0.25  L 24.265625 0.34375  Q 15.96875 4.203125 11.421875 9.125  Q 2.984375 18.265625 2.984375 33.0625  z "
                 id="Times-Roman-81" />
              <path
                 d="M 15.484375 45.21875  L 15.484375 13.96875  Q 15.484375 10.640625 16.40625 8.640625  Q 18.21875 4.9375 23.046875 4.9375  Q 26.375 4.9375 29.546875 7.125  Q 31.34375 8.34375 33.203125 10.5  L 33.203125 37.25  Q 33.203125 41.015625 31.734375 42.1875  Q 30.28125 43.359375 25.875 43.609375  L 25.875 45.21875  L 41.65625 45.21875  L 41.65625 10.84375  Q 41.65625 7.515625 42.84375 6.265625  Q 44.046875 5.03125 47.90625 5.171875  L 47.90625 3.8125  Q 45.21875 3.078125 43.9375 2.703125  Q 42.671875 2.34375 39.703125 1.375  Q 38.421875 0.921875 34.125 -0.734375  Q 33.890625 -0.734375 33.84375 -0.515625  Q 33.796875 -0.296875 33.796875 0  L 33.796875 7.859375  Q 30.46875 3.90625 27.734375 2  Q 23.578125 -0.921875 18.953125 -0.921875  Q 14.703125 -0.921875 10.9375 2.09375  Q 7.125 5.078125 7.125 12.109375  L 7.125 37.453125  Q 7.125 41.359375 5.46875 42.671875  Q 4.390625 43.5 0.875 43.84375  L 0.875 45.21875  z M 25.046875 45.796875  z "
                 id="Times-Roman-117" />
              <path
                 d="M 1.8125 1.375  Q 5.28125 1.8125 6.671875 3.09375  Q 8.0625 4.390625 8.0625 8.890625  L 8.0625 33.640625  Q 8.0625 36.765625 7.46875 38.03125  Q 6.546875 39.890625 3.65625 39.890625  Q 3.21875 39.890625 2.75 39.84375  Q 2.296875 39.796875 1.609375 39.703125  L 1.609375 41.40625  Q 3.609375 42 11.078125 44.4375  L 15.671875 45.953125  Q 16.015625 45.953125 16.078125 45.703125  Q 16.15625 45.453125 16.15625 45.015625  L 16.15625 37.84375  Q 20.65625 42.046875 23.1875 43.609375  Q 27 46 31.109375 46  Q 34.421875 46 37.15625 44.09375  Q 42.4375 40.375 42.4375 30.859375  L 42.4375 8.0625  Q 42.4375 4.546875 43.84375 2.984375  Q 45.265625 1.421875 48.578125 1.375  L 48.578125 0  L 27.734375 0  L 27.734375 1.375  Q 31.296875 1.859375 32.703125 3.34375  Q 34.125 4.828125 34.125 9.8125  L 34.125 30.671875  Q 34.125 34.859375 32.5625 37.609375  Q 31 40.375 26.8125 40.375  Q 23.921875 40.375 20.953125 38.421875  Q 19.28125 37.3125 16.65625 34.71875  L 16.65625 7.375  Q 16.65625 3.859375 18.21875 2.65625  Q 19.78125 1.46875 23.140625 1.375  L 23.140625 0  L 1.8125 0  z M 25.046875 46  z "
                 id="Times-Roman-110" />
              <path
                 d="M 5.171875 15.375  L 6.78125 15.375  Q 7.90625 9.8125 9.8125 6.84375  Q 13.234375 1.375 19.828125 1.375  Q 23.484375 1.375 25.609375 3.390625  Q 27.734375 5.421875 27.734375 8.640625  Q 27.734375 10.6875 26.515625 12.59375  Q 25.296875 14.5 22.21875 16.3125  L 16.75 19.4375  Q 10.75 22.65625 7.90625 25.921875  Q 5.078125 29.203125 5.078125 33.640625  Q 5.078125 39.109375 8.984375 42.625  Q 12.890625 46.140625 18.796875 46.140625  Q 21.390625 46.140625 24.484375 45.15625  Q 27.59375 44.1875 27.984375 44.1875  Q 28.859375 44.1875 29.25 44.421875  Q 29.640625 44.671875 29.9375 45.21875  L 31.109375 45.21875  L 31.453125 31.59375  L 29.9375 31.59375  Q 28.953125 36.328125 27.296875 38.96875  Q 24.265625 43.84375 18.5625 43.84375  Q 15.140625 43.84375 13.1875 41.75  Q 11.234375 39.65625 11.234375 36.8125  Q 11.234375 32.328125 17.96875 28.8125  L 24.421875 25.34375  Q 34.8125 19.671875 34.8125 12.15625  Q 34.8125 6.390625 30.484375 2.734375  Q 26.171875 -0.921875 19.1875 -0.921875  Q 16.265625 -0.921875 12.546875 0.046875  Q 8.84375 1.03125 8.15625 1.03125  Q 7.5625 1.03125 7.125 0.609375  Q 6.6875 0.203125 6.453125 -0.390625  L 5.171875 -0.390625  z M 19.484375 46.140625  z "
                 id="Times-Roman-115" />
            </defs>
            <use
               xlink:href="#Times-Roman-84"
               id="use12081" />
            <use
               x="61.083984"
               xlink:href="#Times-Roman-104"
               id="use12083" />
            <use
               x="111.083984"
               xlink:href="#Times-Roman-101"
               id="use12085" />
            <use
               x="155.46875"
               xlink:href="#Times-Roman-111"
               id="use12087" />
            <use
               x="205.46875"
               xlink:href="#Times-Roman-114"
               id="use12089" />
            <use
               x="238.769531"
               xlink:href="#Times-Roman-101"
               id="use12091" />
            <use
               x="283.154297"
               xlink:href="#Times-Roman-116"
               id="use12093" />
            <use
               x="310.9375"
               xlink:href="#Times-Roman-105"
               id="use12095" />
            <use
               x="338.720703"
               xlink:href="#Times-Roman-99"
               id="use12097" />
            <use
               x="383.105469"
               xlink:href="#Times-Roman-97"
               id="use12099" />
            <use
               x="427.490234"
               xlink:href="#Times-Roman-108"
               id="use12101" />
            <use
               x="455.273438"
               xlink:href="#Times-Roman-32"
               id="use12103" />
            <use
               x="480.273438"
               xlink:href="#Times-Roman-81"
               id="use12105" />
            <use
               x="552.490234"
               xlink:href="#Times-Roman-117"
               id="use12107" />
            <use
               x="602.490234"
               xlink:href="#Times-Roman-97"
               id="use12109" />
            <use
               x="646.875"
               xlink:href="#Times-Roman-110"
               id="use12111" />
            <use
               x="696.875"
               xlink:href="#Times-Roman-116"
               id="use12113" />
            <use
               x="724.658203"
               xlink:href="#Times-Roman-105"
               id="use12115" />
            <use
               x="752.441406"
               xlink:href="#Times-Roman-108"
               id="use12117" />
            <use
               x="780.224609"
               xlink:href="#Times-Roman-101"
               id="use12119" />
            <use
               x="824.609375"
               xlink:href="#Times-Roman-115"
               id="use12121" />
          </g>
        </g>
      </g>
      <g
         id="matplotlib.axis_2">
        <g
           id="ytick_1">
          <g
             id="line2d_6">
            <defs
               id="defs12128">
              <path
                 d="M 0 0  L -3.5 0  "
                 id="md7e7de8462"
                 style="stroke:#000000;stroke-width:0.8;" />
            </defs>
            <g
               id="g12132">
              <use
                 style="stroke:#000000;stroke-width:0.8;"
                 x="112.68"
                 xlink:href="#md7e7de8462"
                 y="252"
                 id="use12130" />
            </g>
          </g>
          <g
             id="text_7">
            <!-- −0.04 -->
            <g
               transform="translate(78.040938 255.428125)scale(0.13 -0.13)"
               id="g12145">
              <use
                 xlink:href="#Times-Roman-8722"
                 id="use12135" />
              <use
                 x="56.396484"
                 xlink:href="#Times-Roman-48"
                 id="use12137" />
              <use
                 x="106.396484"
                 xlink:href="#Times-Roman-46"
                 id="use12139" />
              <use
                 x="131.396484"
                 xlink:href="#Times-Roman-48"
                 id="use12141" />
              <use
                 x="181.396484"
                 xlink:href="#Times-Roman-52"
                 id="use12143" />
            </g>
          </g>
          <g
             id="text_8">
            <!-- −0.03 -->
            <g
               transform="translate(82.540938 228.248125)scale(0 0)"
               id="g12161">
              <defs
                 id="defs12149">
                <path
                   d="M 7.765625 8.5  Q 10.453125 8.5 14.859375 5.71875  Q 19.28125 2.9375 22.359375 2.9375  Q 29.203125 2.9375 32.515625 7.546875  Q 35.84375 12.15625 35.84375 17.578125  Q 35.84375 22.796875 33.15625 26.765625  Q 28.609375 33.453125 17.828125 33.453125  Q 17.1875 33.453125 16.59375 33.421875  Q 16.015625 33.40625 15.234375 33.296875  L 15.140625 34.578125  Q 22.953125 37.40625 27.4375 41.0625  Q 31.9375 44.734375 31.9375 50.734375  Q 31.9375 56.0625 28.390625 58.84375  Q 24.859375 61.625 20.3125 61.625  Q 14.9375 61.625 10.84375 57.671875  Q 8.59375 55.515625 6 51.03125  L 4.5 51.375  Q 6.453125 58.796875 11.765625 63.234375  Q 17.09375 67.671875 24.078125 67.671875  Q 31.546875 67.671875 35.625 63.5625  Q 39.703125 59.46875 39.703125 54.109375  Q 39.703125 49.359375 36.328125 45.40625  Q 34.421875 43.171875 30.421875 40.375  Q 35.109375 38.375 37.9375 35.6875  Q 43.265625 30.5625 43.265625 22.703125  Q 43.265625 13.421875 35.953125 6.34375  Q 28.65625 -0.734375 15.1875 -0.734375  Q 9.1875 -0.734375 6.765625 1.046875  Q 4.34375 2.828125 4.34375 4.890625  Q 4.34375 6.15625 5.140625 7.328125  Q 5.953125 8.5 7.765625 8.5  z "
                   id="Times-Roman-51" />
              </defs>
              <use
                 xlink:href="#Times-Roman-8722"
                 id="use12151" />
              <use
                 x="56.396484"
                 xlink:href="#Times-Roman-48"
                 id="use12153" />
              <use
                 x="106.396484"
                 xlink:href="#Times-Roman-46"
                 id="use12155" />
              <use
                 x="131.396484"
                 xlink:href="#Times-Roman-48"
                 id="use12157" />
              <use
                 x="181.396484"
                 xlink:href="#Times-Roman-51"
                 id="use12159" />
            </g>
          </g>
        </g>
        <g
           id="ytick_2">
          <g
             id="line2d_8">
            <g
               id="g12167">
              <use
                 style="stroke:#000000;stroke-width:0.8;"
                 x="112.68"
                 xlink:href="#md7e7de8462"
                 y="197.64"
                 id="use12165" />
            </g>
          </g>
          <g
             id="text_9">
            <!-- −0.02 -->
            <g
               transform="translate(78.040938 201.068125)scale(0.13 -0.13)"
               id="g12180">
              <use
                 xlink:href="#Times-Roman-8722"
                 id="use12170" />
              <use
                 x="56.396484"
                 xlink:href="#Times-Roman-48"
                 id="use12172" />
              <use
                 x="106.396484"
                 xlink:href="#Times-Roman-46"
                 id="use12174" />
              <use
                 x="131.396484"
                 xlink:href="#Times-Roman-48"
                 id="use12176" />
              <use
                 x="181.396484"
                 xlink:href="#Times-Roman-50"
                 id="use12178" />
            </g>
          </g>
          <g
             id="text_10">
            <!-- −0.01 -->
            <g
               transform="translate(82.540938 173.888125)scale(0 0)"
               id="g12196">
              <defs
                 id="defs12184">
                <path
                   d="M 29.59375 67.09375  Q 29.78125 66.84375 29.796875 66.71875  Q 29.828125 66.609375 29.828125 66.15625  L 29.828125 7.375  Q 29.828125 3.609375 31.828125 2.578125  Q 33.84375 1.5625 39.3125 1.375  L 39.3125 0  L 11.765625 0  L 11.765625 1.46875  Q 17.671875 1.765625 19.484375 3.078125  Q 21.296875 4.390625 21.296875 8.796875  L 21.296875 54  Q 21.296875 56.34375 20.703125 57.5625  Q 20.125 58.796875 18.171875 58.796875  Q 16.890625 58.796875 14.859375 58.078125  Q 12.84375 57.375 11.078125 56.59375  L 11.078125 57.953125  L 29 67.09375  L 29.59375 67.09375  z "
                   id="Times-Roman-49" />
              </defs>
              <use
                 xlink:href="#Times-Roman-8722"
                 id="use12186" />
              <use
                 x="56.396484"
                 xlink:href="#Times-Roman-48"
                 id="use12188" />
              <use
                 x="106.396484"
                 xlink:href="#Times-Roman-46"
                 id="use12190" />
              <use
                 x="131.396484"
                 xlink:href="#Times-Roman-48"
                 id="use12192" />
              <use
                 x="181.396484"
                 xlink:href="#Times-Roman-49"
                 id="use12194" />
            </g>
          </g>
        </g>
        <g
           id="ytick_3">
          <g
             id="line2d_10">
            <g
               id="g12202">
              <use
                 style="stroke:#000000;stroke-width:0.8;"
                 x="112.68"
                 xlink:href="#md7e7de8462"
                 y="143.28"
                 id="use12200" />
            </g>
          </g>
          <g
             id="text_11">
            <!-- 0.00 -->
            <g
               transform="translate(85.38 146.708125)scale(0.13 -0.13)"
               id="g12213">
              <use
                 xlink:href="#Times-Roman-48"
                 id="use12205" />
              <use
                 x="50"
                 xlink:href="#Times-Roman-46"
                 id="use12207" />
              <use
                 x="75"
                 xlink:href="#Times-Roman-48"
                 id="use12209" />
              <use
                 x="125"
                 xlink:href="#Times-Roman-48"
                 id="use12211" />
            </g>
          </g>
          <g
             id="text_12">
            <!-- 0.01 -->
            <g
               transform="translate(88.18 119.528125)scale(0 -0)"
               id="g12224">
              <use
                 xlink:href="#Times-Roman-48"
                 id="use12216" />
              <use
                 x="50"
                 xlink:href="#Times-Roman-46"
                 id="use12218" />
              <use
                 x="75"
                 xlink:href="#Times-Roman-48"
                 id="use12220" />
              <use
                 x="125"
                 xlink:href="#Times-Roman-49"
                 id="use12222" />
            </g>
          </g>
        </g>
        <g
           id="ytick_4">
          <g
             id="line2d_12">
            <g
               id="g12230">
              <use
                 style="stroke:#000000;stroke-width:0.8;"
                 x="112.68"
                 xlink:href="#md7e7de8462"
                 y="88.92"
                 id="use12228" />
            </g>
          </g>
          <g
             id="text_13">
            <!-- 0.02 -->
            <g
               transform="translate(85.38 92.348125)scale(0.13 -0.13)"
               id="g12241">
              <use
                 xlink:href="#Times-Roman-48"
                 id="use12233" />
              <use
                 x="50"
                 xlink:href="#Times-Roman-46"
                 id="use12235" />
              <use
                 x="75"
                 xlink:href="#Times-Roman-48"
                 id="use12237" />
              <use
                 x="125"
                 xlink:href="#Times-Roman-50"
                 id="use12239" />
            </g>
          </g>
          <g
             id="text_14">
            <!-- 0.03 -->
            <g
               transform="translate(88.18 65.168125)scale(0 -0)"
               id="g12252">
              <use
                 xlink:href="#Times-Roman-48"
                 id="use12244" />
              <use
                 x="50"
                 xlink:href="#Times-Roman-46"
                 id="use12246" />
              <use
                 x="75"
                 xlink:href="#Times-Roman-48"
                 id="use12248" />
              <use
                 x="125"
                 xlink:href="#Times-Roman-51"
                 id="use12250" />
            </g>
          </g>
        </g>
        <g
           id="ytick_5">
          <g
             id="line2d_14">
            <g
               id="g12258">
              <use
                 style="stroke:#000000;stroke-width:0.8;"
                 x="112.68"
                 xlink:href="#md7e7de8462"
                 y="34.56"
                 id="use12256" />
            </g>
          </g>
          <g
             id="text_15">
            <!-- 0.04 -->
            <g
               transform="translate(85.38 37.988125)scale(0.13 -0.13)"
               id="g12269">
              <use
                 xlink:href="#Times-Roman-48"
                 id="use12261" />
              <use
                 x="50"
                 xlink:href="#Times-Roman-46"
                 id="use12263" />
              <use
                 x="75"
                 xlink:href="#Times-Roman-48"
                 id="use12265" />
              <use
                 x="125"
                 xlink:href="#Times-Roman-52"
                 id="use12267" />
            </g>
          </g>
        </g>
        <g
           id="text_16">
          <!-- Sample Quantiles -->
          <g
             transform="translate(70.362813 190.190938)rotate(-90)scale(0.13 -0.13)"
             id="g12310">
            <defs
               id="defs12276">
              <path
                 d="M 6.453125 20.125  Q 8.984375 13.375 12.40625 9.375  Q 18.359375 2.390625 27.203125 2.390625  Q 31.984375 2.390625 35.46875 5.421875  Q 38.96875 8.453125 38.96875 13.875  Q 38.96875 18.75 35.453125 22.359375  Q 33.15625 24.65625 25.78125 29.25  L 17.234375 34.578125  Q 13.375 37.015625 11.078125 39.5  Q 6.84375 44.234375 6.84375 49.953125  Q 6.84375 57.515625 11.859375 62.546875  Q 16.890625 67.578125 25.203125 67.578125  Q 28.609375 67.578125 33.421875 65.890625  Q 38.234375 64.203125 38.921875 64.203125  Q 40.765625 64.203125 41.46875 65.078125  Q 42.1875 65.96875 42.578125 67.578125  L 44.625 67.578125  L 46.828125 46.296875  L 44.4375 46.296875  Q 42 55.90625 36.59375 59.71875  Q 31.203125 63.53125 25.921875 63.53125  Q 21.828125 63.53125 18.765625 61.109375  Q 15.71875 58.6875 15.71875 54.390625  Q 15.71875 50.53125 18.0625 47.796875  Q 20.40625 45.015625 25.34375 42  L 34.125 36.578125  Q 42.390625 31.5 45.75 27.25  Q 49.078125 22.953125 49.078125 17.09375  Q 49.078125 9.234375 43.140625 3.953125  Q 37.203125 -1.3125 27.984375 -1.3125  Q 23.34375 -1.3125 18.28125 0.4375  Q 13.234375 2.203125 12.5 2.203125  Q 10.75 2.203125 10.125 1.125  Q 9.515625 0.046875 9.328125 -1.171875  L 7.125 -1.171875  L 4.15625 20.125  z M 27.828125 67.578125  z "
                 id="Times-Roman-83" />
              <path
                 d="M 1.609375 1.265625  Q 5.421875 1.609375 6.6875 2.546875  Q 8.640625 3.953125 8.640625 8.203125  L 8.640625 33.453125  Q 8.640625 37.0625 7.6875 38.1875  Q 6.734375 39.3125 4.546875 39.3125  Q 3.515625 39.3125 3 39.203125  Q 2.484375 39.109375 1.8125 38.875  L 1.8125 40.578125  L 5.328125 41.75  Q 7.234375 42.390625 11.578125 44.046875  Q 15.921875 45.703125 16.15625 45.703125  Q 16.40625 45.703125 16.453125 45.453125  Q 16.5 45.21875 16.5 44.53125  L 16.5 37.9375  Q 21.34375 42.328125 24.859375 44.015625  Q 28.375 45.703125 32.078125 45.703125  Q 37.109375 45.703125 40.09375 42.28125  Q 41.65625 40.4375 42.671875 37.25  Q 46.296875 40.921875 48.96875 42.671875  Q 53.609375 45.703125 58.453125 45.703125  Q 66.3125 45.703125 68.953125 39.3125  Q 70.453125 35.6875 70.453125 27.875  L 70.453125 7.625  Q 70.453125 4.15625 71.984375 2.90625  Q 73.53125 1.65625 77.546875 1.265625  L 77.546875 0  L 55.515625 0  L 55.515625 1.375  Q 59.765625 1.765625 61.109375 3.078125  Q 62.453125 4.390625 62.453125 8.453125  L 62.453125 29.5  Q 62.453125 34.234375 61.421875 36.46875  Q 59.625 40.484375 54.34375 40.484375  Q 51.171875 40.484375 48.046875 38.375  Q 46.234375 37.15625 43.609375 34.46875  L 43.609375 9.46875  Q 43.609375 5.515625 45 3.46875  Q 46.390625 1.421875 50.875 1.265625  L 50.875 0  L 28.46875 0  L 28.46875 1.265625  Q 33.109375 1.859375 34.375 3.515625  Q 35.640625 5.171875 35.640625 11.671875  L 35.640625 25.34375  Q 35.640625 32.859375 34.671875 35.6875  Q 33.0625 40.484375 27.828125 40.484375  Q 24.859375 40.484375 21.96875 38.84375  Q 19.09375 37.203125 16.890625 34.578125  L 16.890625 7.859375  Q 16.890625 4.15625 18.1875 2.734375  Q 19.484375 1.3125 23.828125 1.265625  L 23.828125 0  L 1.609375 0  z "
                 id="Times-Roman-109" />
              <path
                 d="M 15.96875 8.984375  Q 17.234375 5.671875 19.75 4.03125  Q 22.265625 2.390625 25.6875 2.390625  Q 30.953125 2.390625 34.6875 7.640625  Q 38.421875 12.890625 38.421875 22.265625  Q 38.421875 31.25 34.546875 35.6875  Q 30.671875 40.140625 25.53125 40.140625  Q 21.921875 40.140625 18.9375 37.90625  Q 15.96875 35.6875 15.96875 33.546875  L 15.96875 8.984375  z M 0.4375 -20.171875  Q 5.03125 -19.875 6.265625 -18.203125  Q 7.515625 -16.546875 7.515625 -12.984375  L 7.515625 33.890625  Q 7.515625 37.59375 6.609375 38.640625  Q 5.71875 39.703125 3.21875 39.703125  Q 2.6875 39.703125 2.21875 39.640625  Q 1.765625 39.59375 0.875 39.453125  L 0.875 41.0625  L 5.515625 42.578125  Q 5.765625 42.625 15.328125 45.953125  Q 15.578125 45.953125 15.703125 45.734375  Q 15.828125 45.515625 15.828125 45.21875  L 15.828125 38.625  Q 19.046875 41.84375 21.484375 43.40625  Q 25.875 46.140625 30.515625 46.140625  Q 37.25 46.140625 42.109375 40.40625  Q 46.96875 34.671875 46.96875 24.703125  Q 46.96875 14.9375 41.125 6.96875  Q 35.296875 -0.984375 26.46875 -0.984375  Q 23.734375 -0.984375 21.734375 -0.296875  Q 18.609375 0.734375 15.96875 3.46875  L 15.96875 -12.5  Q 15.96875 -17.4375 17.578125 -18.546875  Q 19.1875 -19.671875 24.609375 -20.0625  L 24.609375 -21.78125  L 0.4375 -21.78125  z "
                 id="Times-Roman-112" />
            </defs>
            <use
               xlink:href="#Times-Roman-83"
               id="use12278" />
            <use
               x="55.615234"
               xlink:href="#Times-Roman-97"
               id="use12280" />
            <use
               x="100"
               xlink:href="#Times-Roman-109"
               id="use12282" />
            <use
               x="177.783203"
               xlink:href="#Times-Roman-112"
               id="use12284" />
            <use
               x="227.783203"
               xlink:href="#Times-Roman-108"
               id="use12286" />
            <use
               x="255.566406"
               xlink:href="#Times-Roman-101"
               id="use12288" />
            <use
               x="299.951172"
               xlink:href="#Times-Roman-32"
               id="use12290" />
            <use
               x="324.951172"
               xlink:href="#Times-Roman-81"
               id="use12292" />
            <use
               x="397.167969"
               xlink:href="#Times-Roman-117"
               id="use12294" />
            <use
               x="447.167969"
               xlink:href="#Times-Roman-97"
               id="use12296" />
            <use
               x="491.552734"
               xlink:href="#Times-Roman-110"
               id="use12298" />
            <use
               x="541.552734"
               xlink:href="#Times-Roman-116"
               id="use12300" />
            <use
               x="569.335938"
               xlink:href="#Times-Roman-105"
               id="use12302" />
            <use
               x="597.119141"
               xlink:href="#Times-Roman-108"
               id="use12304" />
            <use
               x="624.902344"
               xlink:href="#Times-Roman-101"
               id="use12306" />
            <use
               x="669.287109"
               xlink:href="#Times-Roman-115"
               id="use12308" />
          </g>
        </g>
      </g>
      <g
         id="line2d_16">
        <path
           clip-path="url(#pe7db755f73)"
           d="M 112.68 252  L 330.12 34.56  "
           style="fill:none;stroke:#000000;stroke-linecap:square;stroke-width:1.5;"
           id="path12450" />
      </g>
      <g
         id="patch_3">
        <path
           d="M 112.68 252  L 112.68 34.56  "
           style="fill:none;stroke:#000000;stroke-linecap:square;stroke-linejoin:miter;stroke-width:0.8;"
           id="path12453" />
      </g>
      <g
         id="patch_4">
        <path
           d="M 330.12 252  L 330.12 34.56  "
           style="fill:none;stroke:#000000;stroke-linecap:square;stroke-linejoin:miter;stroke-width:0.8;"
           id="path12456" />
      </g>
      <g
         id="patch_5">
        <path
           d="M 112.68 252  L 330.12 252  "
           style="fill:none;stroke:#000000;stroke-linecap:square;stroke-linejoin:miter;stroke-width:0.8;"
           id="path12459" />
      </g>
      <g
         id="patch_6">
        <path
           d="M 112.68 34.56  L 330.12 34.56  "
           style="fill:none;stroke:#000000;stroke-linecap:square;stroke-linejoin:miter;stroke-width:0.8;"
           id="path12462" />
      </g>
    </g>
  </g>
  <defs
     id="defs12470">
    <clipPath
       id="pe7db755f73">
      <rect
         height="217.44"
         width="217.44"
         x="112.68"
         y="34.56"
         id="rect12467" />
    </clipPath>
  </defs>
  <g
     id="line2d_15"
     style="stroke-linecap:butt;stroke-linejoin:round">
    <defs
       id="defs4152">
      <path
         d="M 0,3 C 0.795609,3 1.55874,2.683901 2.12132,2.12132 2.683901,1.55874 3,0.795609 3,0 3,-0.795609 2.683901,-1.55874 2.12132,-2.12132 1.55874,-2.683901 0.795609,-3 0,-3 -0.795609,-3 -1.55874,-2.683901 -2.12132,-2.12132 -2.683901,-1.55874 -3,-0.795609 -3,0 -3,0.795609 -2.683901,1.55874 -2.12132,2.12132 -1.55874,2.683901 -0.795609,3 0,3 Z"
         id="path5278"
         style="stroke:#4c72b0" />
    </defs>
    <g
       clip-path="url(#pc89326d438)"
       id="g4284">
      <use
         style="fill:#4c72b0;stroke:#4c72b0"
         x="81.980103"
         xlink:href="#m3431023246"
         y="348.20691"
         id="use4154"
         width="100%"
         height="100%" />
      <use
         style="fill:#4c72b0;stroke:#4c72b0"
         x="100.57242"
         xlink:href="#m3431023246"
         y="282.91772"
         id="use4156"
         width="100%"
         height="100%" />
      <use
         style="fill:#4c72b0;stroke:#4c72b0"
         x="112.49063"
         xlink:href="#m3431023246"
         y="257.23553"
         id="use4158"
         width="100%"
         height="100%" />
      <use
         style="fill:#4c72b0;stroke:#4c72b0"
         x="121.53279"
         xlink:href="#m3431023246"
         y="241.82141"
         id="use4160"
         width="100%"
         height="100%" />
      <use
         style="fill:#4c72b0;stroke:#4c72b0"
         x="128.94446"
         xlink:href="#m3431023246"
         y="231.47444"
         id="use4162"
         width="100%"
         height="100%" />
      <use
         style="fill:#4c72b0;stroke:#4c72b0"
         x="135.29845"
         xlink:href="#m3431023246"
         y="222.77647"
         id="use4164"
         width="100%"
         height="100%" />
      <use
         style="fill:#4c72b0;stroke:#4c72b0"
         x="140.90819"
         xlink:href="#m3431023246"
         y="215.83595"
         id="use4166"
         width="100%"
         height="100%" />
      <use
         style="fill:#4c72b0;stroke:#4c72b0"
         x="145.96489"
         xlink:href="#m3431023246"
         y="210.51656"
         id="use4168"
         width="100%"
         height="100%" />
      <use
         style="fill:#4c72b0;stroke:#4c72b0"
         x="150.59424"
         xlink:href="#m3431023246"
         y="205.61743"
         id="use4170"
         width="100%"
         height="100%" />
      <use
         style="fill:#4c72b0;stroke:#4c72b0"
         x="154.88361"
         xlink:href="#m3431023246"
         y="201.22452"
         id="use4172"
         width="100%"
         height="100%" />
      <use
         style="fill:#4c72b0;stroke:#4c72b0"
         x="158.89632"
         xlink:href="#m3431023246"
         y="197.00056"
         id="use4174"
         width="100%"
         height="100%" />
      <use
         style="fill:#4c72b0;stroke:#4c72b0"
         x="162.67984"
         xlink:href="#m3431023246"
         y="193.23187"
         id="use4176"
         width="100%"
         height="100%" />
      <use
         style="fill:#4c72b0;stroke:#4c72b0"
         x="166.27083"
         xlink:href="#m3431023246"
         y="189.91437"
         id="use4178"
         width="100%"
         height="100%" />
      <use
         style="fill:#4c72b0;stroke:#4c72b0"
         x="169.69814"
         xlink:href="#m3431023246"
         y="186.61191"
         id="use4180"
         width="100%"
         height="100%" />
      <use
         style="fill:#4c72b0;stroke:#4c72b0"
         x="172.98505"
         xlink:href="#m3431023246"
         y="183.7739"
         id="use4182"
         width="100%"
         height="100%" />
      <use
         style="fill:#4c72b0;stroke:#4c72b0"
         x="176.15059"
         xlink:href="#m3431023246"
         y="180.72783"
         id="use4184"
         width="100%"
         height="100%" />
      <use
         style="fill:#4c72b0;stroke:#4c72b0"
         x="179.21062"
         xlink:href="#m3431023246"
         y="178.05859"
         id="use4186"
         width="100%"
         height="100%" />
      <use
         style="fill:#4c72b0;stroke:#4c72b0"
         x="182.17848"
         xlink:href="#m3431023246"
         y="175.5403"
         id="use4188"
         width="100%"
         height="100%" />
      <use
         style="fill:#4c72b0;stroke:#4c72b0"
         x="185.06555"
         xlink:href="#m3431023246"
         y="173.16846"
         id="use4190"
         width="100%"
         height="100%" />
      <use
         style="fill:#4c72b0;stroke:#4c72b0"
         x="187.8817"
         xlink:href="#m3431023246"
         y="170.66292"
         id="use4192"
         width="100%"
         height="100%" />
      <use
         style="fill:#4c72b0;stroke:#4c72b0"
         x="190.63547"
         xlink:href="#m3431023246"
         y="168.53909"
         id="use4194"
         width="100%"
         height="100%" />
      <use
         style="fill:#4c72b0;stroke:#4c72b0"
         x="193.33446"
         xlink:href="#m3431023246"
         y="166.36784"
         id="use4196"
         width="100%"
         height="100%" />
      <use
         style="fill:#4c72b0;stroke:#4c72b0"
         x="195.9854"
         xlink:href="#m3431023246"
         y="164.14424"
         id="use4198"
         width="100%"
         height="100%" />
      <use
         style="fill:#4c72b0;stroke:#4c72b0"
         x="198.59435"
         xlink:href="#m3431023246"
         y="162.02632"
         id="use4200"
         width="100%"
         height="100%" />
      <use
         style="fill:#4c72b0;stroke:#4c72b0"
         x="201.16679"
         xlink:href="#m3431023246"
         y="159.95686"
         id="use4202"
         width="100%"
         height="100%" />
      <use
         style="fill:#4c72b0;stroke:#4c72b0"
         x="203.70779"
         xlink:href="#m3431023246"
         y="157.91292"
         id="use4204"
         width="100%"
         height="100%" />
      <use
         style="fill:#4c72b0;stroke:#4c72b0"
         x="206.22198"
         xlink:href="#m3431023246"
         y="155.70569"
         id="use4206"
         width="100%"
         height="100%" />
      <use
         style="fill:#4c72b0;stroke:#4c72b0"
         x="208.71373"
         xlink:href="#m3431023246"
         y="153.8322"
         id="use4208"
         width="100%"
         height="100%" />
      <use
         style="fill:#4c72b0;stroke:#4c72b0"
         x="211.18712"
         xlink:href="#m3431023246"
         y="151.92577"
         id="use4210"
         width="100%"
         height="100%" />
      <use
         style="fill:#4c72b0;stroke:#4c72b0"
         x="213.64606"
         xlink:href="#m3431023246"
         y="150.00534"
         id="use4212"
         width="100%"
         height="100%" />
      <use
         style="fill:#4c72b0;stroke:#4c72b0"
         x="216.09427"
         xlink:href="#m3431023246"
         y="148.04668"
         id="use4214"
         width="100%"
         height="100%" />
      <use
         style="fill:#4c72b0;stroke:#4c72b0"
         x="218.5354"
         xlink:href="#m3431023246"
         y="146.16043"
         id="use4216"
         width="100%"
         height="100%" />
      <use
         style="fill:#4c72b0;stroke:#4c72b0"
         x="220.97299"
         xlink:href="#m3431023246"
         y="144.3092"
         id="use4218"
         width="100%"
         height="100%" />
      <use
         style="fill:#4c72b0;stroke:#4c72b0"
         x="223.4106"
         xlink:href="#m3431023246"
         y="142.1904"
         id="use4220"
         width="100%"
         height="100%" />
      <use
         style="fill:#4c72b0;stroke:#4c72b0"
         x="225.85173"
         xlink:href="#m3431023246"
         y="140.04259"
         id="use4222"
         width="100%"
         height="100%" />
      <use
         style="fill:#4c72b0;stroke:#4c72b0"
         x="228.29994"
         xlink:href="#m3431023246"
         y="138.11969"
         id="use4224"
         width="100%"
         height="100%" />
      <use
         style="fill:#4c72b0;stroke:#4c72b0"
         x="230.75887"
         xlink:href="#m3431023246"
         y="136.16071"
         id="use4226"
         width="100%"
         height="100%" />
      <use
         style="fill:#4c72b0;stroke:#4c72b0"
         x="233.23225"
         xlink:href="#m3431023246"
         y="134.2142"
         id="use4228"
         width="100%"
         height="100%" />
      <use
         style="fill:#4c72b0;stroke:#4c72b0"
         x="235.724"
         xlink:href="#m3431023246"
         y="132.11382"
         id="use4230"
         width="100%"
         height="100%" />
      <use
         style="fill:#4c72b0;stroke:#4c72b0"
         x="238.2382"
         xlink:href="#m3431023246"
         y="130.02466"
         id="use4232"
         width="100%"
         height="100%" />
      <use
         style="fill:#4c72b0;stroke:#4c72b0"
         x="240.77921"
         xlink:href="#m3431023246"
         y="127.97791"
         id="use4234"
         width="100%"
         height="100%" />
      <use
         style="fill:#4c72b0;stroke:#4c72b0"
         x="243.35165"
         xlink:href="#m3431023246"
         y="125.86123"
         id="use4236"
         width="100%"
         height="100%" />
      <use
         style="fill:#4c72b0;stroke:#4c72b0"
         x="245.9606"
         xlink:href="#m3431023246"
         y="123.72372"
         id="use4238"
         width="100%"
         height="100%" />
      <use
         style="fill:#4c72b0;stroke:#4c72b0"
         x="248.61154"
         xlink:href="#m3431023246"
         y="121.29952"
         id="use4240"
         width="100%"
         height="100%" />
      <use
         style="fill:#4c72b0;stroke:#4c72b0"
         x="251.31053"
         xlink:href="#m3431023246"
         y="119.10389"
         id="use4242"
         width="100%"
         height="100%" />
      <use
         style="fill:#4c72b0;stroke:#4c72b0"
         x="254.0643"
         xlink:href="#m3431023246"
         y="116.76379"
         id="use4244"
         width="100%"
         height="100%" />
      <use
         style="fill:#4c72b0;stroke:#4c72b0"
         x="256.88043"
         xlink:href="#m3431023246"
         y="114.60246"
         id="use4246"
         width="100%"
         height="100%" />
      <use
         style="fill:#4c72b0;stroke:#4c72b0"
         x="259.76752"
         xlink:href="#m3431023246"
         y="111.99988"
         id="use4248"
         width="100%"
         height="100%" />
      <use
         style="fill:#4c72b0;stroke:#4c72b0"
         x="262.73538"
         xlink:href="#m3431023246"
         y="109.39689"
         id="use4250"
         width="100%"
         height="100%" />
      <use
         style="fill:#4c72b0;stroke:#4c72b0"
         x="265.79541"
         xlink:href="#m3431023246"
         y="106.44419"
         id="use4252"
         width="100%"
         height="100%" />
      <use
         style="fill:#4c72b0;stroke:#4c72b0"
         x="268.96094"
         xlink:href="#m3431023246"
         y="103.54213"
         id="use4254"
         width="100%"
         height="100%" />
      <use
         style="fill:#4c72b0;stroke:#4c72b0"
         x="272.24786"
         xlink:href="#m3431023246"
         y="100.6458"
         id="use4256"
         width="100%"
         height="100%" />
      <use
         style="fill:#4c72b0;stroke:#4c72b0"
         x="275.67517"
         xlink:href="#m3431023246"
         y="97.754005"
         id="use4258"
         width="100%"
         height="100%" />
      <use
         style="fill:#4c72b0;stroke:#4c72b0"
         x="279.26614"
         xlink:href="#m3431023246"
         y="94.247948"
         id="use4260"
         width="100%"
         height="100%" />
      <use
         style="fill:#4c72b0;stroke:#4c72b0"
         x="283.04968"
         xlink:href="#m3431023246"
         y="90.230659"
         id="use4262"
         width="100%"
         height="100%" />
      <use
         style="fill:#4c72b0;stroke:#4c72b0"
         x="287.06238"
         xlink:href="#m3431023246"
         y="86.208733"
         id="use4264"
         width="100%"
         height="100%" />
      <use
         style="fill:#4c72b0;stroke:#4c72b0"
         x="291.35175"
         xlink:href="#m3431023246"
         y="81.395294"
         id="use4266"
         width="100%"
         height="100%" />
      <use
         style="fill:#4c72b0;stroke:#4c72b0"
         x="295.98111"
         xlink:href="#m3431023246"
         y="76.469597"
         id="use4268"
         width="100%"
         height="100%" />
      <use
         style="fill:#4c72b0;stroke:#4c72b0"
         x="301.03781"
         xlink:href="#m3431023246"
         y="70.696136"
         id="use4270"
         width="100%"
         height="100%" />
      <use
         style="fill:#4c72b0;stroke:#4c72b0"
         x="306.64755"
         xlink:href="#m3431023246"
         y="63.579292"
         id="use4272"
         width="100%"
         height="100%" />
      <use
         style="fill:#4c72b0;stroke:#4c72b0"
         x="313.00153"
         xlink:href="#m3431023246"
         y="55.196259"
         id="use4274"
         width="100%"
         height="100%" />
      <use
         style="fill:#4c72b0;stroke:#4c72b0"
         x="320.41321"
         xlink:href="#m3431023246"
         y="43.625694"
         id="use4276"
         width="100%"
         height="100%" />
      <use
         style="fill:#4c72b0;stroke:#4c72b0"
         x="329.45535"
         xlink:href="#m3431023246"
         y="28.762447"
         id="use4278"
         width="100%"
         height="100%" />
      <use
         style="fill:#4c72b0;stroke:#4c72b0"
         x="341.37357"
         xlink:href="#m3431023246"
         y="3.6720879"
         id="use4280"
         width="100%"
         height="100%" />
      <use
         style="fill:#4c72b0;stroke:#4c72b0"
         x="342.73013"
         xlink:href="#m3431023246"
         y="-1"
         id="use4282"
         width="100%"
         height="100%" />
    </g>
  </g>
  <g
     id="line2d_16-1"
     style="stroke-linecap:butt;stroke-linejoin:round">
    <path
       clip-path="url(#pc89326d438)"
       d="M 112.68,252 330.12,34.56"
       style="fill:none;stroke:#000000;stroke-width:1.5;stroke-linecap:square"
       id="path4287" />
  </g>
  <g
     id="patch_3-1"
     style="stroke-linecap:butt;stroke-linejoin:round">
    <path
       d="M 112.68,252 V 34.56"
       style="fill:none;stroke:#000000;stroke-width:0.8;stroke-linecap:square;stroke-linejoin:miter"
       id="path4290" />
  </g>
  <g
     id="patch_4-5"
     style="stroke-linecap:butt;stroke-linejoin:round">
    <path
       d="M 330.12,252 V 34.56"
       style="fill:none;stroke:#000000;stroke-width:0.8;stroke-linecap:square;stroke-linejoin:miter"
       id="path4293" />
  </g>
  <g
     id="patch_5-7"
     style="stroke-linecap:butt;stroke-linejoin:round">
    <path
       d="M 112.68,252 H 330.12"
       style="fill:none;stroke:#000000;stroke-width:0.8;stroke-linecap:square;stroke-linejoin:miter"
       id="path4296" />
  </g>
</svg>
