<?xml version="1.0" encoding="utf-8" standalone="no"?>
<!DOCTYPE svg PUBLIC "-//W3C//DTD SVG 1.1//EN"
  "http://www.w3.org/Graphics/SVG/1.1/DTD/svg11.dtd">
<!-- Created with matplotlib (https://matplotlib.org/) -->
<svg height="300pt" version="1.1" viewBox="0 0 432 288" width="432pt" xmlns="http://www.w3.org/2000/svg" xmlns:xlink="http://www.w3.org/1999/xlink">
 <metadata>
  <rdf:RDF xmlns:cc="http://creativecommons.org/ns#" xmlns:dc="http://purl.org/dc/elements/1.1/" xmlns:rdf="http://www.w3.org/1999/02/22-rdf-syntax-ns#">
   <cc:Work>
    <dc:type rdf:resource="http://purl.org/dc/dcmitype/StillImage"/>
    <dc:date>2021-03-15T13:34:46.730341</dc:date>
    <dc:format>image/svg+xml</dc:format>
    <dc:creator>
     <cc:Agent>
      <dc:title>Matplotlib v3.3.2, https://matplotlib.org/</dc:title>
     </cc:Agent>
    </dc:creator>
   </cc:Work>
  </rdf:RDF>
 </metadata>
 <defs>
  <style type="text/css">*{stroke-linecap:butt;stroke-linejoin:round;}</style>
 </defs>
 <g id="figure_1">
  <g id="patch_1">
   <path d="M 0 288 
L 432 288 
L 432 0 
L 0 0 
z
" style="fill:#ffffff;"/>
  </g>
  <g id="axes_1">
   <g id="patch_2">
    <path d="M 112.68 252 
L 330.12 252 
L 330.12 34.56 
L 112.68 34.56 
z
" style="fill:#ffffff;"/>
   </g>
   <g id="matplotlib.axis_1">
    <g id="xtick_1">
     <g id="line2d_1">
      <defs>
       <path d="M 0 0 
L 0 3.5 
" id="m824a33d415" style="stroke:#000000;stroke-width:0.8;"/>
      </defs>
      <g>
       <use style="stroke:#000000;stroke-width:0.8;" x="112.68" xlink:href="#m824a33d415" y="252"/>
      </g>
     </g>
     <g id="text_1">
      <!-- −0.04 -->
      <g transform="translate(95.325703 269.284375)scale(0.15 -0.15)">
       <defs>
        <path d="M 2.984375 28.65625 
L 53.46875 28.65625 
L 53.46875 21.828125 
L 2.984375 21.828125 
z
" id="Times-Roman-8722"/>
        <path d="M 23.921875 1.8125 
Q 31.109375 1.8125 33.78125 9.671875 
Q 36.46875 17.53125 36.46875 32.421875 
Q 36.46875 44.28125 34.859375 51.375 
Q 31.84375 64.546875 23.53125 64.546875 
Q 15.234375 64.546875 12.15625 50.984375 
Q 10.546875 43.75 10.546875 31.9375 
Q 10.546875 20.84375 12.203125 14.203125 
Q 15.328125 1.8125 23.921875 1.8125 
z
M 23.78125 67.1875 
Q 35.015625 67.1875 41.21875 55.421875 
Q 46.140625 45.90625 46.140625 33.546875 
Q 46.140625 23.828125 43.109375 15.234375 
Q 37.40625 -0.921875 23.34375 -0.921875 
Q 13.71875 -0.921875 7.515625 7.8125 
Q 0.875 17.140625 0.875 33.15625 
Q 0.875 45.75 5.328125 54.828125 
Q 11.328125 67.1875 23.78125 67.1875 
z
" id="Times-Roman-48"/>
        <path d="M 16.3125 -1.171875 
Q 13.96875 -1.171875 12.359375 0.453125 
Q 10.75 2.09375 10.75 4.390625 
Q 10.75 6.6875 12.375 8.296875 
Q 14.015625 9.90625 16.3125 9.90625 
Q 18.609375 9.90625 20.21875 8.296875 
Q 21.828125 6.6875 21.828125 4.390625 
Q 21.828125 2.09375 20.234375 0.453125 
Q 18.65625 -1.171875 16.3125 -1.171875 
z
" id="Times-Roman-46"/>
        <path d="M 29.15625 57.03125 
L 5.171875 23.140625 
L 29.15625 23.140625 
z
M 32.375 67.09375 
L 37.015625 67.09375 
L 37.015625 23.140625 
L 47.21875 23.140625 
L 47.21875 16.65625 
L 37.015625 16.65625 
L 37.015625 0 
L 29.25 0 
L 29.25 16.65625 
L 1.125 16.65625 
L 1.125 23.140625 
z
" id="Times-Roman-52"/>
       </defs>
       <use xlink:href="#Times-Roman-8722"/>
       <use x="56.396484" xlink:href="#Times-Roman-48"/>
       <use x="106.396484" xlink:href="#Times-Roman-46"/>
       <use x="131.396484" xlink:href="#Times-Roman-48"/>
       <use x="181.396484" xlink:href="#Times-Roman-52"/>
      </g>
     </g>
    </g>
    <g id="xtick_2">
     <g id="line2d_2">
      <g>
       <use style="stroke:#000000;stroke-width:0.8;" x="167.04" xlink:href="#m824a33d415" y="252"/>
      </g>
     </g>
     <g id="text_2">
      <!-- −0.02 -->
      <g transform="translate(149.685703 269.284375)scale(0.15 -0.15)">
       <defs>
        <path d="M 2.984375 1.125 
Q 20.84375 19.671875 27.234375 28.359375 
Q 33.640625 37.0625 33.640625 45.3125 
Q 33.640625 52.546875 29.734375 56.328125 
Q 25.828125 60.109375 20.40625 60.109375 
Q 13.71875 60.109375 9.578125 55.21875 
Q 7.28125 52.546875 5.171875 46.96875 
L 3.078125 47.40625 
Q 5.515625 58.640625 11.34375 63.015625 
Q 17.1875 67.390625 23.875 67.390625 
Q 32.125 67.390625 37.21875 62.1875 
Q 42.328125 56.984375 42.328125 49.46875 
Q 42.328125 41.453125 36.8125 34.03125 
Q 31.296875 26.609375 12.84375 7.625 
L 35.25 7.625 
Q 39.9375 7.625 41.84375 8.734375 
Q 43.75 9.859375 46.140625 14.203125 
L 47.40625 13.625 
L 42 0 
L 2.984375 0 
z
" id="Times-Roman-50"/>
       </defs>
       <use xlink:href="#Times-Roman-8722"/>
       <use x="56.396484" xlink:href="#Times-Roman-48"/>
       <use x="106.396484" xlink:href="#Times-Roman-46"/>
       <use x="131.396484" xlink:href="#Times-Roman-48"/>
       <use x="181.396484" xlink:href="#Times-Roman-50"/>
      </g>
     </g>
    </g>
    <g id="xtick_3">
     <g id="line2d_3">
      <g>
       <use style="stroke:#000000;stroke-width:0.8;" x="221.4" xlink:href="#m824a33d415" y="252"/>
      </g>
     </g>
     <g id="text_3">
      <!-- 0.00 -->
      <g transform="translate(208.275 269.284375)scale(0.15 -0.15)">
       <use xlink:href="#Times-Roman-48"/>
       <use x="50" xlink:href="#Times-Roman-46"/>
       <use x="75" xlink:href="#Times-Roman-48"/>
       <use x="125" xlink:href="#Times-Roman-48"/>
      </g>
     </g>
    </g>
    <g id="xtick_4">
     <g id="line2d_4">
      <g>
       <use style="stroke:#000000;stroke-width:0.8;" x="275.76" xlink:href="#m824a33d415" y="252"/>
      </g>
     </g>
     <g id="text_4">
      <!-- 0.02 -->
      <g transform="translate(262.635 269.284375)scale(0.15 -0.15)">
       <use xlink:href="#Times-Roman-48"/>
       <use x="50" xlink:href="#Times-Roman-46"/>
       <use x="75" xlink:href="#Times-Roman-48"/>
       <use x="125" xlink:href="#Times-Roman-50"/>
      </g>
     </g>
    </g>
    <g id="xtick_5">
     <g id="line2d_5">
      <g>
       <use style="stroke:#000000;stroke-width:0.8;" x="330.12" xlink:href="#m824a33d415" y="252"/>
      </g>
     </g>
     <g id="text_5">
      <!-- 0.04 -->
      <g transform="translate(316.995 269.284375)scale(0.15 -0.15)">
       <use xlink:href="#Times-Roman-48"/>
       <use x="50" xlink:href="#Times-Roman-46"/>
       <use x="75" xlink:href="#Times-Roman-48"/>
       <use x="125" xlink:href="#Times-Roman-52"/>
      </g>
     </g>
    </g>
    <g id="text_6">
     <!-- Quantiles of 2nd Sample -->
     <g transform="translate(147.036328 286.835938)scale(0.15 -0.15)">
      <defs>
       <path d="M 14.3125 33.0625 
Q 14.3125 17.28125 20.5 9.734375 
Q 26.703125 2.203125 35.75 2.203125 
Q 44.578125 2.203125 50.84375 9.546875 
Q 57.125 16.890625 57.125 33.0625 
Q 57.125 49.421875 50.78125 56.6875 
Q 44.4375 63.96875 35.75 63.96875 
Q 26.765625 63.96875 20.53125 56.421875 
Q 14.3125 48.875 14.3125 33.0625 
z
M 2.984375 33.0625 
Q 2.984375 49.078125 13.03125 58.734375 
Q 22.265625 67.578125 35.75 67.578125 
Q 49.03125 67.578125 58.296875 58.84375 
Q 68.5 49.21875 68.5 33.0625 
Q 68.5 20.265625 62.015625 11.421875 
Q 54.984375 1.90625 42.09375 -0.59375 
Q 48.140625 -9.328125 56.734375 -12.984375 
Q 61.578125 -15.046875 69.78125 -16.015625 
L 69.78125 -17.828125 
L 65.671875 -17.828125 
Q 57.5625 -17.828125 51.28125 -16.5 
Q 45.015625 -15.1875 39.890625 -12.5 
Q 34.765625 -9.859375 30.390625 -5.171875 
Q 26.03125 -0.484375 25.53125 -0.25 
L 24.265625 0.34375 
Q 15.96875 4.203125 11.421875 9.125 
Q 2.984375 18.265625 2.984375 33.0625 
z
" id="Times-Roman-81"/>
       <path d="M 15.484375 45.21875 
L 15.484375 13.96875 
Q 15.484375 10.640625 16.40625 8.640625 
Q 18.21875 4.9375 23.046875 4.9375 
Q 26.375 4.9375 29.546875 7.125 
Q 31.34375 8.34375 33.203125 10.5 
L 33.203125 37.25 
Q 33.203125 41.015625 31.734375 42.1875 
Q 30.28125 43.359375 25.875 43.609375 
L 25.875 45.21875 
L 41.65625 45.21875 
L 41.65625 10.84375 
Q 41.65625 7.515625 42.84375 6.265625 
Q 44.046875 5.03125 47.90625 5.171875 
L 47.90625 3.8125 
Q 45.21875 3.078125 43.9375 2.703125 
Q 42.671875 2.34375 39.703125 1.375 
Q 38.421875 0.921875 34.125 -0.734375 
Q 33.890625 -0.734375 33.84375 -0.515625 
Q 33.796875 -0.296875 33.796875 0 
L 33.796875 7.859375 
Q 30.46875 3.90625 27.734375 2 
Q 23.578125 -0.921875 18.953125 -0.921875 
Q 14.703125 -0.921875 10.9375 2.09375 
Q 7.125 5.078125 7.125 12.109375 
L 7.125 37.453125 
Q 7.125 41.359375 5.46875 42.671875 
Q 4.390625 43.5 0.875 43.84375 
L 0.875 45.21875 
z
M 25.046875 45.796875 
z
" id="Times-Roman-117"/>
       <path d="M 28.65625 27.046875 
Q 23.046875 25.203125 19.390625 22.953125 
Q 12.359375 18.609375 12.359375 13.09375 
Q 12.359375 8.640625 15.28125 6.546875 
Q 17.1875 5.171875 19.53125 5.171875 
Q 22.75 5.171875 25.703125 6.984375 
Q 28.65625 8.796875 28.65625 11.578125 
z
M 3.65625 9.71875 
Q 3.65625 16.796875 10.75 21.53125 
Q 15.234375 24.46875 28.65625 29.5 
L 28.65625 33.640625 
Q 28.65625 38.625 27.6875 40.578125 
Q 26.03125 43.84375 20.796875 43.84375 
Q 18.3125 43.84375 16.0625 42.578125 
Q 13.8125 41.265625 13.8125 38.96875 
Q 13.8125 38.375 14.0625 36.984375 
Q 14.3125 35.59375 14.3125 35.203125 
Q 14.3125 32.46875 12.5 31.390625 
Q 11.46875 30.765625 10.0625 30.765625 
Q 7.859375 30.765625 6.6875 32.203125 
Q 5.515625 33.640625 5.515625 35.40625 
Q 5.515625 38.8125 9.734375 42.546875 
Q 13.96875 46.296875 22.125 46.296875 
Q 31.59375 46.296875 34.96875 40.140625 
Q 36.765625 36.765625 36.765625 30.328125 
L 36.765625 10.75 
Q 36.765625 7.90625 37.15625 6.84375 
Q 37.796875 4.9375 39.796875 4.9375 
Q 40.921875 4.9375 41.65625 5.265625 
Q 42.390625 5.609375 44.1875 6.9375 
L 44.1875 4.390625 
Q 42.625 2.484375 40.828125 1.265625 
Q 38.09375 -0.59375 35.25 -0.59375 
Q 31.9375 -0.59375 30.4375 1.5625 
Q 28.953125 3.71875 28.8125 6.6875 
Q 25.09375 3.46875 22.46875 1.90625 
Q 18.015625 -0.734375 14.015625 -0.734375 
Q 9.8125 -0.734375 6.734375 2.21875 
Q 3.65625 5.171875 3.65625 9.71875 
z
M 22.265625 46.296875 
z
" id="Times-Roman-97"/>
       <path d="M 1.8125 1.375 
Q 5.28125 1.8125 6.671875 3.09375 
Q 8.0625 4.390625 8.0625 8.890625 
L 8.0625 33.640625 
Q 8.0625 36.765625 7.46875 38.03125 
Q 6.546875 39.890625 3.65625 39.890625 
Q 3.21875 39.890625 2.75 39.84375 
Q 2.296875 39.796875 1.609375 39.703125 
L 1.609375 41.40625 
Q 3.609375 42 11.078125 44.4375 
L 15.671875 45.953125 
Q 16.015625 45.953125 16.078125 45.703125 
Q 16.15625 45.453125 16.15625 45.015625 
L 16.15625 37.84375 
Q 20.65625 42.046875 23.1875 43.609375 
Q 27 46 31.109375 46 
Q 34.421875 46 37.15625 44.09375 
Q 42.4375 40.375 42.4375 30.859375 
L 42.4375 8.0625 
Q 42.4375 4.546875 43.84375 2.984375 
Q 45.265625 1.421875 48.578125 1.375 
L 48.578125 0 
L 27.734375 0 
L 27.734375 1.375 
Q 31.296875 1.859375 32.703125 3.34375 
Q 34.125 4.828125 34.125 9.8125 
L 34.125 30.671875 
Q 34.125 34.859375 32.5625 37.609375 
Q 31 40.375 26.8125 40.375 
Q 23.921875 40.375 20.953125 38.421875 
Q 19.28125 37.3125 16.65625 34.71875 
L 16.65625 7.375 
Q 16.65625 3.859375 18.21875 2.65625 
Q 19.78125 1.46875 23.140625 1.375 
L 23.140625 0 
L 1.8125 0 
z
M 25.046875 46 
z
" id="Times-Roman-110"/>
       <path d="M 25.4375 45.015625 
L 25.4375 41.5 
L 15.484375 41.5 
L 15.375 13.375 
Q 15.375 9.671875 16.015625 7.765625 
Q 17.1875 4.390625 20.609375 4.390625 
Q 22.359375 4.390625 23.65625 5.21875 
Q 24.953125 6.0625 26.609375 7.859375 
L 27.875 6.78125 
L 26.8125 5.328125 
Q 24.265625 1.90625 21.4375 0.484375 
Q 18.609375 -0.921875 15.96875 -0.921875 
Q 10.203125 -0.921875 8.15625 4.203125 
Q 7.03125 6.984375 7.03125 11.921875 
L 7.03125 41.5 
L 1.703125 41.5 
Q 1.46875 41.65625 1.34375 41.796875 
Q 1.21875 41.9375 1.21875 42.1875 
Q 1.21875 42.671875 1.4375 42.9375 
Q 1.65625 43.21875 2.828125 44.1875 
Q 6.203125 46.96875 7.6875 48.703125 
Q 9.1875 50.4375 14.703125 57.859375 
Q 15.328125 57.859375 15.453125 57.765625 
Q 15.578125 57.671875 15.578125 57.03125 
L 15.578125 45.015625 
z
" id="Times-Roman-116"/>
       <path d="M 8.203125 63.03125 
Q 8.203125 65.140625 9.671875 66.65625 
Q 11.140625 68.171875 13.28125 68.171875 
Q 15.375 68.171875 16.859375 66.671875 
Q 18.359375 65.1875 18.359375 63.03125 
Q 18.359375 60.9375 16.859375 59.4375 
Q 15.375 57.953125 13.28125 57.953125 
Q 11.140625 57.953125 9.671875 59.4375 
Q 8.203125 60.9375 8.203125 63.03125 
z
M 1.953125 1.375 
Q 7.171875 1.859375 8.53125 3.140625 
Q 9.90625 4.4375 9.90625 10.15625 
L 9.90625 33.453125 
Q 9.90625 36.625 9.46875 37.84375 
Q 8.734375 39.84375 6.390625 39.84375 
Q 5.859375 39.84375 5.34375 39.75 
Q 4.828125 39.65625 2.390625 38.96875 
L 2.390625 40.484375 
L 4.5 41.15625 
Q 13.03125 43.953125 16.40625 45.359375 
Q 17.78125 45.953125 18.171875 45.953125 
Q 18.265625 45.609375 18.265625 45.21875 
L 18.265625 10.15625 
Q 18.265625 4.59375 19.609375 3.171875 
Q 20.953125 1.765625 25.6875 1.375 
L 25.6875 0 
L 1.953125 0 
z
" id="Times-Roman-105"/>
       <path d="M 2.046875 1.375 
Q 6.59375 1.8125 8.203125 3.203125 
Q 9.8125 4.59375 9.8125 8.640625 
L 9.8125 56.34375 
Q 9.8125 59.578125 9.28125 60.796875 
Q 8.296875 62.84375 5.328125 62.84375 
Q 4.640625 62.84375 3.828125 62.6875 
Q 3.03125 62.546875 1.8125 62.25 
L 1.8125 63.875 
Q 8.40625 65.625 17.671875 68.5625 
Q 18.015625 68.5625 18.09375 68.265625 
Q 18.171875 67.96875 18.171875 67 
L 18.171875 8.453125 
Q 18.171875 4.203125 19.625 2.953125 
Q 21.09375 1.703125 25.6875 1.375 
L 25.6875 0 
L 2.046875 0 
z
" id="Times-Roman-108"/>
       <path d="M 22.90625 45.796875 
Q 29.78125 45.796875 34.953125 41.03125 
Q 40.140625 36.28125 40.140625 27.546875 
L 9.125 27.546875 
Q 9.625 16.21875 14.25 11.03125 
Q 18.890625 5.859375 25.25 5.859375 
Q 30.375 5.859375 33.890625 8.546875 
Q 37.40625 11.234375 40.375 16.15625 
L 42.09375 15.578125 
Q 40.09375 9.375 34.59375 4.09375 
Q 29.109375 -1.171875 21.140625 -1.171875 
Q 11.96875 -1.171875 6.953125 5.765625 
Q 1.953125 12.703125 1.953125 21.734375 
Q 1.953125 31.546875 7.765625 38.671875 
Q 13.578125 45.796875 22.90625 45.796875 
z
M 20.0625 42.234375 
Q 14.5 42.234375 11.578125 37.3125 
Q 10.015625 34.671875 9.328125 30.671875 
L 29.9375 30.671875 
Q 29.390625 35.546875 28.078125 37.9375 
Q 25.6875 42.234375 20.0625 42.234375 
z
M 22.265625 45.796875 
z
" id="Times-Roman-101"/>
       <path d="M 5.171875 15.375 
L 6.78125 15.375 
Q 7.90625 9.8125 9.8125 6.84375 
Q 13.234375 1.375 19.828125 1.375 
Q 23.484375 1.375 25.609375 3.390625 
Q 27.734375 5.421875 27.734375 8.640625 
Q 27.734375 10.6875 26.515625 12.59375 
Q 25.296875 14.5 22.21875 16.3125 
L 16.75 19.4375 
Q 10.75 22.65625 7.90625 25.921875 
Q 5.078125 29.203125 5.078125 33.640625 
Q 5.078125 39.109375 8.984375 42.625 
Q 12.890625 46.140625 18.796875 46.140625 
Q 21.390625 46.140625 24.484375 45.15625 
Q 27.59375 44.1875 27.984375 44.1875 
Q 28.859375 44.1875 29.25 44.421875 
Q 29.640625 44.671875 29.9375 45.21875 
L 31.109375 45.21875 
L 31.453125 31.59375 
L 29.9375 31.59375 
Q 28.953125 36.328125 27.296875 38.96875 
Q 24.265625 43.84375 18.5625 43.84375 
Q 15.140625 43.84375 13.1875 41.75 
Q 11.234375 39.65625 11.234375 36.8125 
Q 11.234375 32.328125 17.96875 28.8125 
L 24.421875 25.34375 
Q 34.8125 19.671875 34.8125 12.15625 
Q 34.8125 6.390625 30.484375 2.734375 
Q 26.171875 -0.921875 19.1875 -0.921875 
Q 16.265625 -0.921875 12.546875 0.046875 
Q 8.84375 1.03125 8.15625 1.03125 
Q 7.5625 1.03125 7.125 0.609375 
Q 6.6875 0.203125 6.453125 -0.390625 
L 5.171875 -0.390625 
z
M 19.484375 46.140625 
z
" id="Times-Roman-115"/>
       <path id="Times-Roman-32"/>
       <path d="M 2.546875 22.65625 
Q 2.546875 32.375 8.71875 39.078125 
Q 14.890625 45.796875 24.609375 45.796875 
Q 34.28125 45.796875 40.625 39.453125 
Q 46.96875 33.109375 46.96875 22.5625 
Q 46.96875 12.84375 40.8125 5.65625 
Q 34.671875 -1.515625 24.90625 -1.515625 
Q 15.53125 -1.515625 9.03125 5.359375 
Q 2.546875 12.25 2.546875 22.65625 
z
M 23.25 42.875 
Q 19.390625 42.875 16.546875 40.328125 
Q 11.671875 35.890625 11.671875 25 
Q 11.671875 16.3125 15.59375 8.78125 
Q 19.53125 1.265625 26.515625 1.265625 
Q 31.984375 1.265625 34.9375 6.296875 
Q 37.890625 11.328125 37.890625 19.484375 
Q 37.890625 27.9375 34.125 35.40625 
Q 30.375 42.875 23.25 42.875 
z
M 25.046875 45.796875 
z
" id="Times-Roman-111"/>
       <path d="M 1.953125 1.375 
Q 7.125 1.609375 8.765625 3.296875 
Q 10.40625 4.984375 10.40625 10.40625 
L 10.40625 41.75 
L 2.046875 41.75 
L 2.046875 45.015625 
L 10.40625 45.015625 
Q 10.40625 52.734375 12.5 58.0625 
Q 16.5 68.265625 27.203125 68.265625 
Q 31.5 68.265625 34.890625 66.546875 
Q 38.28125 64.84375 38.28125 61.96875 
Q 38.28125 60.359375 37.109375 59.078125 
Q 35.9375 57.8125 34.28125 57.8125 
Q 32.859375 57.8125 31.828125 58.65625 
Q 30.8125 59.515625 29.390625 61.671875 
L 28.5625 62.9375 
Q 27.875 63.96875 26.953125 64.671875 
Q 26.03125 65.375 24.359375 65.375 
Q 20.65625 65.375 19.34375 61.71875 
Q 18.609375 59.765625 18.609375 56.59375 
L 18.609375 45.015625 
L 30.859375 45.015625 
L 30.859375 41.75 
L 18.703125 41.75 
L 18.703125 10.40625 
Q 18.703125 4.890625 20.1875 3.34375 
Q 21.6875 1.8125 27.984375 1.375 
L 27.984375 0 
L 1.953125 0 
z
" id="Times-Roman-102"/>
       <path d="M 23.6875 46.140625 
Q 27.25 46.140625 30.21875 44.578125 
Q 32.171875 43.5625 33.984375 41.75 
L 33.984375 57.28125 
Q 33.984375 60.25 33.328125 61.375 
Q 32.671875 62.5 30.171875 62.5 
Q 29.59375 62.5 29.15625 62.453125 
Q 28.71875 62.40625 27.203125 62.25 
L 27.203125 63.875 
L 31.203125 64.890625 
Q 33.40625 65.484375 35.59375 66.109375 
Q 37.796875 66.75 39.453125 67.328125 
Q 40.234375 67.578125 42.046875 68.265625 
L 42.328125 68.171875 
L 42.234375 63.03125 
Q 42.1875 60.25 42.140625 57.296875 
Q 42.09375 54.34375 42.09375 51.46875 
L 42 11.578125 
Q 42 8.40625 42.78125 7.125 
Q 43.5625 5.859375 46.921875 5.859375 
Q 47.46875 5.859375 48 5.875 
Q 48.53125 5.90625 49.078125 6 
L 49.078125 4.390625 
Q 48.78125 4.296875 42 1.953125 
L 34.328125 -0.921875 
L 33.984375 -0.484375 
L 33.984375 5.515625 
Q 31.25 2.546875 29.25 1.265625 
Q 25.6875 -0.921875 21 -0.921875 
Q 12.703125 -0.921875 7.546875 5.5 
Q 2.390625 11.921875 2.390625 20.359375 
Q 2.390625 30.953125 8.5625 38.546875 
Q 14.75 46.140625 23.6875 46.140625 
z
M 25.484375 4.34375 
Q 29.296875 4.34375 31.640625 6.59375 
Q 33.984375 8.84375 33.984375 10.84375 
L 33.984375 31.78125 
Q 33.984375 38.140625 30.59375 40.75 
Q 27.203125 43.359375 23.96875 43.359375 
Q 17.828125 43.359375 14.40625 37.90625 
Q 10.984375 32.46875 10.984375 24.515625 
Q 10.984375 16.65625 14.625 10.5 
Q 18.265625 4.34375 25.484375 4.34375 
z
" id="Times-Roman-100"/>
       <path d="M 6.453125 20.125 
Q 8.984375 13.375 12.40625 9.375 
Q 18.359375 2.390625 27.203125 2.390625 
Q 31.984375 2.390625 35.46875 5.421875 
Q 38.96875 8.453125 38.96875 13.875 
Q 38.96875 18.75 35.453125 22.359375 
Q 33.15625 24.65625 25.78125 29.25 
L 17.234375 34.578125 
Q 13.375 37.015625 11.078125 39.5 
Q 6.84375 44.234375 6.84375 49.953125 
Q 6.84375 57.515625 11.859375 62.546875 
Q 16.890625 67.578125 25.203125 67.578125 
Q 28.609375 67.578125 33.421875 65.890625 
Q 38.234375 64.203125 38.921875 64.203125 
Q 40.765625 64.203125 41.46875 65.078125 
Q 42.1875 65.96875 42.578125 67.578125 
L 44.625 67.578125 
L 46.828125 46.296875 
L 44.4375 46.296875 
Q 42 55.90625 36.59375 59.71875 
Q 31.203125 63.53125 25.921875 63.53125 
Q 21.828125 63.53125 18.765625 61.109375 
Q 15.71875 58.6875 15.71875 54.390625 
Q 15.71875 50.53125 18.0625 47.796875 
Q 20.40625 45.015625 25.34375 42 
L 34.125 36.578125 
Q 42.390625 31.5 45.75 27.25 
Q 49.078125 22.953125 49.078125 17.09375 
Q 49.078125 9.234375 43.140625 3.953125 
Q 37.203125 -1.3125 27.984375 -1.3125 
Q 23.34375 -1.3125 18.28125 0.4375 
Q 13.234375 2.203125 12.5 2.203125 
Q 10.75 2.203125 10.125 1.125 
Q 9.515625 0.046875 9.328125 -1.171875 
L 7.125 -1.171875 
L 4.15625 20.125 
z
M 27.828125 67.578125 
z
" id="Times-Roman-83"/>
       <path d="M 1.609375 1.265625 
Q 5.421875 1.609375 6.6875 2.546875 
Q 8.640625 3.953125 8.640625 8.203125 
L 8.640625 33.453125 
Q 8.640625 37.0625 7.6875 38.1875 
Q 6.734375 39.3125 4.546875 39.3125 
Q 3.515625 39.3125 3 39.203125 
Q 2.484375 39.109375 1.8125 38.875 
L 1.8125 40.578125 
L 5.328125 41.75 
Q 7.234375 42.390625 11.578125 44.046875 
Q 15.921875 45.703125 16.15625 45.703125 
Q 16.40625 45.703125 16.453125 45.453125 
Q 16.5 45.21875 16.5 44.53125 
L 16.5 37.9375 
Q 21.34375 42.328125 24.859375 44.015625 
Q 28.375 45.703125 32.078125 45.703125 
Q 37.109375 45.703125 40.09375 42.28125 
Q 41.65625 40.4375 42.671875 37.25 
Q 46.296875 40.921875 48.96875 42.671875 
Q 53.609375 45.703125 58.453125 45.703125 
Q 66.3125 45.703125 68.953125 39.3125 
Q 70.453125 35.6875 70.453125 27.875 
L 70.453125 7.625 
Q 70.453125 4.15625 71.984375 2.90625 
Q 73.53125 1.65625 77.546875 1.265625 
L 77.546875 0 
L 55.515625 0 
L 55.515625 1.375 
Q 59.765625 1.765625 61.109375 3.078125 
Q 62.453125 4.390625 62.453125 8.453125 
L 62.453125 29.5 
Q 62.453125 34.234375 61.421875 36.46875 
Q 59.625 40.484375 54.34375 40.484375 
Q 51.171875 40.484375 48.046875 38.375 
Q 46.234375 37.15625 43.609375 34.46875 
L 43.609375 9.46875 
Q 43.609375 5.515625 45 3.46875 
Q 46.390625 1.421875 50.875 1.265625 
L 50.875 0 
L 28.46875 0 
L 28.46875 1.265625 
Q 33.109375 1.859375 34.375 3.515625 
Q 35.640625 5.171875 35.640625 11.671875 
L 35.640625 25.34375 
Q 35.640625 32.859375 34.671875 35.6875 
Q 33.0625 40.484375 27.828125 40.484375 
Q 24.859375 40.484375 21.96875 38.84375 
Q 19.09375 37.203125 16.890625 34.578125 
L 16.890625 7.859375 
Q 16.890625 4.15625 18.1875 2.734375 
Q 19.484375 1.3125 23.828125 1.265625 
L 23.828125 0 
L 1.609375 0 
z
" id="Times-Roman-109"/>
       <path d="M 15.96875 8.984375 
Q 17.234375 5.671875 19.75 4.03125 
Q 22.265625 2.390625 25.6875 2.390625 
Q 30.953125 2.390625 34.6875 7.640625 
Q 38.421875 12.890625 38.421875 22.265625 
Q 38.421875 31.25 34.546875 35.6875 
Q 30.671875 40.140625 25.53125 40.140625 
Q 21.921875 40.140625 18.9375 37.90625 
Q 15.96875 35.6875 15.96875 33.546875 
L 15.96875 8.984375 
z
M 0.4375 -20.171875 
Q 5.03125 -19.875 6.265625 -18.203125 
Q 7.515625 -16.546875 7.515625 -12.984375 
L 7.515625 33.890625 
Q 7.515625 37.59375 6.609375 38.640625 
Q 5.71875 39.703125 3.21875 39.703125 
Q 2.6875 39.703125 2.21875 39.640625 
Q 1.765625 39.59375 0.875 39.453125 
L 0.875 41.0625 
L 5.515625 42.578125 
Q 5.765625 42.625 15.328125 45.953125 
Q 15.578125 45.953125 15.703125 45.734375 
Q 15.828125 45.515625 15.828125 45.21875 
L 15.828125 38.625 
Q 19.046875 41.84375 21.484375 43.40625 
Q 25.875 46.140625 30.515625 46.140625 
Q 37.25 46.140625 42.109375 40.40625 
Q 46.96875 34.671875 46.96875 24.703125 
Q 46.96875 14.9375 41.125 6.96875 
Q 35.296875 -0.984375 26.46875 -0.984375 
Q 23.734375 -0.984375 21.734375 -0.296875 
Q 18.609375 0.734375 15.96875 3.46875 
L 15.96875 -12.5 
Q 15.96875 -17.4375 17.578125 -18.546875 
Q 19.1875 -19.671875 24.609375 -20.0625 
L 24.609375 -21.78125 
L 0.4375 -21.78125 
z
" id="Times-Roman-112"/>
      </defs>
      <use xlink:href="#Times-Roman-81"/>
      <use x="72.216797" xlink:href="#Times-Roman-117"/>
      <use x="122.216797" xlink:href="#Times-Roman-97"/>
      <use x="166.601562" xlink:href="#Times-Roman-110"/>
      <use x="216.601562" xlink:href="#Times-Roman-116"/>
      <use x="244.384766" xlink:href="#Times-Roman-105"/>
      <use x="272.167969" xlink:href="#Times-Roman-108"/>
      <use x="299.951172" xlink:href="#Times-Roman-101"/>
      <use x="344.335938" xlink:href="#Times-Roman-115"/>
      <use x="383.251953" xlink:href="#Times-Roman-32"/>
      <use x="408.251953" xlink:href="#Times-Roman-111"/>
      <use x="458.251953" xlink:href="#Times-Roman-102"/>
      <use x="491.552734" xlink:href="#Times-Roman-32"/>
      <use x="516.552734" xlink:href="#Times-Roman-50"/>
      <use x="566.552734" xlink:href="#Times-Roman-110"/>
      <use x="616.552734" xlink:href="#Times-Roman-100"/>
      <use x="666.552734" xlink:href="#Times-Roman-32"/>
      <use x="691.552734" xlink:href="#Times-Roman-83"/>
      <use x="747.167969" xlink:href="#Times-Roman-97"/>
      <use x="791.552734" xlink:href="#Times-Roman-109"/>
      <use x="869.335938" xlink:href="#Times-Roman-112"/>
      <use x="919.335938" xlink:href="#Times-Roman-108"/>
      <use x="947.119141" xlink:href="#Times-Roman-101"/>
     </g>
    </g>
   </g>
   <g id="matplotlib.axis_2">
    <g id="ytick_1">
     <g id="line2d_6">
      <defs>
       <path d="M 0 0 
L -3.5 0 
" id="mb2f7333115" style="stroke:#000000;stroke-width:0.8;"/>
      </defs>
      <g>
       <use style="stroke:#000000;stroke-width:0.8;" x="112.68" xlink:href="#mb2f7333115" y="252"/>
      </g>
     </g>
     <g id="text_7">
      <!-- −0.04 -->
      <g transform="translate(70.971406 257.142187)scale(0.15 -0.15)">
       <use xlink:href="#Times-Roman-8722"/>
       <use x="56.396484" xlink:href="#Times-Roman-48"/>
       <use x="106.396484" xlink:href="#Times-Roman-46"/>
       <use x="131.396484" xlink:href="#Times-Roman-48"/>
       <use x="181.396484" xlink:href="#Times-Roman-52"/>
      </g>
     </g>
    </g>
    <g id="ytick_2">
     <g id="line2d_7">
      <g>
       <use style="stroke:#000000;stroke-width:0.8;" x="112.68" xlink:href="#mb2f7333115" y="197.64"/>
      </g>
     </g>
     <g id="text_8">
      <!-- −0.02 -->
      <g transform="translate(70.971406 202.782188)scale(0.15 -0.15)">
       <use xlink:href="#Times-Roman-8722"/>
       <use x="56.396484" xlink:href="#Times-Roman-48"/>
       <use x="106.396484" xlink:href="#Times-Roman-46"/>
       <use x="131.396484" xlink:href="#Times-Roman-48"/>
       <use x="181.396484" xlink:href="#Times-Roman-50"/>
      </g>
     </g>
    </g>
    <g id="ytick_3">
     <g id="line2d_8">
      <g>
       <use style="stroke:#000000;stroke-width:0.8;" x="112.68" xlink:href="#mb2f7333115" y="143.28"/>
      </g>
     </g>
     <g id="text_9">
      <!-- 0.00 -->
      <g transform="translate(79.43 148.422188)scale(0.15 -0.15)">
       <use xlink:href="#Times-Roman-48"/>
       <use x="50" xlink:href="#Times-Roman-46"/>
       <use x="75" xlink:href="#Times-Roman-48"/>
       <use x="125" xlink:href="#Times-Roman-48"/>
      </g>
     </g>
    </g>
    <g id="ytick_4">
     <g id="line2d_9">
      <g>
       <use style="stroke:#000000;stroke-width:0.8;" x="112.68" xlink:href="#mb2f7333115" y="88.92"/>
      </g>
     </g>
     <g id="text_10">
      <!-- 0.02 -->
      <g transform="translate(79.43 94.062188)scale(0.15 -0.15)">
       <use xlink:href="#Times-Roman-48"/>
       <use x="50" xlink:href="#Times-Roman-46"/>
       <use x="75" xlink:href="#Times-Roman-48"/>
       <use x="125" xlink:href="#Times-Roman-50"/>
      </g>
     </g>
    </g>
    <g id="ytick_5">
     <g id="line2d_10">
      <g>
       <use style="stroke:#000000;stroke-width:0.8;" x="112.68" xlink:href="#mb2f7333115" y="34.56"/>
      </g>
     </g>
     <g id="text_11">
      <!-- 0.04 -->
      <g transform="translate(79.43 39.702188)scale(0.15 -0.15)">
       <use xlink:href="#Times-Roman-48"/>
       <use x="50" xlink:href="#Times-Roman-46"/>
       <use x="75" xlink:href="#Times-Roman-48"/>
       <use x="125" xlink:href="#Times-Roman-52"/>
      </g>
     </g>
    </g>
    <g id="text_12">
     <!-- Quantiles of 1st Sample -->
     <g transform="translate(63.704219 215.146406)rotate(-90)scale(0.15 -0.15)">
      <defs>
       <path d="M 29.59375 67.09375 
Q 29.78125 66.84375 29.796875 66.71875 
Q 29.828125 66.609375 29.828125 66.15625 
L 29.828125 7.375 
Q 29.828125 3.609375 31.828125 2.578125 
Q 33.84375 1.5625 39.3125 1.375 
L 39.3125 0 
L 11.765625 0 
L 11.765625 1.46875 
Q 17.671875 1.765625 19.484375 3.078125 
Q 21.296875 4.390625 21.296875 8.796875 
L 21.296875 54 
Q 21.296875 56.34375 20.703125 57.5625 
Q 20.125 58.796875 18.171875 58.796875 
Q 16.890625 58.796875 14.859375 58.078125 
Q 12.84375 57.375 11.078125 56.59375 
L 11.078125 57.953125 
L 29 67.09375 
L 29.59375 67.09375 
z
" id="Times-Roman-49"/>
      </defs>
      <use xlink:href="#Times-Roman-81"/>
      <use x="72.216797" xlink:href="#Times-Roman-117"/>
      <use x="122.216797" xlink:href="#Times-Roman-97"/>
      <use x="166.601562" xlink:href="#Times-Roman-110"/>
      <use x="216.601562" xlink:href="#Times-Roman-116"/>
      <use x="244.384766" xlink:href="#Times-Roman-105"/>
      <use x="272.167969" xlink:href="#Times-Roman-108"/>
      <use x="299.951172" xlink:href="#Times-Roman-101"/>
      <use x="344.335938" xlink:href="#Times-Roman-115"/>
      <use x="383.251953" xlink:href="#Times-Roman-32"/>
      <use x="408.251953" xlink:href="#Times-Roman-111"/>
      <use x="458.251953" xlink:href="#Times-Roman-102"/>
      <use x="491.552734" xlink:href="#Times-Roman-32"/>
      <use x="516.552734" xlink:href="#Times-Roman-49"/>
      <use x="566.552734" xlink:href="#Times-Roman-115"/>
      <use x="605.46875" xlink:href="#Times-Roman-116"/>
      <use x="633.251953" xlink:href="#Times-Roman-32"/>
      <use x="658.251953" xlink:href="#Times-Roman-83"/>
      <use x="713.867188" xlink:href="#Times-Roman-97"/>
      <use x="758.251953" xlink:href="#Times-Roman-109"/>
      <use x="836.035156" xlink:href="#Times-Roman-112"/>
      <use x="886.035156" xlink:href="#Times-Roman-108"/>
      <use x="913.818359" xlink:href="#Times-Roman-101"/>
     </g>
    </g>
   </g>
   <g id="line2d_11">
    <defs>
     <path d="M 0 3 
C 0.795609 3 1.55874 2.683901 2.12132 2.12132 
C 2.683901 1.55874 3 0.795609 3 0 
C 3 -0.795609 2.683901 -1.55874 2.12132 -2.12132 
C 1.55874 -2.683901 0.795609 -3 0 -3 
C -0.795609 -3 -1.55874 -2.683901 -2.12132 -2.12132 
C -2.683901 -1.55874 -3 -0.795609 -3 0 
C -3 0.795609 -2.683901 1.55874 -2.12132 2.12132 
C -1.55874 2.683901 -0.795609 3 0 3 
z
" id="mef71649b60" style="stroke:#4c72b0;"/>
    </defs>
    <g clip-path="url(#p446c982a41)">
     <use style="fill:#4c72b0;stroke:#4c72b0;" x="134.772548" xlink:href="#mef71649b60" y="257.008027"/>
    </g>
   </g>
   <g id="line2d_12">
    <g clip-path="url(#p446c982a41)">
     <use style="fill:#4c72b0;stroke:#4c72b0;" x="156.414492" xlink:href="#mef71649b60" y="247.268104"/>
    </g>
   </g>
   <g id="line2d_13">
    <g clip-path="url(#p446c982a41)">
     <use style="fill:#4c72b0;stroke:#4c72b0;" x="165.704544" xlink:href="#mef71649b60" y="212.547924"/>
    </g>
   </g>
   <g id="line2d_14">
    <g clip-path="url(#p446c982a41)">
     <use style="fill:#4c72b0;stroke:#4c72b0;" x="172.329099" xlink:href="#mef71649b60" y="204.681474"/>
    </g>
   </g>
   <g id="line2d_15">
    <g clip-path="url(#p446c982a41)">
     <use style="fill:#4c72b0;stroke:#4c72b0;" x="176.512168" xlink:href="#mef71649b60" y="203.521934"/>
    </g>
   </g>
   <g id="line2d_16">
    <g clip-path="url(#p446c982a41)">
     <use style="fill:#4c72b0;stroke:#4c72b0;" x="179.807466" xlink:href="#mef71649b60" y="201.544897"/>
    </g>
   </g>
   <g id="line2d_17">
    <g clip-path="url(#p446c982a41)">
     <use style="fill:#4c72b0;stroke:#4c72b0;" x="182.86788" xlink:href="#mef71649b60" y="200.873896"/>
    </g>
   </g>
   <g id="line2d_18">
    <g clip-path="url(#p446c982a41)">
     <use style="fill:#4c72b0;stroke:#4c72b0;" x="185.187749" xlink:href="#mef71649b60" y="190.647363"/>
    </g>
   </g>
   <g id="line2d_19">
    <g clip-path="url(#p446c982a41)">
     <use style="fill:#4c72b0;stroke:#4c72b0;" x="187.263344" xlink:href="#mef71649b60" y="182.163818"/>
    </g>
   </g>
   <g id="line2d_20">
    <g clip-path="url(#p446c982a41)">
     <use style="fill:#4c72b0;stroke:#4c72b0;" x="189.16595" xlink:href="#mef71649b60" y="180.842008"/>
    </g>
   </g>
   <g id="line2d_21">
    <g clip-path="url(#p446c982a41)">
     <use style="fill:#4c72b0;stroke:#4c72b0;" x="190.94455" xlink:href="#mef71649b60" y="179.893873"/>
    </g>
   </g>
   <g id="line2d_22">
    <g clip-path="url(#p446c982a41)">
     <use style="fill:#4c72b0;stroke:#4c72b0;" x="192.458174" xlink:href="#mef71649b60" y="179.739159"/>
    </g>
   </g>
   <g id="line2d_23">
    <g clip-path="url(#p446c982a41)">
     <use style="fill:#4c72b0;stroke:#4c72b0;" x="193.781955" xlink:href="#mef71649b60" y="178.038631"/>
    </g>
   </g>
   <g id="line2d_24">
    <g clip-path="url(#p446c982a41)">
     <use style="fill:#4c72b0;stroke:#4c72b0;" x="195.162479" xlink:href="#mef71649b60" y="174.894614"/>
    </g>
   </g>
   <g id="line2d_25">
    <g clip-path="url(#p446c982a41)">
     <use style="fill:#4c72b0;stroke:#4c72b0;" x="196.46494" xlink:href="#mef71649b60" y="173.606917"/>
    </g>
   </g>
   <g id="line2d_26">
    <g clip-path="url(#p446c982a41)">
     <use style="fill:#4c72b0;stroke:#4c72b0;" x="197.588086" xlink:href="#mef71649b60" y="173.065591"/>
    </g>
   </g>
   <g id="line2d_27">
    <g clip-path="url(#p446c982a41)">
     <use style="fill:#4c72b0;stroke:#4c72b0;" x="198.546527" xlink:href="#mef71649b60" y="166.767832"/>
    </g>
   </g>
   <g id="line2d_28">
    <g clip-path="url(#p446c982a41)">
     <use style="fill:#4c72b0;stroke:#4c72b0;" x="199.523625" xlink:href="#mef71649b60" y="166.581895"/>
    </g>
   </g>
   <g id="line2d_29">
    <g clip-path="url(#p446c982a41)">
     <use style="fill:#4c72b0;stroke:#4c72b0;" x="200.56706" xlink:href="#mef71649b60" y="165.625201"/>
    </g>
   </g>
   <g id="line2d_30">
    <g clip-path="url(#p446c982a41)">
     <use style="fill:#4c72b0;stroke:#4c72b0;" x="201.464398" xlink:href="#mef71649b60" y="162.936443"/>
    </g>
   </g>
   <g id="line2d_31">
    <g clip-path="url(#p446c982a41)">
     <use style="fill:#4c72b0;stroke:#4c72b0;" x="202.399143" xlink:href="#mef71649b60" y="162.04326"/>
    </g>
   </g>
   <g id="line2d_32">
    <g clip-path="url(#p446c982a41)">
     <use style="fill:#4c72b0;stroke:#4c72b0;" x="203.299678" xlink:href="#mef71649b60" y="161.940851"/>
    </g>
   </g>
   <g id="line2d_33">
    <g clip-path="url(#p446c982a41)">
     <use style="fill:#4c72b0;stroke:#4c72b0;" x="204.089568" xlink:href="#mef71649b60" y="161.639373"/>
    </g>
   </g>
   <g id="line2d_34">
    <g clip-path="url(#p446c982a41)">
     <use style="fill:#4c72b0;stroke:#4c72b0;" x="204.912036" xlink:href="#mef71649b60" y="160.631469"/>
    </g>
   </g>
   <g id="line2d_35">
    <g clip-path="url(#p446c982a41)">
     <use style="fill:#4c72b0;stroke:#4c72b0;" x="205.630644" xlink:href="#mef71649b60" y="160.58205"/>
    </g>
   </g>
   <g id="line2d_36">
    <g clip-path="url(#p446c982a41)">
     <use style="fill:#4c72b0;stroke:#4c72b0;" x="206.387337" xlink:href="#mef71649b60" y="159.20345"/>
    </g>
   </g>
   <g id="line2d_37">
    <g clip-path="url(#p446c982a41)">
     <use style="fill:#4c72b0;stroke:#4c72b0;" x="207.095169" xlink:href="#mef71649b60" y="158.888338"/>
    </g>
   </g>
   <g id="line2d_38">
    <g clip-path="url(#p446c982a41)">
     <use style="fill:#4c72b0;stroke:#4c72b0;" x="207.750535" xlink:href="#mef71649b60" y="158.883957"/>
    </g>
   </g>
   <g id="line2d_39">
    <g clip-path="url(#p446c982a41)">
     <use style="fill:#4c72b0;stroke:#4c72b0;" x="208.500874" xlink:href="#mef71649b60" y="158.339584"/>
    </g>
   </g>
   <g id="line2d_40">
    <g clip-path="url(#p446c982a41)">
     <use style="fill:#4c72b0;stroke:#4c72b0;" x="209.116626" xlink:href="#mef71649b60" y="158.260704"/>
    </g>
   </g>
   <g id="line2d_41">
    <g clip-path="url(#p446c982a41)">
     <use style="fill:#4c72b0;stroke:#4c72b0;" x="209.75283" xlink:href="#mef71649b60" y="156.908428"/>
    </g>
   </g>
   <g id="line2d_42">
    <g clip-path="url(#p446c982a41)">
     <use style="fill:#4c72b0;stroke:#4c72b0;" x="210.351263" xlink:href="#mef71649b60" y="154.245104"/>
    </g>
   </g>
   <g id="line2d_43">
    <g clip-path="url(#p446c982a41)">
     <use style="fill:#4c72b0;stroke:#4c72b0;" x="210.906268" xlink:href="#mef71649b60" y="154.237666"/>
    </g>
   </g>
   <g id="line2d_44">
    <g clip-path="url(#p446c982a41)">
     <use style="fill:#4c72b0;stroke:#4c72b0;" x="211.439611" xlink:href="#mef71649b60" y="152.876478"/>
    </g>
   </g>
   <g id="line2d_45">
    <g clip-path="url(#p446c982a41)">
     <use style="fill:#4c72b0;stroke:#4c72b0;" x="211.984208" xlink:href="#mef71649b60" y="151.816392"/>
    </g>
   </g>
   <g id="line2d_46">
    <g clip-path="url(#p446c982a41)">
     <use style="fill:#4c72b0;stroke:#4c72b0;" x="212.51794" xlink:href="#mef71649b60" y="151.219057"/>
    </g>
   </g>
   <g id="line2d_47">
    <g clip-path="url(#p446c982a41)">
     <use style="fill:#4c72b0;stroke:#4c72b0;" x="213.048232" xlink:href="#mef71649b60" y="151.137194"/>
    </g>
   </g>
   <g id="line2d_48">
    <g clip-path="url(#p446c982a41)">
     <use style="fill:#4c72b0;stroke:#4c72b0;" x="213.56036" xlink:href="#mef71649b60" y="150.443738"/>
    </g>
   </g>
   <g id="line2d_49">
    <g clip-path="url(#p446c982a41)">
     <use style="fill:#4c72b0;stroke:#4c72b0;" x="213.998805" xlink:href="#mef71649b60" y="149.694489"/>
    </g>
   </g>
   <g id="line2d_50">
    <g clip-path="url(#p446c982a41)">
     <use style="fill:#4c72b0;stroke:#4c72b0;" x="214.474307" xlink:href="#mef71649b60" y="149.4124"/>
    </g>
   </g>
   <g id="line2d_51">
    <g clip-path="url(#p446c982a41)">
     <use style="fill:#4c72b0;stroke:#4c72b0;" x="214.947681" xlink:href="#mef71649b60" y="149.064967"/>
    </g>
   </g>
   <g id="line2d_52">
    <g clip-path="url(#p446c982a41)">
     <use style="fill:#4c72b0;stroke:#4c72b0;" x="215.397358" xlink:href="#mef71649b60" y="148.784664"/>
    </g>
   </g>
   <g id="line2d_53">
    <g clip-path="url(#p446c982a41)">
     <use style="fill:#4c72b0;stroke:#4c72b0;" x="215.839358" xlink:href="#mef71649b60" y="148.29659"/>
    </g>
   </g>
   <g id="line2d_54">
    <g clip-path="url(#p446c982a41)">
     <use style="fill:#4c72b0;stroke:#4c72b0;" x="216.255439" xlink:href="#mef71649b60" y="147.676902"/>
    </g>
   </g>
   <g id="line2d_55">
    <g clip-path="url(#p446c982a41)">
     <use style="fill:#4c72b0;stroke:#4c72b0;" x="216.640954" xlink:href="#mef71649b60" y="146.744898"/>
    </g>
   </g>
   <g id="line2d_56">
    <g clip-path="url(#p446c982a41)">
     <use style="fill:#4c72b0;stroke:#4c72b0;" x="217.044126" xlink:href="#mef71649b60" y="146.304715"/>
    </g>
   </g>
   <g id="line2d_57">
    <g clip-path="url(#p446c982a41)">
     <use style="fill:#4c72b0;stroke:#4c72b0;" x="217.42142" xlink:href="#mef71649b60" y="146.045892"/>
    </g>
   </g>
   <g id="line2d_58">
    <g clip-path="url(#p446c982a41)">
     <use style="fill:#4c72b0;stroke:#4c72b0;" x="217.800591" xlink:href="#mef71649b60" y="145.607257"/>
    </g>
   </g>
   <g id="line2d_59">
    <g clip-path="url(#p446c982a41)">
     <use style="fill:#4c72b0;stroke:#4c72b0;" x="218.165284" xlink:href="#mef71649b60" y="145.406118"/>
    </g>
   </g>
   <g id="line2d_60">
    <g clip-path="url(#p446c982a41)">
     <use style="fill:#4c72b0;stroke:#4c72b0;" x="218.508192" xlink:href="#mef71649b60" y="145.221858"/>
    </g>
   </g>
   <g id="line2d_61">
    <g clip-path="url(#p446c982a41)">
     <use style="fill:#4c72b0;stroke:#4c72b0;" x="218.82845" xlink:href="#mef71649b60" y="145.042076"/>
    </g>
   </g>
   <g id="line2d_62">
    <g clip-path="url(#p446c982a41)">
     <use style="fill:#4c72b0;stroke:#4c72b0;" x="219.136435" xlink:href="#mef71649b60" y="144.802441"/>
    </g>
   </g>
   <g id="line2d_63">
    <g clip-path="url(#p446c982a41)">
     <use style="fill:#4c72b0;stroke:#4c72b0;" x="219.446102" xlink:href="#mef71649b60" y="144.595489"/>
    </g>
   </g>
   <g id="line2d_64">
    <g clip-path="url(#p446c982a41)">
     <use style="fill:#4c72b0;stroke:#4c72b0;" x="219.717299" xlink:href="#mef71649b60" y="144.002109"/>
    </g>
   </g>
   <g id="line2d_65">
    <g clip-path="url(#p446c982a41)">
     <use style="fill:#4c72b0;stroke:#4c72b0;" x="220.001067" xlink:href="#mef71649b60" y="143.28"/>
    </g>
   </g>
   <g id="line2d_66">
    <g clip-path="url(#p446c982a41)">
     <use style="fill:#4c72b0;stroke:#4c72b0;" x="220.2764" xlink:href="#mef71649b60" y="143.28"/>
    </g>
   </g>
   <g id="line2d_67">
    <g clip-path="url(#p446c982a41)">
     <use style="fill:#4c72b0;stroke:#4c72b0;" x="220.553503" xlink:href="#mef71649b60" y="143.28"/>
    </g>
   </g>
   <g id="line2d_68">
    <g clip-path="url(#p446c982a41)">
     <use style="fill:#4c72b0;stroke:#4c72b0;" x="220.796038" xlink:href="#mef71649b60" y="143.28"/>
    </g>
   </g>
   <g id="line2d_69">
    <g clip-path="url(#p446c982a41)">
     <use style="fill:#4c72b0;stroke:#4c72b0;" x="221.01529" xlink:href="#mef71649b60" y="143.127167"/>
    </g>
   </g>
   <g id="line2d_70">
    <g clip-path="url(#p446c982a41)">
     <use style="fill:#4c72b0;stroke:#4c72b0;" x="221.234659" xlink:href="#mef71649b60" y="142.265099"/>
    </g>
   </g>
   <g id="line2d_71">
    <g clip-path="url(#p446c982a41)">
     <use style="fill:#4c72b0;stroke:#4c72b0;" x="221.478369" xlink:href="#mef71649b60" y="141.951263"/>
    </g>
   </g>
   <g id="line2d_72">
    <g clip-path="url(#p446c982a41)">
     <use style="fill:#4c72b0;stroke:#4c72b0;" x="221.680152" xlink:href="#mef71649b60" y="141.64257"/>
    </g>
   </g>
   <g id="line2d_73">
    <g clip-path="url(#p446c982a41)">
     <use style="fill:#4c72b0;stroke:#4c72b0;" x="221.923605" xlink:href="#mef71649b60" y="141.371022"/>
    </g>
   </g>
   <g id="line2d_74">
    <g clip-path="url(#p446c982a41)">
     <use style="fill:#4c72b0;stroke:#4c72b0;" x="222.158263" xlink:href="#mef71649b60" y="141.219442"/>
    </g>
   </g>
   <g id="line2d_75">
    <g clip-path="url(#p446c982a41)">
     <use style="fill:#4c72b0;stroke:#4c72b0;" x="222.426148" xlink:href="#mef71649b60" y="141.021287"/>
    </g>
   </g>
   <g id="line2d_76">
    <g clip-path="url(#p446c982a41)">
     <use style="fill:#4c72b0;stroke:#4c72b0;" x="222.677563" xlink:href="#mef71649b60" y="140.879736"/>
    </g>
   </g>
   <g id="line2d_77">
    <g clip-path="url(#p446c982a41)">
     <use style="fill:#4c72b0;stroke:#4c72b0;" x="222.942614" xlink:href="#mef71649b60" y="140.635175"/>
    </g>
   </g>
   <g id="line2d_78">
    <g clip-path="url(#p446c982a41)">
     <use style="fill:#4c72b0;stroke:#4c72b0;" x="223.230344" xlink:href="#mef71649b60" y="140.376803"/>
    </g>
   </g>
   <g id="line2d_79">
    <g clip-path="url(#p446c982a41)">
     <use style="fill:#4c72b0;stroke:#4c72b0;" x="223.52372" xlink:href="#mef71649b60" y="140.254851"/>
    </g>
   </g>
   <g id="line2d_80">
    <g clip-path="url(#p446c982a41)">
     <use style="fill:#4c72b0;stroke:#4c72b0;" x="223.842309" xlink:href="#mef71649b60" y="139.740937"/>
    </g>
   </g>
   <g id="line2d_81">
    <g clip-path="url(#p446c982a41)">
     <use style="fill:#4c72b0;stroke:#4c72b0;" x="224.155193" xlink:href="#mef71649b60" y="139.255434"/>
    </g>
   </g>
   <g id="line2d_82">
    <g clip-path="url(#p446c982a41)">
     <use style="fill:#4c72b0;stroke:#4c72b0;" x="224.468514" xlink:href="#mef71649b60" y="138.7655"/>
    </g>
   </g>
   <g id="line2d_83">
    <g clip-path="url(#p446c982a41)">
     <use style="fill:#4c72b0;stroke:#4c72b0;" x="224.790579" xlink:href="#mef71649b60" y="138.653969"/>
    </g>
   </g>
   <g id="line2d_84">
    <g clip-path="url(#p446c982a41)">
     <use style="fill:#4c72b0;stroke:#4c72b0;" x="225.116551" xlink:href="#mef71649b60" y="138.642713"/>
    </g>
   </g>
   <g id="line2d_85">
    <g clip-path="url(#p446c982a41)">
     <use style="fill:#4c72b0;stroke:#4c72b0;" x="225.454492" xlink:href="#mef71649b60" y="138.630344"/>
    </g>
   </g>
   <g id="line2d_86">
    <g clip-path="url(#p446c982a41)">
     <use style="fill:#4c72b0;stroke:#4c72b0;" x="225.791889" xlink:href="#mef71649b60" y="138.545604"/>
    </g>
   </g>
   <g id="line2d_87">
    <g clip-path="url(#p446c982a41)">
     <use style="fill:#4c72b0;stroke:#4c72b0;" x="226.157754" xlink:href="#mef71649b60" y="138.291454"/>
    </g>
   </g>
   <g id="line2d_88">
    <g clip-path="url(#p446c982a41)">
     <use style="fill:#4c72b0;stroke:#4c72b0;" x="226.509699" xlink:href="#mef71649b60" y="138.223968"/>
    </g>
   </g>
   <g id="line2d_89">
    <g clip-path="url(#p446c982a41)">
     <use style="fill:#4c72b0;stroke:#4c72b0;" x="226.853068" xlink:href="#mef71649b60" y="137.376491"/>
    </g>
   </g>
   <g id="line2d_90">
    <g clip-path="url(#p446c982a41)">
     <use style="fill:#4c72b0;stroke:#4c72b0;" x="227.183615" xlink:href="#mef71649b60" y="137.294554"/>
    </g>
   </g>
   <g id="line2d_91">
    <g clip-path="url(#p446c982a41)">
     <use style="fill:#4c72b0;stroke:#4c72b0;" x="227.54951" xlink:href="#mef71649b60" y="136.570616"/>
    </g>
   </g>
   <g id="line2d_92">
    <g clip-path="url(#p446c982a41)">
     <use style="fill:#4c72b0;stroke:#4c72b0;" x="227.9011" xlink:href="#mef71649b60" y="136.36051"/>
    </g>
   </g>
   <g id="line2d_93">
    <g clip-path="url(#p446c982a41)">
     <use style="fill:#4c72b0;stroke:#4c72b0;" x="228.277156" xlink:href="#mef71649b60" y="136.18732"/>
    </g>
   </g>
   <g id="line2d_94">
    <g clip-path="url(#p446c982a41)">
     <use style="fill:#4c72b0;stroke:#4c72b0;" x="228.657752" xlink:href="#mef71649b60" y="136.117029"/>
    </g>
   </g>
   <g id="line2d_95">
    <g clip-path="url(#p446c982a41)">
     <use style="fill:#4c72b0;stroke:#4c72b0;" x="228.997786" xlink:href="#mef71649b60" y="134.954057"/>
    </g>
   </g>
   <g id="line2d_96">
    <g clip-path="url(#p446c982a41)">
     <use style="fill:#4c72b0;stroke:#4c72b0;" x="229.392049" xlink:href="#mef71649b60" y="134.797044"/>
    </g>
   </g>
   <g id="line2d_97">
    <g clip-path="url(#p446c982a41)">
     <use style="fill:#4c72b0;stroke:#4c72b0;" x="229.76496" xlink:href="#mef71649b60" y="134.465131"/>
    </g>
   </g>
   <g id="line2d_98">
    <g clip-path="url(#p446c982a41)">
     <use style="fill:#4c72b0;stroke:#4c72b0;" x="230.162591" xlink:href="#mef71649b60" y="134.226356"/>
    </g>
   </g>
   <g id="line2d_99">
    <g clip-path="url(#p446c982a41)">
     <use style="fill:#4c72b0;stroke:#4c72b0;" x="230.553052" xlink:href="#mef71649b60" y="133.897517"/>
    </g>
   </g>
   <g id="line2d_100">
    <g clip-path="url(#p446c982a41)">
     <use style="fill:#4c72b0;stroke:#4c72b0;" x="230.975251" xlink:href="#mef71649b60" y="132.352165"/>
    </g>
   </g>
   <g id="line2d_101">
    <g clip-path="url(#p446c982a41)">
     <use style="fill:#4c72b0;stroke:#4c72b0;" x="231.391345" xlink:href="#mef71649b60" y="132.26574"/>
    </g>
   </g>
   <g id="line2d_102">
    <g clip-path="url(#p446c982a41)">
     <use style="fill:#4c72b0;stroke:#4c72b0;" x="231.793189" xlink:href="#mef71649b60" y="131.386988"/>
    </g>
   </g>
   <g id="line2d_103">
    <g clip-path="url(#p446c982a41)">
     <use style="fill:#4c72b0;stroke:#4c72b0;" x="232.191473" xlink:href="#mef71649b60" y="131.176343"/>
    </g>
   </g>
   <g id="line2d_104">
    <g clip-path="url(#p446c982a41)">
     <use style="fill:#4c72b0;stroke:#4c72b0;" x="232.656256" xlink:href="#mef71649b60" y="131.131641"/>
    </g>
   </g>
   <g id="line2d_105">
    <g clip-path="url(#p446c982a41)">
     <use style="fill:#4c72b0;stroke:#4c72b0;" x="233.126111" xlink:href="#mef71649b60" y="129.530221"/>
    </g>
   </g>
   <g id="line2d_106">
    <g clip-path="url(#p446c982a41)">
     <use style="fill:#4c72b0;stroke:#4c72b0;" x="233.571435" xlink:href="#mef71649b60" y="126.537989"/>
    </g>
   </g>
   <g id="line2d_107">
    <g clip-path="url(#p446c982a41)">
     <use style="fill:#4c72b0;stroke:#4c72b0;" x="234.075232" xlink:href="#mef71649b60" y="125.943418"/>
    </g>
   </g>
   <g id="line2d_108">
    <g clip-path="url(#p446c982a41)">
     <use style="fill:#4c72b0;stroke:#4c72b0;" x="234.574745" xlink:href="#mef71649b60" y="124.996215"/>
    </g>
   </g>
   <g id="line2d_109">
    <g clip-path="url(#p446c982a41)">
     <use style="fill:#4c72b0;stroke:#4c72b0;" x="235.066469" xlink:href="#mef71649b60" y="124.690452"/>
    </g>
   </g>
   <g id="line2d_110">
    <g clip-path="url(#p446c982a41)">
     <use style="fill:#4c72b0;stroke:#4c72b0;" x="235.597533" xlink:href="#mef71649b60" y="124.229467"/>
    </g>
   </g>
   <g id="line2d_111">
    <g clip-path="url(#p446c982a41)">
     <use style="fill:#4c72b0;stroke:#4c72b0;" x="236.153541" xlink:href="#mef71649b60" y="124.229142"/>
    </g>
   </g>
   <g id="line2d_112">
    <g clip-path="url(#p446c982a41)">
     <use style="fill:#4c72b0;stroke:#4c72b0;" x="236.729027" xlink:href="#mef71649b60" y="123.276595"/>
    </g>
   </g>
   <g id="line2d_113">
    <g clip-path="url(#p446c982a41)">
     <use style="fill:#4c72b0;stroke:#4c72b0;" x="237.26948" xlink:href="#mef71649b60" y="121.442597"/>
    </g>
   </g>
   <g id="line2d_114">
    <g clip-path="url(#p446c982a41)">
     <use style="fill:#4c72b0;stroke:#4c72b0;" x="237.821512" xlink:href="#mef71649b60" y="121.328517"/>
    </g>
   </g>
   <g id="line2d_115">
    <g clip-path="url(#p446c982a41)">
     <use style="fill:#4c72b0;stroke:#4c72b0;" x="238.432966" xlink:href="#mef71649b60" y="120.946469"/>
    </g>
   </g>
   <g id="line2d_116">
    <g clip-path="url(#p446c982a41)">
     <use style="fill:#4c72b0;stroke:#4c72b0;" x="239.006403" xlink:href="#mef71649b60" y="120.804645"/>
    </g>
   </g>
   <g id="line2d_117">
    <g clip-path="url(#p446c982a41)">
     <use style="fill:#4c72b0;stroke:#4c72b0;" x="239.614858" xlink:href="#mef71649b60" y="120.093012"/>
    </g>
   </g>
   <g id="line2d_118">
    <g clip-path="url(#p446c982a41)">
     <use style="fill:#4c72b0;stroke:#4c72b0;" x="240.271838" xlink:href="#mef71649b60" y="117.929183"/>
    </g>
   </g>
   <g id="line2d_119">
    <g clip-path="url(#p446c982a41)">
     <use style="fill:#4c72b0;stroke:#4c72b0;" x="240.955418" xlink:href="#mef71649b60" y="117.809605"/>
    </g>
   </g>
   <g id="line2d_120">
    <g clip-path="url(#p446c982a41)">
     <use style="fill:#4c72b0;stroke:#4c72b0;" x="241.636484" xlink:href="#mef71649b60" y="117.090309"/>
    </g>
   </g>
   <g id="line2d_121">
    <g clip-path="url(#p446c982a41)">
     <use style="fill:#4c72b0;stroke:#4c72b0;" x="242.369405" xlink:href="#mef71649b60" y="115.066768"/>
    </g>
   </g>
   <g id="line2d_122">
    <g clip-path="url(#p446c982a41)">
     <use style="fill:#4c72b0;stroke:#4c72b0;" x="243.067587" xlink:href="#mef71649b60" y="114.455415"/>
    </g>
   </g>
   <g id="line2d_123">
    <g clip-path="url(#p446c982a41)">
     <use style="fill:#4c72b0;stroke:#4c72b0;" x="243.899475" xlink:href="#mef71649b60" y="113.950607"/>
    </g>
   </g>
   <g id="line2d_124">
    <g clip-path="url(#p446c982a41)">
     <use style="fill:#4c72b0;stroke:#4c72b0;" x="244.749455" xlink:href="#mef71649b60" y="113.459144"/>
    </g>
   </g>
   <g id="line2d_125">
    <g clip-path="url(#p446c982a41)">
     <use style="fill:#4c72b0;stroke:#4c72b0;" x="245.592877" xlink:href="#mef71649b60" y="112.022722"/>
    </g>
   </g>
   <g id="line2d_126">
    <g clip-path="url(#p446c982a41)">
     <use style="fill:#4c72b0;stroke:#4c72b0;" x="246.471808" xlink:href="#mef71649b60" y="111.510824"/>
    </g>
   </g>
   <g id="line2d_127">
    <g clip-path="url(#p446c982a41)">
     <use style="fill:#4c72b0;stroke:#4c72b0;" x="247.438011" xlink:href="#mef71649b60" y="111.284688"/>
    </g>
   </g>
   <g id="line2d_128">
    <g clip-path="url(#p446c982a41)">
     <use style="fill:#4c72b0;stroke:#4c72b0;" x="248.484039" xlink:href="#mef71649b60" y="110.67253"/>
    </g>
   </g>
   <g id="line2d_129">
    <g clip-path="url(#p446c982a41)">
     <use style="fill:#4c72b0;stroke:#4c72b0;" x="249.53304" xlink:href="#mef71649b60" y="109.207258"/>
    </g>
   </g>
   <g id="line2d_130">
    <g clip-path="url(#p446c982a41)">
     <use style="fill:#4c72b0;stroke:#4c72b0;" x="250.694005" xlink:href="#mef71649b60" y="108.99005"/>
    </g>
   </g>
   <g id="line2d_131">
    <g clip-path="url(#p446c982a41)">
     <use style="fill:#4c72b0;stroke:#4c72b0;" x="251.954762" xlink:href="#mef71649b60" y="108.680376"/>
    </g>
   </g>
   <g id="line2d_132">
    <g clip-path="url(#p446c982a41)">
     <use style="fill:#4c72b0;stroke:#4c72b0;" x="253.329662" xlink:href="#mef71649b60" y="107.09407"/>
    </g>
   </g>
   <g id="line2d_133">
    <g clip-path="url(#p446c982a41)">
     <use style="fill:#4c72b0;stroke:#4c72b0;" x="254.91871" xlink:href="#mef71649b60" y="106.109237"/>
    </g>
   </g>
   <g id="line2d_134">
    <g clip-path="url(#p446c982a41)">
     <use style="fill:#4c72b0;stroke:#4c72b0;" x="256.727583" xlink:href="#mef71649b60" y="105.720867"/>
    </g>
   </g>
   <g id="line2d_135">
    <g clip-path="url(#p446c982a41)">
     <use style="fill:#4c72b0;stroke:#4c72b0;" x="258.88435" xlink:href="#mef71649b60" y="102.983896"/>
    </g>
   </g>
   <g id="line2d_136">
    <g clip-path="url(#p446c982a41)">
     <use style="fill:#4c72b0;stroke:#4c72b0;" x="261.289985" xlink:href="#mef71649b60" y="100.060326"/>
    </g>
   </g>
   <g id="line2d_137">
    <g clip-path="url(#p446c982a41)">
     <use style="fill:#4c72b0;stroke:#4c72b0;" x="264.665721" xlink:href="#mef71649b60" y="98.192188"/>
    </g>
   </g>
   <g id="line2d_138">
    <g clip-path="url(#p446c982a41)">
     <use style="fill:#4c72b0;stroke:#4c72b0;" x="268.589233" xlink:href="#mef71649b60" y="96.450093"/>
    </g>
   </g>
   <g id="line2d_139">
    <g clip-path="url(#p446c982a41)">
     <use style="fill:#4c72b0;stroke:#4c72b0;" x="275.091171" xlink:href="#mef71649b60" y="96.284221"/>
    </g>
   </g>
   <g id="line2d_140">
    <g clip-path="url(#p446c982a41)">
     <use style="fill:#4c72b0;stroke:#4c72b0;" x="288.010126" xlink:href="#mef71649b60" y="70.451079"/>
    </g>
   </g>
   <g id="line2d_141">
    <path clip-path="url(#p446c982a41)" d="M 112.68 252 
L 330.12 34.56 
" style="fill:none;stroke:#000000;stroke-linecap:square;stroke-width:1.5;"/>
   </g>
   <g id="patch_3">
    <path d="M 112.68 252 
L 112.68 34.56 
" style="fill:none;stroke:#000000;stroke-linecap:square;stroke-linejoin:miter;stroke-width:0.8;"/>
   </g>
   <g id="patch_4">
    <path d="M 330.12 252 
L 330.12 34.56 
" style="fill:none;stroke:#000000;stroke-linecap:square;stroke-linejoin:miter;stroke-width:0.8;"/>
   </g>
   <g id="patch_5">
    <path d="M 112.68 252 
L 330.12 252 
" style="fill:none;stroke:#000000;stroke-linecap:square;stroke-linejoin:miter;stroke-width:0.8;"/>
   </g>
   <g id="patch_6">
    <path d="M 112.68 34.56 
L 330.12 34.56 
" style="fill:none;stroke:#000000;stroke-linecap:square;stroke-linejoin:miter;stroke-width:0.8;"/>
   </g>
  </g>
 </g>
 <defs>
  <clipPath id="p446c982a41">
   <rect height="217.44" width="217.44" x="112.68" y="34.56"/>
  </clipPath>
 </defs>
</svg>
