<?xml version="1.0" encoding="utf-8" standalone="no"?>
<!DOCTYPE svg PUBLIC "-//W3C//DTD SVG 1.1//EN"
  "http://www.w3.org/Graphics/SVG/1.1/DTD/svg11.dtd">
<!-- Created with matplotlib (https://matplotlib.org/) -->
<svg height="288pt" version="1.1" viewBox="0 0 432 288" width="432pt" xmlns="http://www.w3.org/2000/svg" xmlns:xlink="http://www.w3.org/1999/xlink">
 <metadata>
  <rdf:RDF xmlns:cc="http://creativecommons.org/ns#" xmlns:dc="http://purl.org/dc/elements/1.1/" xmlns:rdf="http://www.w3.org/1999/02/22-rdf-syntax-ns#">
   <cc:Work>
    <dc:type rdf:resource="http://purl.org/dc/dcmitype/StillImage"/>
    <dc:date>2021-03-15T13:34:42.399624</dc:date>
    <dc:format>image/svg+xml</dc:format>
    <dc:creator>
     <cc:Agent>
      <dc:title>Matplotlib v3.3.2, https://matplotlib.org/</dc:title>
     </cc:Agent>
    </dc:creator>
   </cc:Work>
  </rdf:RDF>
 </metadata>
 <defs>
  <style type="text/css">*{stroke-linecap:butt;stroke-linejoin:round;}</style>
 </defs>
 <g id="figure_1">
  <g id="patch_1">
   <path d="M 0 288 
L 432 288 
L 432 0 
L 0 0 
z
" style="fill:#ffffff;"/>
  </g>
  <g id="axes_1">
   <g id="patch_2">
    <path d="M 75.325 234.05 
L 415.8 234.05 
L 415.8 16.2 
L 75.325 16.2 
z
" style="fill:#ffffff;"/>
   </g>
   <g id="matplotlib.axis_1">
    <g id="xtick_1">
     <g id="line2d_1">
      <defs>
       <path d="M 0 0 
L 0 3.5 
" id="m13b5783ebb" style="stroke:#000000;stroke-width:0.8;"/>
      </defs>
      <g>
       <use style="stroke:#000000;stroke-width:0.8;" x="90.801136" xlink:href="#m13b5783ebb" y="234.05"/>
      </g>
     </g>
     <g id="text_1">
      <!-- 0 -->
      <g transform="translate(87.051136 251.334375)scale(0.15 -0.15)">
       <defs>
        <path d="M 23.921875 1.8125 
Q 31.109375 1.8125 33.78125 9.671875 
Q 36.46875 17.53125 36.46875 32.421875 
Q 36.46875 44.28125 34.859375 51.375 
Q 31.84375 64.546875 23.53125 64.546875 
Q 15.234375 64.546875 12.15625 50.984375 
Q 10.546875 43.75 10.546875 31.9375 
Q 10.546875 20.84375 12.203125 14.203125 
Q 15.328125 1.8125 23.921875 1.8125 
z
M 23.78125 67.1875 
Q 35.015625 67.1875 41.21875 55.421875 
Q 46.140625 45.90625 46.140625 33.546875 
Q 46.140625 23.828125 43.109375 15.234375 
Q 37.40625 -0.921875 23.34375 -0.921875 
Q 13.71875 -0.921875 7.515625 7.8125 
Q 0.875 17.140625 0.875 33.15625 
Q 0.875 45.75 5.328125 54.828125 
Q 11.328125 67.1875 23.78125 67.1875 
z
" id="Times-Roman-48"/>
       </defs>
       <use xlink:href="#Times-Roman-48"/>
      </g>
     </g>
    </g>
    <g id="xtick_2">
     <g id="line2d_2">
      <g>
       <use style="stroke:#000000;stroke-width:0.8;" x="172.254486" xlink:href="#m13b5783ebb" y="234.05"/>
      </g>
     </g>
     <g id="text_2">
      <!-- 5 -->
      <g transform="translate(168.504486 251.334375)scale(0.15 -0.15)">
       <defs>
        <path d="M 7.46875 8.9375 
Q 10.25 8.9375 14.765625 5.78125 
Q 19.28125 2.640625 21.734375 2.640625 
Q 27.34375 2.640625 31.546875 7.59375 
Q 35.75 12.546875 35.75 19.78125 
Q 35.75 32.421875 22.265625 37.984375 
Q 14.796875 41.0625 8.34375 41.0625 
Q 7.28125 41.0625 7 41.140625 
Q 6.734375 41.21875 6.34375 41.65625 
Q 6.453125 42.046875 6.515625 42.3125 
Q 6.59375 42.578125 6.6875 42.828125 
L 17.328125 66.15625 
L 38.28125 66.15625 
Q 39.84375 66.15625 40.6875 66.6875 
Q 41.546875 67.234375 42.921875 68.703125 
L 43.703125 68.015625 
L 39.890625 58.984375 
Q 39.703125 58.546875 38.8125 58.421875 
Q 37.9375 58.296875 36.921875 58.296875 
L 18.015625 58.296875 
L 13.875 49.75 
Q 21.875 48.390625 25.59375 47.171875 
Q 31.6875 45.125 35.796875 41.109375 
Q 39.3125 37.640625 41.109375 33.3125 
Q 42.921875 29 42.921875 24.171875 
Q 42.921875 13.375 35.234375 6.140625 
Q 27.546875 -1.078125 15.765625 -1.078125 
Q 10.984375 -1.078125 8.0625 -0.140625 
Q 3.171875 1.375 3.171875 5.28125 
Q 3.171875 6.734375 4.21875 7.828125 
Q 5.28125 8.9375 7.46875 8.9375 
z
" id="Times-Roman-53"/>
       </defs>
       <use xlink:href="#Times-Roman-53"/>
      </g>
     </g>
    </g>
    <g id="xtick_3">
     <g id="line2d_3">
      <g>
       <use style="stroke:#000000;stroke-width:0.8;" x="253.707835" xlink:href="#m13b5783ebb" y="234.05"/>
      </g>
     </g>
     <g id="text_3">
      <!-- 10 -->
      <g transform="translate(246.207835 251.334375)scale(0.15 -0.15)">
       <defs>
        <path d="M 29.59375 67.09375 
Q 29.78125 66.84375 29.796875 66.71875 
Q 29.828125 66.609375 29.828125 66.15625 
L 29.828125 7.375 
Q 29.828125 3.609375 31.828125 2.578125 
Q 33.84375 1.5625 39.3125 1.375 
L 39.3125 0 
L 11.765625 0 
L 11.765625 1.46875 
Q 17.671875 1.765625 19.484375 3.078125 
Q 21.296875 4.390625 21.296875 8.796875 
L 21.296875 54 
Q 21.296875 56.34375 20.703125 57.5625 
Q 20.125 58.796875 18.171875 58.796875 
Q 16.890625 58.796875 14.859375 58.078125 
Q 12.84375 57.375 11.078125 56.59375 
L 11.078125 57.953125 
L 29 67.09375 
L 29.59375 67.09375 
z
" id="Times-Roman-49"/>
       </defs>
       <use xlink:href="#Times-Roman-49"/>
       <use x="50" xlink:href="#Times-Roman-48"/>
      </g>
     </g>
    </g>
    <g id="xtick_4">
     <g id="line2d_4">
      <g>
       <use style="stroke:#000000;stroke-width:0.8;" x="335.161184" xlink:href="#m13b5783ebb" y="234.05"/>
      </g>
     </g>
     <g id="text_4">
      <!-- 15 -->
      <g transform="translate(327.661184 251.334375)scale(0.15 -0.15)">
       <use xlink:href="#Times-Roman-49"/>
       <use x="50" xlink:href="#Times-Roman-53"/>
      </g>
     </g>
    </g>
    <g id="text_5">
     <!-- Lags -->
     <g transform="translate(230.983203 268.885938)scale(0.15 -0.15)">
      <defs>
       <path d="M 1.125 1.8125 
Q 6.640625 2.390625 8.265625 3.78125 
Q 9.90625 5.171875 9.90625 10.84375 
L 9.90625 55.328125 
Q 9.90625 60.640625 8.296875 62.28125 
Q 6.6875 63.921875 1.125 64.3125 
L 1.125 66.15625 
L 29.390625 66.15625 
L 29.390625 64.3125 
Q 23.875 64.015625 22 62.5 
Q 20.125 60.984375 20.125 56 
L 20.125 7.953125 
Q 20.125 6.296875 20.671875 5.34375 
Q 21.234375 4.390625 23.140625 4.15625 
Q 24.265625 4 25.515625 3.953125 
Q 26.765625 3.90625 30.171875 3.90625 
Q 43.5 3.90625 48.1875 6.09375 
Q 52.875 8.296875 57.28125 17.328125 
L 59.8125 17.328125 
L 54.9375 0 
L 1.125 0 
z
" id="Times-Roman-76"/>
       <path d="M 28.65625 27.046875 
Q 23.046875 25.203125 19.390625 22.953125 
Q 12.359375 18.609375 12.359375 13.09375 
Q 12.359375 8.640625 15.28125 6.546875 
Q 17.1875 5.171875 19.53125 5.171875 
Q 22.75 5.171875 25.703125 6.984375 
Q 28.65625 8.796875 28.65625 11.578125 
z
M 3.65625 9.71875 
Q 3.65625 16.796875 10.75 21.53125 
Q 15.234375 24.46875 28.65625 29.5 
L 28.65625 33.640625 
Q 28.65625 38.625 27.6875 40.578125 
Q 26.03125 43.84375 20.796875 43.84375 
Q 18.3125 43.84375 16.0625 42.578125 
Q 13.8125 41.265625 13.8125 38.96875 
Q 13.8125 38.375 14.0625 36.984375 
Q 14.3125 35.59375 14.3125 35.203125 
Q 14.3125 32.46875 12.5 31.390625 
Q 11.46875 30.765625 10.0625 30.765625 
Q 7.859375 30.765625 6.6875 32.203125 
Q 5.515625 33.640625 5.515625 35.40625 
Q 5.515625 38.8125 9.734375 42.546875 
Q 13.96875 46.296875 22.125 46.296875 
Q 31.59375 46.296875 34.96875 40.140625 
Q 36.765625 36.765625 36.765625 30.328125 
L 36.765625 10.75 
Q 36.765625 7.90625 37.15625 6.84375 
Q 37.796875 4.9375 39.796875 4.9375 
Q 40.921875 4.9375 41.65625 5.265625 
Q 42.390625 5.609375 44.1875 6.9375 
L 44.1875 4.390625 
Q 42.625 2.484375 40.828125 1.265625 
Q 38.09375 -0.59375 35.25 -0.59375 
Q 31.9375 -0.59375 30.4375 1.5625 
Q 28.953125 3.71875 28.8125 6.6875 
Q 25.09375 3.46875 22.46875 1.90625 
Q 18.015625 -0.734375 14.015625 -0.734375 
Q 9.8125 -0.734375 6.734375 2.21875 
Q 3.65625 5.171875 3.65625 9.71875 
z
M 22.265625 46.296875 
z
" id="Times-Roman-97"/>
       <path d="M 9.8125 -9.03125 
Q 9.8125 -13.140625 14.421875 -14.703125 
Q 19.046875 -16.265625 25 -16.265625 
Q 33.109375 -16.265625 38.1875 -13.453125 
Q 43.265625 -10.640625 43.265625 -6.546875 
Q 43.265625 -3.265625 39.15625 -2.203125 
Q 36.625 -1.5625 29.546875 -1.46875 
Q 27.734375 -1.421875 25.734375 -1.34375 
Q 23.734375 -1.265625 22.078125 -1.171875 
Q 21 -1.125 18.609375 -0.78125 
Q 16.21875 -0.4375 15.046875 -0.203125 
Q 14.453125 -0.203125 12.15625 -3.265625 
Q 9.8125 -6.390625 9.8125 -9.03125 
z
M 16.15625 16.40625 
Q 11.71875 17.875 9.25 21.625 
Q 6.78125 25.390625 6.78125 30.078125 
Q 6.78125 35.796875 11.328125 40.921875 
Q 15.875 46.046875 24.171875 46.046875 
Q 27.734375 46.046875 32.03125 44.359375 
Q 36.328125 42.671875 40.28125 42.671875 
Q 41.3125 42.671875 43.375 42.75 
Q 45.453125 42.828125 46.390625 42.828125 
L 46.96875 42.828125 
L 46.96875 38.875 
L 38.53125 38.875 
Q 39.40625 36.8125 39.890625 35.296875 
Q 40.71875 32.46875 40.71875 29.9375 
Q 40.71875 24.359375 36.109375 19.703125 
Q 31.5 15.046875 23.6875 15.046875 
Q 22.46875 15.046875 19.28125 15.484375 
Q 17.875 15.484375 15.546875 13.078125 
Q 13.234375 10.6875 13.234375 9.1875 
Q 13.234375 7.625 16.65625 6.890625 
Q 18.890625 6.390625 21.625 6.390625 
Q 34.1875 6.390625 38.671875 4.984375 
Q 46.046875 2.6875 46.046875 -4.890625 
Q 46.046875 -12.59375 37.421875 -17.1875 
Q 28.8125 -21.78125 20.015625 -21.78125 
Q 12.015625 -21.78125 7.328125 -18.53125 
Q 2.640625 -15.28125 2.640625 -11.71875 
Q 2.640625 -9.96875 3.875 -8.28125 
Q 5.125 -6.59375 8.796875 -3.265625 
L 12.015625 -0.390625 
L 12.59375 0.203125 
Q 10.359375 1.078125 9.234375 1.90625 
Q 7.28125 3.421875 7.28125 5.375 
Q 7.28125 7.171875 8.953125 9.34375 
Q 10.640625 11.53125 16.15625 16.40625 
z
M 25.4375 17.390625 
Q 28.125 17.390625 29.9375 18.84375 
Q 32.859375 21.1875 32.859375 27 
Q 32.859375 31.640625 30.484375 37.453125 
Q 28.125 43.265625 22.609375 43.265625 
Q 17.828125 43.265625 16.015625 38.71875 
Q 15.09375 36.328125 15.09375 32.8125 
Q 15.09375 26.859375 17.96875 22.125 
Q 20.84375 17.390625 25.4375 17.390625 
z
M 25.046875 46.046875 
z
" id="Times-Roman-103"/>
       <path d="M 5.171875 15.375 
L 6.78125 15.375 
Q 7.90625 9.8125 9.8125 6.84375 
Q 13.234375 1.375 19.828125 1.375 
Q 23.484375 1.375 25.609375 3.390625 
Q 27.734375 5.421875 27.734375 8.640625 
Q 27.734375 10.6875 26.515625 12.59375 
Q 25.296875 14.5 22.21875 16.3125 
L 16.75 19.4375 
Q 10.75 22.65625 7.90625 25.921875 
Q 5.078125 29.203125 5.078125 33.640625 
Q 5.078125 39.109375 8.984375 42.625 
Q 12.890625 46.140625 18.796875 46.140625 
Q 21.390625 46.140625 24.484375 45.15625 
Q 27.59375 44.1875 27.984375 44.1875 
Q 28.859375 44.1875 29.25 44.421875 
Q 29.640625 44.671875 29.9375 45.21875 
L 31.109375 45.21875 
L 31.453125 31.59375 
L 29.9375 31.59375 
Q 28.953125 36.328125 27.296875 38.96875 
Q 24.265625 43.84375 18.5625 43.84375 
Q 15.140625 43.84375 13.1875 41.75 
Q 11.234375 39.65625 11.234375 36.8125 
Q 11.234375 32.328125 17.96875 28.8125 
L 24.421875 25.34375 
Q 34.8125 19.671875 34.8125 12.15625 
Q 34.8125 6.390625 30.484375 2.734375 
Q 26.171875 -0.921875 19.1875 -0.921875 
Q 16.265625 -0.921875 12.546875 0.046875 
Q 8.84375 1.03125 8.15625 1.03125 
Q 7.5625 1.03125 7.125 0.609375 
Q 6.6875 0.203125 6.453125 -0.390625 
L 5.171875 -0.390625 
z
M 19.484375 46.140625 
z
" id="Times-Roman-115"/>
      </defs>
      <use xlink:href="#Times-Roman-76"/>
      <use x="61.083984" xlink:href="#Times-Roman-97"/>
      <use x="105.46875" xlink:href="#Times-Roman-103"/>
      <use x="155.46875" xlink:href="#Times-Roman-115"/>
     </g>
    </g>
   </g>
   <g id="matplotlib.axis_2">
    <g id="ytick_1">
     <g id="line2d_5">
      <defs>
       <path d="M 0 0 
L -3.5 0 
" id="m040c727e56" style="stroke:#000000;stroke-width:0.8;"/>
      </defs>
      <g>
       <use style="stroke:#000000;stroke-width:0.8;" x="75.325" xlink:href="#m040c727e56" y="209.53417"/>
      </g>
     </g>
     <g id="text_6">
      <!-- −0.25 -->
      <g transform="translate(33.616406 214.676358)scale(0.15 -0.15)">
       <defs>
        <path d="M 2.984375 28.65625 
L 53.46875 28.65625 
L 53.46875 21.828125 
L 2.984375 21.828125 
z
" id="Times-Roman-8722"/>
        <path d="M 16.3125 -1.171875 
Q 13.96875 -1.171875 12.359375 0.453125 
Q 10.75 2.09375 10.75 4.390625 
Q 10.75 6.6875 12.375 8.296875 
Q 14.015625 9.90625 16.3125 9.90625 
Q 18.609375 9.90625 20.21875 8.296875 
Q 21.828125 6.6875 21.828125 4.390625 
Q 21.828125 2.09375 20.234375 0.453125 
Q 18.65625 -1.171875 16.3125 -1.171875 
z
" id="Times-Roman-46"/>
        <path d="M 2.984375 1.125 
Q 20.84375 19.671875 27.234375 28.359375 
Q 33.640625 37.0625 33.640625 45.3125 
Q 33.640625 52.546875 29.734375 56.328125 
Q 25.828125 60.109375 20.40625 60.109375 
Q 13.71875 60.109375 9.578125 55.21875 
Q 7.28125 52.546875 5.171875 46.96875 
L 3.078125 47.40625 
Q 5.515625 58.640625 11.34375 63.015625 
Q 17.1875 67.390625 23.875 67.390625 
Q 32.125 67.390625 37.21875 62.1875 
Q 42.328125 56.984375 42.328125 49.46875 
Q 42.328125 41.453125 36.8125 34.03125 
Q 31.296875 26.609375 12.84375 7.625 
L 35.25 7.625 
Q 39.9375 7.625 41.84375 8.734375 
Q 43.75 9.859375 46.140625 14.203125 
L 47.40625 13.625 
L 42 0 
L 2.984375 0 
z
" id="Times-Roman-50"/>
       </defs>
       <use xlink:href="#Times-Roman-8722"/>
       <use x="56.396484" xlink:href="#Times-Roman-48"/>
       <use x="106.396484" xlink:href="#Times-Roman-46"/>
       <use x="131.396484" xlink:href="#Times-Roman-50"/>
       <use x="181.396484" xlink:href="#Times-Roman-53"/>
      </g>
     </g>
    </g>
    <g id="ytick_2">
     <g id="line2d_6">
      <g>
       <use style="stroke:#000000;stroke-width:0.8;" x="75.325" xlink:href="#m040c727e56" y="172.847791"/>
      </g>
     </g>
     <g id="text_7">
      <!-- 0.00 -->
      <g transform="translate(42.075 177.989978)scale(0.15 -0.15)">
       <use xlink:href="#Times-Roman-48"/>
       <use x="50" xlink:href="#Times-Roman-46"/>
       <use x="75" xlink:href="#Times-Roman-48"/>
       <use x="125" xlink:href="#Times-Roman-48"/>
      </g>
     </g>
    </g>
    <g id="ytick_3">
     <g id="line2d_7">
      <g>
       <use style="stroke:#000000;stroke-width:0.8;" x="75.325" xlink:href="#m040c727e56" y="136.161411"/>
      </g>
     </g>
     <g id="text_8">
      <!-- 0.25 -->
      <g transform="translate(42.075 141.303599)scale(0.15 -0.15)">
       <use xlink:href="#Times-Roman-48"/>
       <use x="50" xlink:href="#Times-Roman-46"/>
       <use x="75" xlink:href="#Times-Roman-50"/>
       <use x="125" xlink:href="#Times-Roman-53"/>
      </g>
     </g>
    </g>
    <g id="ytick_4">
     <g id="line2d_8">
      <g>
       <use style="stroke:#000000;stroke-width:0.8;" x="75.325" xlink:href="#m040c727e56" y="99.475032"/>
      </g>
     </g>
     <g id="text_9">
      <!-- 0.50 -->
      <g transform="translate(42.075 104.617219)scale(0.15 -0.15)">
       <use xlink:href="#Times-Roman-48"/>
       <use x="50" xlink:href="#Times-Roman-46"/>
       <use x="75" xlink:href="#Times-Roman-53"/>
       <use x="125" xlink:href="#Times-Roman-48"/>
      </g>
     </g>
    </g>
    <g id="ytick_5">
     <g id="line2d_9">
      <g>
       <use style="stroke:#000000;stroke-width:0.8;" x="75.325" xlink:href="#m040c727e56" y="62.788652"/>
      </g>
     </g>
     <g id="text_10">
      <!-- 0.75 -->
      <g transform="translate(42.075 67.93084)scale(0.15 -0.15)">
       <defs>
        <path d="M 44.875 66.15625 
L 44.875 64.546875 
L 23.6875 -0.921875 
L 17.234375 -0.921875 
L 37.015625 58.796875 
L 15.71875 58.796875 
Q 10.984375 58.796875 8.90625 57.234375 
Q 6.84375 55.671875 3.65625 50.6875 
L 1.953125 51.46875 
Q 5.125 59.28125 5.875 61.109375 
Q 6.640625 62.9375 7.859375 66.15625 
z
" id="Times-Roman-55"/>
       </defs>
       <use xlink:href="#Times-Roman-48"/>
       <use x="50" xlink:href="#Times-Roman-46"/>
       <use x="75" xlink:href="#Times-Roman-55"/>
       <use x="125" xlink:href="#Times-Roman-53"/>
      </g>
     </g>
    </g>
    <g id="ytick_6">
     <g id="line2d_10">
      <g>
       <use style="stroke:#000000;stroke-width:0.8;" x="75.325" xlink:href="#m040c727e56" y="26.102273"/>
      </g>
     </g>
     <g id="text_11">
      <!-- 1.00 -->
      <g transform="translate(42.075 31.24446)scale(0.15 -0.15)">
       <use xlink:href="#Times-Roman-49"/>
       <use x="50" xlink:href="#Times-Roman-46"/>
       <use x="75" xlink:href="#Times-Roman-48"/>
       <use x="125" xlink:href="#Times-Roman-48"/>
      </g>
     </g>
    </g>
    <g id="text_12">
     <!-- Autocorrelation -->
     <g transform="translate(26.349219 172.608203)rotate(-90)scale(0.15 -0.15)">
      <defs>
       <path d="M 44.625 25.6875 
L 33.0625 53.21875 
L 21.625 25.6875 
z
M 1.46875 0 
L 1.46875 1.8125 
Q 5.328125 2.25 7.25 4.734375 
Q 9.1875 7.234375 13.875 18.265625 
L 34.71875 67.328125 
L 36.671875 67.328125 
L 61.578125 10.640625 
Q 64.0625 4.984375 65.546875 3.640625 
Q 67.046875 2.296875 70.5625 1.8125 
L 70.5625 0 
L 45.125 0 
L 45.125 1.8125 
Q 49.515625 2.203125 50.78125 2.765625 
Q 52.046875 3.328125 52.046875 5.515625 
Q 52.046875 6.25 51.5625 8.109375 
Q 51.078125 9.96875 50.203125 12.015625 
L 46.046875 21.625 
L 19.875 21.625 
Q 15.96875 11.8125 15.203125 9.640625 
Q 14.453125 7.46875 14.453125 6.203125 
Q 14.453125 3.65625 16.5 2.6875 
Q 17.78125 2.09375 21.296875 1.8125 
L 21.296875 0 
z
M 35.6875 67.328125 
z
" id="Times-Roman-65"/>
       <path d="M 15.484375 45.21875 
L 15.484375 13.96875 
Q 15.484375 10.640625 16.40625 8.640625 
Q 18.21875 4.9375 23.046875 4.9375 
Q 26.375 4.9375 29.546875 7.125 
Q 31.34375 8.34375 33.203125 10.5 
L 33.203125 37.25 
Q 33.203125 41.015625 31.734375 42.1875 
Q 30.28125 43.359375 25.875 43.609375 
L 25.875 45.21875 
L 41.65625 45.21875 
L 41.65625 10.84375 
Q 41.65625 7.515625 42.84375 6.265625 
Q 44.046875 5.03125 47.90625 5.171875 
L 47.90625 3.8125 
Q 45.21875 3.078125 43.9375 2.703125 
Q 42.671875 2.34375 39.703125 1.375 
Q 38.421875 0.921875 34.125 -0.734375 
Q 33.890625 -0.734375 33.84375 -0.515625 
Q 33.796875 -0.296875 33.796875 0 
L 33.796875 7.859375 
Q 30.46875 3.90625 27.734375 2 
Q 23.578125 -0.921875 18.953125 -0.921875 
Q 14.703125 -0.921875 10.9375 2.09375 
Q 7.125 5.078125 7.125 12.109375 
L 7.125 37.453125 
Q 7.125 41.359375 5.46875 42.671875 
Q 4.390625 43.5 0.875 43.84375 
L 0.875 45.21875 
z
M 25.046875 45.796875 
z
" id="Times-Roman-117"/>
       <path d="M 25.4375 45.015625 
L 25.4375 41.5 
L 15.484375 41.5 
L 15.375 13.375 
Q 15.375 9.671875 16.015625 7.765625 
Q 17.1875 4.390625 20.609375 4.390625 
Q 22.359375 4.390625 23.65625 5.21875 
Q 24.953125 6.0625 26.609375 7.859375 
L 27.875 6.78125 
L 26.8125 5.328125 
Q 24.265625 1.90625 21.4375 0.484375 
Q 18.609375 -0.921875 15.96875 -0.921875 
Q 10.203125 -0.921875 8.15625 4.203125 
Q 7.03125 6.984375 7.03125 11.921875 
L 7.03125 41.5 
L 1.703125 41.5 
Q 1.46875 41.65625 1.34375 41.796875 
Q 1.21875 41.9375 1.21875 42.1875 
Q 1.21875 42.671875 1.4375 42.9375 
Q 1.65625 43.21875 2.828125 44.1875 
Q 6.203125 46.96875 7.6875 48.703125 
Q 9.1875 50.4375 14.703125 57.859375 
Q 15.328125 57.859375 15.453125 57.765625 
Q 15.578125 57.671875 15.578125 57.03125 
L 15.578125 45.015625 
z
" id="Times-Roman-116"/>
       <path d="M 2.546875 22.65625 
Q 2.546875 32.375 8.71875 39.078125 
Q 14.890625 45.796875 24.609375 45.796875 
Q 34.28125 45.796875 40.625 39.453125 
Q 46.96875 33.109375 46.96875 22.5625 
Q 46.96875 12.84375 40.8125 5.65625 
Q 34.671875 -1.515625 24.90625 -1.515625 
Q 15.53125 -1.515625 9.03125 5.359375 
Q 2.546875 12.25 2.546875 22.65625 
z
M 23.25 42.875 
Q 19.390625 42.875 16.546875 40.328125 
Q 11.671875 35.890625 11.671875 25 
Q 11.671875 16.3125 15.59375 8.78125 
Q 19.53125 1.265625 26.515625 1.265625 
Q 31.984375 1.265625 34.9375 6.296875 
Q 37.890625 11.328125 37.890625 19.484375 
Q 37.890625 27.9375 34.125 35.40625 
Q 30.375 42.875 23.25 42.875 
z
M 25.046875 45.796875 
z
" id="Times-Roman-111"/>
       <path d="M 24.859375 46.046875 
Q 30.953125 46.046875 35.375 42.890625 
Q 39.796875 39.75 39.796875 35.984375 
Q 39.796875 34.375 38.671875 32.984375 
Q 37.546875 31.59375 35.203125 31.59375 
Q 33.5 31.59375 32.203125 32.765625 
Q 30.90625 33.9375 30.328125 36.1875 
L 29.734375 38.53125 
Q 29.109375 41.109375 27.546875 42.1875 
Q 25.921875 43.21875 23.296875 43.21875 
Q 17.71875 43.21875 13.890625 38.359375 
Q 10.0625 33.5 10.0625 25.4375 
Q 10.0625 18.0625 14.28125 12.203125 
Q 18.5 6.34375 25.6875 6.34375 
Q 30.765625 6.34375 34.71875 9.671875 
Q 36.96875 11.578125 39.796875 15.71875 
L 41.15625 14.890625 
Q 38.375 9.03125 35.296875 5.609375 
Q 29.390625 -0.921875 21.625 -0.921875 
Q 14.015625 -0.921875 8.15625 5.078125 
Q 2.296875 11.078125 2.296875 21.390625 
Q 2.296875 31.5 8.6875 38.765625 
Q 15.09375 46.046875 24.859375 46.046875 
z
M 22.703125 46.046875 
z
" id="Times-Roman-99"/>
       <path d="M 0.4375 1.609375 
Q 4.9375 2 6.390625 3.1875 
Q 7.859375 4.390625 7.859375 8.296875 
L 7.859375 30.328125 
Q 7.859375 35.15625 6.953125 37.234375 
Q 6.0625 39.3125 3.65625 39.3125 
Q 3.171875 39.3125 2.359375 39.1875 
Q 1.5625 39.0625 0.6875 38.875 
L 0.6875 40.484375 
Q 3.46875 41.453125 6.390625 42.46875 
Q 9.328125 43.5 10.453125 43.953125 
Q 12.890625 44.875 15.484375 46.046875 
Q 15.828125 46.046875 15.890625 45.796875 
Q 15.96875 45.5625 15.96875 44.78125 
L 15.96875 36.765625 
Q 19.09375 41.109375 22 43.546875 
Q 24.90625 46 28.03125 46 
Q 30.515625 46 32.078125 44.5 
Q 33.640625 43.015625 33.640625 40.765625 
Q 33.640625 38.765625 32.4375 37.390625 
Q 31.25 36.03125 29.4375 36.03125 
Q 27.59375 36.03125 25.703125 37.734375 
Q 23.828125 39.453125 22.75 39.453125 
Q 21.046875 39.453125 18.546875 36.6875 
Q 16.0625 33.9375 16.0625 31 
L 16.0625 8.984375 
Q 16.0625 4.78125 18.015625 3.140625 
Q 19.96875 1.515625 24.515625 1.609375 
L 24.515625 0 
L 0.4375 0 
z
" id="Times-Roman-114"/>
       <path d="M 22.90625 45.796875 
Q 29.78125 45.796875 34.953125 41.03125 
Q 40.140625 36.28125 40.140625 27.546875 
L 9.125 27.546875 
Q 9.625 16.21875 14.25 11.03125 
Q 18.890625 5.859375 25.25 5.859375 
Q 30.375 5.859375 33.890625 8.546875 
Q 37.40625 11.234375 40.375 16.15625 
L 42.09375 15.578125 
Q 40.09375 9.375 34.59375 4.09375 
Q 29.109375 -1.171875 21.140625 -1.171875 
Q 11.96875 -1.171875 6.953125 5.765625 
Q 1.953125 12.703125 1.953125 21.734375 
Q 1.953125 31.546875 7.765625 38.671875 
Q 13.578125 45.796875 22.90625 45.796875 
z
M 20.0625 42.234375 
Q 14.5 42.234375 11.578125 37.3125 
Q 10.015625 34.671875 9.328125 30.671875 
L 29.9375 30.671875 
Q 29.390625 35.546875 28.078125 37.9375 
Q 25.6875 42.234375 20.0625 42.234375 
z
M 22.265625 45.796875 
z
" id="Times-Roman-101"/>
       <path d="M 2.046875 1.375 
Q 6.59375 1.8125 8.203125 3.203125 
Q 9.8125 4.59375 9.8125 8.640625 
L 9.8125 56.34375 
Q 9.8125 59.578125 9.28125 60.796875 
Q 8.296875 62.84375 5.328125 62.84375 
Q 4.640625 62.84375 3.828125 62.6875 
Q 3.03125 62.546875 1.8125 62.25 
L 1.8125 63.875 
Q 8.40625 65.625 17.671875 68.5625 
Q 18.015625 68.5625 18.09375 68.265625 
Q 18.171875 67.96875 18.171875 67 
L 18.171875 8.453125 
Q 18.171875 4.203125 19.625 2.953125 
Q 21.09375 1.703125 25.6875 1.375 
L 25.6875 0 
L 2.046875 0 
z
" id="Times-Roman-108"/>
       <path d="M 8.203125 63.03125 
Q 8.203125 65.140625 9.671875 66.65625 
Q 11.140625 68.171875 13.28125 68.171875 
Q 15.375 68.171875 16.859375 66.671875 
Q 18.359375 65.1875 18.359375 63.03125 
Q 18.359375 60.9375 16.859375 59.4375 
Q 15.375 57.953125 13.28125 57.953125 
Q 11.140625 57.953125 9.671875 59.4375 
Q 8.203125 60.9375 8.203125 63.03125 
z
M 1.953125 1.375 
Q 7.171875 1.859375 8.53125 3.140625 
Q 9.90625 4.4375 9.90625 10.15625 
L 9.90625 33.453125 
Q 9.90625 36.625 9.46875 37.84375 
Q 8.734375 39.84375 6.390625 39.84375 
Q 5.859375 39.84375 5.34375 39.75 
Q 4.828125 39.65625 2.390625 38.96875 
L 2.390625 40.484375 
L 4.5 41.15625 
Q 13.03125 43.953125 16.40625 45.359375 
Q 17.78125 45.953125 18.171875 45.953125 
Q 18.265625 45.609375 18.265625 45.21875 
L 18.265625 10.15625 
Q 18.265625 4.59375 19.609375 3.171875 
Q 20.953125 1.765625 25.6875 1.375 
L 25.6875 0 
L 1.953125 0 
z
" id="Times-Roman-105"/>
       <path d="M 1.8125 1.375 
Q 5.28125 1.8125 6.671875 3.09375 
Q 8.0625 4.390625 8.0625 8.890625 
L 8.0625 33.640625 
Q 8.0625 36.765625 7.46875 38.03125 
Q 6.546875 39.890625 3.65625 39.890625 
Q 3.21875 39.890625 2.75 39.84375 
Q 2.296875 39.796875 1.609375 39.703125 
L 1.609375 41.40625 
Q 3.609375 42 11.078125 44.4375 
L 15.671875 45.953125 
Q 16.015625 45.953125 16.078125 45.703125 
Q 16.15625 45.453125 16.15625 45.015625 
L 16.15625 37.84375 
Q 20.65625 42.046875 23.1875 43.609375 
Q 27 46 31.109375 46 
Q 34.421875 46 37.15625 44.09375 
Q 42.4375 40.375 42.4375 30.859375 
L 42.4375 8.0625 
Q 42.4375 4.546875 43.84375 2.984375 
Q 45.265625 1.421875 48.578125 1.375 
L 48.578125 0 
L 27.734375 0 
L 27.734375 1.375 
Q 31.296875 1.859375 32.703125 3.34375 
Q 34.125 4.828125 34.125 9.8125 
L 34.125 30.671875 
Q 34.125 34.859375 32.5625 37.609375 
Q 31 40.375 26.8125 40.375 
Q 23.921875 40.375 20.953125 38.421875 
Q 19.28125 37.3125 16.65625 34.71875 
L 16.65625 7.375 
Q 16.65625 3.859375 18.21875 2.65625 
Q 19.78125 1.46875 23.140625 1.375 
L 23.140625 0 
L 1.8125 0 
z
M 25.046875 46 
z
" id="Times-Roman-110"/>
      </defs>
      <use xlink:href="#Times-Roman-65"/>
      <use x="72.216797" xlink:href="#Times-Roman-117"/>
      <use x="122.216797" xlink:href="#Times-Roman-116"/>
      <use x="150" xlink:href="#Times-Roman-111"/>
      <use x="200" xlink:href="#Times-Roman-99"/>
      <use x="244.384766" xlink:href="#Times-Roman-111"/>
      <use x="294.384766" xlink:href="#Times-Roman-114"/>
      <use x="327.685547" xlink:href="#Times-Roman-114"/>
      <use x="360.986328" xlink:href="#Times-Roman-101"/>
      <use x="405.371094" xlink:href="#Times-Roman-108"/>
      <use x="433.154297" xlink:href="#Times-Roman-97"/>
      <use x="477.539062" xlink:href="#Times-Roman-116"/>
      <use x="505.322266" xlink:href="#Times-Roman-105"/>
      <use x="533.105469" xlink:href="#Times-Roman-111"/>
      <use x="583.105469" xlink:href="#Times-Roman-110"/>
     </g>
    </g>
   </g>
   <g id="line2d_11">
    <path clip-path="url(#pfdc49191c9)" d="M 90.801136 26.102273 
L 107.091806 201.578247 
L 123.382476 218.04189 
L 139.673146 169.898354 
L 155.963816 158.436227 
L 172.254486 186.319801 
L 188.545156 172.317025 
L 204.835825 127.535755 
L 221.126495 202.034193 
L 237.417165 224.147727 
L 253.707835 161.937192 
L 269.998505 127.178731 
L 286.289175 202.27773 
L 302.579844 169.886297 
L 318.870514 178.692796 
L 335.161184 176.032516 
L 351.451854 180.955745 
L 367.742524 162.808775 
L 384.033194 152.111639 
L 400.323864 185.290146 
" style="fill:none;stroke:#ff0000;stroke-linecap:square;stroke-width:1.5;"/>
   </g>
   <g id="line2d_12">
    <path clip-path="url(#pfdc49191c9)" d="M 90.801136 26.102273 
L 107.091806 181.027883 
L 123.382476 178.264491 
L 139.673146 178.559618 
L 155.963816 181.553082 
L 172.254486 178.143217 
L 188.545156 177.466513 
L 204.835825 175.774798 
L 221.126495 176.992089 
L 237.417165 178.758216 
L 253.707835 177.394968 
L 269.998505 175.488272 
L 286.289175 175.633049 
L 302.579844 176.768063 
L 318.870514 175.282839 
L 335.161184 175.017699 
L 351.451854 174.43903 
L 367.742524 173.628435 
L 384.033194 173.975273 
L 400.323864 173.313252 
" style="fill:none;stroke:#1f77b4;stroke-linecap:square;stroke-width:1.5;"/>
   </g>
   <g id="patch_3">
    <path d="M 75.325 234.05 
L 75.325 16.2 
" style="fill:none;stroke:#000000;stroke-linecap:square;stroke-linejoin:miter;stroke-width:0.8;"/>
   </g>
   <g id="patch_4">
    <path d="M 415.8 234.05 
L 415.8 16.2 
" style="fill:none;stroke:#000000;stroke-linecap:square;stroke-linejoin:miter;stroke-width:0.8;"/>
   </g>
   <g id="patch_5">
    <path d="M 75.325 234.05 
L 415.8 234.05 
" style="fill:none;stroke:#000000;stroke-linecap:square;stroke-linejoin:miter;stroke-width:0.8;"/>
   </g>
   <g id="patch_6">
    <path d="M 75.325 16.2 
L 415.8 16.2 
" style="fill:none;stroke:#000000;stroke-linecap:square;stroke-linejoin:miter;stroke-width:0.8;"/>
   </g>
   <g id="legend_1">
    <g id="patch_7">
     <path d="M 236.910938 70.734375 
L 405.3 70.734375 
Q 408.3 70.734375 408.3 67.734375 
L 408.3 26.7 
Q 408.3 23.7 405.3 23.7 
L 236.910938 23.7 
Q 233.910938 23.7 233.910938 26.7 
L 233.910938 67.734375 
Q 233.910938 70.734375 236.910938 70.734375 
z
" style="fill:#ffffff;opacity:0.8;stroke:#cccccc;stroke-linejoin:miter;"/>
    </g>
    <g id="line2d_13">
     <path d="M 239.910938 34.95 
L 269.910938 34.95 
" style="fill:none;stroke:#ff0000;stroke-linecap:square;stroke-width:1.5;"/>
    </g>
    <g id="line2d_14"/>
    <g id="text_13">
     <!-- Real Data -->
     <g transform="translate(281.910938 40.2)scale(0.15 -0.15)">
      <defs>
       <path d="M 19.875 34.234375 
Q 30.671875 34.625 35.296875 36.46875 
Q 43.265625 39.75 43.265625 48.78125 
Q 43.265625 57.46875 36.140625 60.640625 
Q 32.328125 62.359375 26.03125 62.359375 
Q 21.78125 62.359375 20.828125 61.75 
Q 19.875 61.140625 19.875 58.890625 
L 19.875 34.234375 
z
M 1.125 1.8125 
Q 6.890625 2.34375 8.296875 4.046875 
Q 9.71875 5.765625 9.71875 12.015625 
L 9.71875 55.328125 
Q 9.71875 60.59375 8.125 62.234375 
Q 6.546875 63.875 1.125 64.3125 
L 1.125 66.15625 
L 28.8125 66.15625 
Q 37.453125 66.15625 43.21875 63.96875 
Q 54.15625 59.8125 54.15625 48.6875 
Q 54.15625 41.21875 49.296875 37.203125 
Q 44.4375 33.203125 36.078125 31.9375 
L 56.6875 6.59375 
Q 58.59375 4.25 60.5 3.171875 
Q 62.40625 2.09375 65.375 1.8125 
L 65.375 0 
L 49.265625 0 
L 25.4375 30.765625 
L 19.875 30.515625 
L 19.875 10.84375 
Q 19.875 5.28125 21.5625 3.78125 
Q 23.25 2.296875 28.90625 1.8125 
L 28.90625 0 
L 1.125 0 
z
" id="Times-Roman-82"/>
       <path id="Times-Roman-32"/>
       <path d="M 20.5625 7.71875 
Q 20.5625 5.28125 21.75 4.5 
Q 22.953125 3.71875 26.703125 3.71875 
Q 38.421875 3.71875 46 8.34375 
Q 57.625 15.484375 57.625 32.71875 
Q 57.625 48.09375 48.046875 55.859375 
Q 39.84375 62.5 26.3125 62.5 
Q 22.953125 62.5 21.75 61.765625 
Q 20.5625 61.03125 20.5625 58.546875 
L 20.5625 7.71875 
z
M 1.609375 1.8125 
Q 7.078125 2.390625 8.734375 3.78125 
Q 10.40625 5.171875 10.40625 10.84375 
L 10.40625 55.328125 
Q 10.40625 60.796875 8.78125 62.359375 
Q 7.171875 63.921875 1.609375 64.3125 
L 1.609375 66.15625 
L 28.5625 66.15625 
Q 42.1875 66.15625 51.609375 61.671875 
Q 68.609375 53.609375 68.609375 32.859375 
Q 68.609375 25.390625 65.546875 18.65625 
Q 62.5 11.921875 56.34375 7.28125 
Q 52.4375 4.34375 48.25 2.828125 
Q 40.578125 0 29.390625 0 
L 1.609375 0 
z
" id="Times-Roman-68"/>
      </defs>
      <use xlink:href="#Times-Roman-82"/>
      <use x="66.699219" xlink:href="#Times-Roman-101"/>
      <use x="111.083984" xlink:href="#Times-Roman-97"/>
      <use x="155.46875" xlink:href="#Times-Roman-108"/>
      <use x="183.251953" xlink:href="#Times-Roman-32"/>
      <use x="208.251953" xlink:href="#Times-Roman-68"/>
      <use x="280.46875" xlink:href="#Times-Roman-97"/>
      <use x="324.853516" xlink:href="#Times-Roman-116"/>
      <use x="352.636719" xlink:href="#Times-Roman-97"/>
     </g>
    </g>
    <g id="line2d_15">
     <path d="M 239.910938 56.217187 
L 269.910938 56.217187 
" style="fill:none;stroke:#1f77b4;stroke-linecap:square;stroke-width:1.5;"/>
    </g>
    <g id="line2d_16"/>
    <g id="text_14">
     <!-- Simulation Average -->
     <g transform="translate(281.910938 61.467187)scale(0.15 -0.15)">
      <defs>
       <path d="M 6.453125 20.125 
Q 8.984375 13.375 12.40625 9.375 
Q 18.359375 2.390625 27.203125 2.390625 
Q 31.984375 2.390625 35.46875 5.421875 
Q 38.96875 8.453125 38.96875 13.875 
Q 38.96875 18.75 35.453125 22.359375 
Q 33.15625 24.65625 25.78125 29.25 
L 17.234375 34.578125 
Q 13.375 37.015625 11.078125 39.5 
Q 6.84375 44.234375 6.84375 49.953125 
Q 6.84375 57.515625 11.859375 62.546875 
Q 16.890625 67.578125 25.203125 67.578125 
Q 28.609375 67.578125 33.421875 65.890625 
Q 38.234375 64.203125 38.921875 64.203125 
Q 40.765625 64.203125 41.46875 65.078125 
Q 42.1875 65.96875 42.578125 67.578125 
L 44.625 67.578125 
L 46.828125 46.296875 
L 44.4375 46.296875 
Q 42 55.90625 36.59375 59.71875 
Q 31.203125 63.53125 25.921875 63.53125 
Q 21.828125 63.53125 18.765625 61.109375 
Q 15.71875 58.6875 15.71875 54.390625 
Q 15.71875 50.53125 18.0625 47.796875 
Q 20.40625 45.015625 25.34375 42 
L 34.125 36.578125 
Q 42.390625 31.5 45.75 27.25 
Q 49.078125 22.953125 49.078125 17.09375 
Q 49.078125 9.234375 43.140625 3.953125 
Q 37.203125 -1.3125 27.984375 -1.3125 
Q 23.34375 -1.3125 18.28125 0.4375 
Q 13.234375 2.203125 12.5 2.203125 
Q 10.75 2.203125 10.125 1.125 
Q 9.515625 0.046875 9.328125 -1.171875 
L 7.125 -1.171875 
L 4.15625 20.125 
z
M 27.828125 67.578125 
z
" id="Times-Roman-83"/>
       <path d="M 1.609375 1.265625 
Q 5.421875 1.609375 6.6875 2.546875 
Q 8.640625 3.953125 8.640625 8.203125 
L 8.640625 33.453125 
Q 8.640625 37.0625 7.6875 38.1875 
Q 6.734375 39.3125 4.546875 39.3125 
Q 3.515625 39.3125 3 39.203125 
Q 2.484375 39.109375 1.8125 38.875 
L 1.8125 40.578125 
L 5.328125 41.75 
Q 7.234375 42.390625 11.578125 44.046875 
Q 15.921875 45.703125 16.15625 45.703125 
Q 16.40625 45.703125 16.453125 45.453125 
Q 16.5 45.21875 16.5 44.53125 
L 16.5 37.9375 
Q 21.34375 42.328125 24.859375 44.015625 
Q 28.375 45.703125 32.078125 45.703125 
Q 37.109375 45.703125 40.09375 42.28125 
Q 41.65625 40.4375 42.671875 37.25 
Q 46.296875 40.921875 48.96875 42.671875 
Q 53.609375 45.703125 58.453125 45.703125 
Q 66.3125 45.703125 68.953125 39.3125 
Q 70.453125 35.6875 70.453125 27.875 
L 70.453125 7.625 
Q 70.453125 4.15625 71.984375 2.90625 
Q 73.53125 1.65625 77.546875 1.265625 
L 77.546875 0 
L 55.515625 0 
L 55.515625 1.375 
Q 59.765625 1.765625 61.109375 3.078125 
Q 62.453125 4.390625 62.453125 8.453125 
L 62.453125 29.5 
Q 62.453125 34.234375 61.421875 36.46875 
Q 59.625 40.484375 54.34375 40.484375 
Q 51.171875 40.484375 48.046875 38.375 
Q 46.234375 37.15625 43.609375 34.46875 
L 43.609375 9.46875 
Q 43.609375 5.515625 45 3.46875 
Q 46.390625 1.421875 50.875 1.265625 
L 50.875 0 
L 28.46875 0 
L 28.46875 1.265625 
Q 33.109375 1.859375 34.375 3.515625 
Q 35.640625 5.171875 35.640625 11.671875 
L 35.640625 25.34375 
Q 35.640625 32.859375 34.671875 35.6875 
Q 33.0625 40.484375 27.828125 40.484375 
Q 24.859375 40.484375 21.96875 38.84375 
Q 19.09375 37.203125 16.890625 34.578125 
L 16.890625 7.859375 
Q 16.890625 4.15625 18.1875 2.734375 
Q 19.484375 1.3125 23.828125 1.265625 
L 23.828125 0 
L 1.609375 0 
z
" id="Times-Roman-109"/>
       <path d="M 21.484375 45.359375 
L 21.484375 43.84375 
Q 18.953125 43.5625 17.890625 43.0625 
Q 16.84375 42.578125 16.84375 40.921875 
Q 16.84375 40.140625 17.0625 39.421875 
Q 17.28125 38.71875 17.828125 37.359375 
L 27.984375 12.109375 
L 36.765625 34.46875 
Q 37.40625 36.078125 37.96875 37.828125 
Q 38.53125 39.59375 38.53125 40.53125 
Q 38.53125 42.4375 36.71875 43.265625 
Q 35.640625 43.703125 33.796875 43.84375 
L 33.796875 45.359375 
L 47.65625 45.359375 
L 47.65625 43.84375 
Q 45.265625 43.65625 44.21875 42.265625 
Q 43.171875 40.875 41.15625 35.84375 
L 27.046875 0.6875 
Q 26.65625 -0.25 26.40625 -0.578125 
Q 26.171875 -0.921875 25.734375 -0.921875 
Q 25.25 -0.921875 24.90625 -0.359375 
Q 24.5625 0.203125 24.171875 1.03125 
L 9.234375 36.765625 
Q 7.421875 41.109375 5.375 42.671875 
Q 4.15625 43.5625 1.8125 43.84375 
L 1.8125 45.359375 
z
" id="Times-Roman-118"/>
      </defs>
      <use xlink:href="#Times-Roman-83"/>
      <use x="55.615234" xlink:href="#Times-Roman-105"/>
      <use x="83.398438" xlink:href="#Times-Roman-109"/>
      <use x="161.181641" xlink:href="#Times-Roman-117"/>
      <use x="211.181641" xlink:href="#Times-Roman-108"/>
      <use x="238.964844" xlink:href="#Times-Roman-97"/>
      <use x="283.349609" xlink:href="#Times-Roman-116"/>
      <use x="311.132812" xlink:href="#Times-Roman-105"/>
      <use x="338.916016" xlink:href="#Times-Roman-111"/>
      <use x="388.916016" xlink:href="#Times-Roman-110"/>
      <use x="438.916016" xlink:href="#Times-Roman-32"/>
      <use x="463.916016" xlink:href="#Times-Roman-65"/>
      <use x="536.132812" xlink:href="#Times-Roman-118"/>
      <use x="586.132812" xlink:href="#Times-Roman-101"/>
      <use x="630.517578" xlink:href="#Times-Roman-114"/>
      <use x="663.818359" xlink:href="#Times-Roman-97"/>
      <use x="708.203125" xlink:href="#Times-Roman-103"/>
      <use x="758.203125" xlink:href="#Times-Roman-101"/>
     </g>
    </g>
   </g>
  </g>
 </g>
 <defs>
  <clipPath id="pfdc49191c9">
   <rect height="217.85" width="340.475" x="75.325" y="16.2"/>
  </clipPath>
 </defs>
</svg>
