<?xml version="1.0" encoding="utf-8" standalone="no"?>
<!DOCTYPE svg PUBLIC "-//W3C//DTD SVG 1.1//EN"
  "http://www.w3.org/Graphics/SVG/1.1/DTD/svg11.dtd">
<!-- Created with matplotlib (https://matplotlib.org/) -->
<svg height="288pt" version="1.1" viewBox="0 0 432 288" width="432pt" xmlns="http://www.w3.org/2000/svg" xmlns:xlink="http://www.w3.org/1999/xlink">
 <metadata>
  <rdf:RDF xmlns:cc="http://creativecommons.org/ns#" xmlns:dc="http://purl.org/dc/elements/1.1/" xmlns:rdf="http://www.w3.org/1999/02/22-rdf-syntax-ns#">
   <cc:Work>
    <dc:type rdf:resource="http://purl.org/dc/dcmitype/StillImage"/>
    <dc:date>2021-02-15T09:48:14.593977</dc:date>
    <dc:format>image/svg+xml</dc:format>
    <dc:creator>
     <cc:Agent>
      <dc:title>Matplotlib v3.3.2, https://matplotlib.org/</dc:title>
     </cc:Agent>
    </dc:creator>
   </cc:Work>
  </rdf:RDF>
 </metadata>
 <defs>
  <style type="text/css">*{stroke-linecap:butt;stroke-linejoin:round;}</style>
 </defs>
 <g id="figure_1">
  <g id="patch_1">
   <path d="M 0 288 
L 432 288 
L 432 0 
L 0 0 
z
" style="fill:#ffffff;"/>
  </g>
  <g id="axes_1">
   <g id="patch_2">
    <path d="M 54 230.4 
L 388.8 230.4 
L 388.8 34.56 
L 54 34.56 
z
" style="fill:#ffffff;"/>
   </g>
   <g id="matplotlib.axis_1">
    <g id="xtick_1">
     <g id="line2d_1">
      <defs>
       <path d="M 0 0 
L 0 3.5 
" id="m0974017f6a" style="stroke:#000000;stroke-width:0.8;"/>
      </defs>
      <g>
       <use style="stroke:#000000;stroke-width:0.8;" x="79.252148" xlink:href="#m0974017f6a" y="230.4"/>
      </g>
     </g>
     <g id="text_1">
      <!-- 2018-01-01 -->
      <g transform="translate(37.754881 266.667374)rotate(-30)scale(0.1 -0.1)">
       <defs>
        <path d="M 2.984375 1.125 
Q 20.84375 19.671875 27.234375 28.359375 
Q 33.640625 37.0625 33.640625 45.3125 
Q 33.640625 52.546875 29.734375 56.328125 
Q 25.828125 60.109375 20.40625 60.109375 
Q 13.71875 60.109375 9.578125 55.21875 
Q 7.28125 52.546875 5.171875 46.96875 
L 3.078125 47.40625 
Q 5.515625 58.640625 11.34375 63.015625 
Q 17.1875 67.390625 23.875 67.390625 
Q 32.125 67.390625 37.21875 62.1875 
Q 42.328125 56.984375 42.328125 49.46875 
Q 42.328125 41.453125 36.8125 34.03125 
Q 31.296875 26.609375 12.84375 7.625 
L 35.25 7.625 
Q 39.9375 7.625 41.84375 8.734375 
Q 43.75 9.859375 46.140625 14.203125 
L 47.40625 13.625 
L 42 0 
L 2.984375 0 
z
" id="Times-Roman-50"/>
        <path d="M 23.921875 1.8125 
Q 31.109375 1.8125 33.78125 9.671875 
Q 36.46875 17.53125 36.46875 32.421875 
Q 36.46875 44.28125 34.859375 51.375 
Q 31.84375 64.546875 23.53125 64.546875 
Q 15.234375 64.546875 12.15625 50.984375 
Q 10.546875 43.75 10.546875 31.9375 
Q 10.546875 20.84375 12.203125 14.203125 
Q 15.328125 1.8125 23.921875 1.8125 
z
M 23.78125 67.1875 
Q 35.015625 67.1875 41.21875 55.421875 
Q 46.140625 45.90625 46.140625 33.546875 
Q 46.140625 23.828125 43.109375 15.234375 
Q 37.40625 -0.921875 23.34375 -0.921875 
Q 13.71875 -0.921875 7.515625 7.8125 
Q 0.875 17.140625 0.875 33.15625 
Q 0.875 45.75 5.328125 54.828125 
Q 11.328125 67.1875 23.78125 67.1875 
z
" id="Times-Roman-48"/>
        <path d="M 29.59375 67.09375 
Q 29.78125 66.84375 29.796875 66.71875 
Q 29.828125 66.609375 29.828125 66.15625 
L 29.828125 7.375 
Q 29.828125 3.609375 31.828125 2.578125 
Q 33.84375 1.5625 39.3125 1.375 
L 39.3125 0 
L 11.765625 0 
L 11.765625 1.46875 
Q 17.671875 1.765625 19.484375 3.078125 
Q 21.296875 4.390625 21.296875 8.796875 
L 21.296875 54 
Q 21.296875 56.34375 20.703125 57.5625 
Q 20.125 58.796875 18.171875 58.796875 
Q 16.890625 58.796875 14.859375 58.078125 
Q 12.84375 57.375 11.078125 56.59375 
L 11.078125 57.953125 
L 29 67.09375 
L 29.59375 67.09375 
z
" id="Times-Roman-49"/>
        <path d="M 25.140625 1.65625 
Q 30.765625 1.65625 33.640625 4.78125 
Q 36.53125 7.90625 36.53125 12.59375 
Q 36.53125 17.921875 33.46875 21.21875 
Q 30.421875 24.515625 20.953125 31.203125 
Q 16.75 28.5625 14.84375 24.359375 
Q 12.9375 20.171875 12.9375 16.265625 
Q 12.9375 9.578125 16.375 5.609375 
Q 19.828125 1.65625 25.140625 1.65625 
z
M 25.78125 38.96875 
Q 30.375 42.1875 32.125 44.390625 
Q 35.15625 48.140625 35.15625 53.46875 
Q 35.15625 58.109375 32.296875 61.34375 
Q 29.4375 64.59375 23.640625 64.59375 
Q 19.140625 64.59375 16.203125 61.765625 
Q 13.28125 58.9375 13.28125 54.890625 
Q 13.28125 50.296875 16.71875 46.359375 
Q 20.171875 42.4375 25.78125 38.96875 
z
M 18.265625 33.296875 
Q 11.8125 38.484375 9.46875 41.546875 
Q 5.859375 46.234375 5.859375 51.90625 
Q 5.859375 58.34375 11.203125 62.828125 
Q 16.546875 67.328125 25.09375 67.328125 
Q 32.953125 67.328125 37.59375 63.078125 
Q 42.234375 58.84375 42.234375 53.21875 
Q 42.234375 47.515625 37.5 42.96875 
Q 34.765625 40.375 28.65625 37.015625 
Q 36.96875 30.859375 40.546875 26.296875 
Q 44.140625 21.734375 44.140625 15.53125 
Q 44.140625 8.5 38.84375 3.703125 
Q 33.546875 -1.078125 24.65625 -1.078125 
Q 16.703125 -1.078125 11.015625 3.34375 
Q 5.328125 7.765625 5.328125 14.984375 
Q 5.328125 21.1875 9.28125 25.921875 
Q 11.859375 29 18.265625 33.296875 
z
" id="Times-Roman-56"/>
        <path d="M 3.90625 25.6875 
L 28.46875 25.6875 
L 28.46875 19.4375 
L 3.90625 19.4375 
z
" id="Times-Roman-45"/>
       </defs>
       <use xlink:href="#Times-Roman-50"/>
       <use x="50" xlink:href="#Times-Roman-48"/>
       <use x="100" xlink:href="#Times-Roman-49"/>
       <use x="150" xlink:href="#Times-Roman-56"/>
       <use x="200" xlink:href="#Times-Roman-45"/>
       <use x="233.300781" xlink:href="#Times-Roman-48"/>
       <use x="283.300781" xlink:href="#Times-Roman-49"/>
       <use x="333.300781" xlink:href="#Times-Roman-45"/>
       <use x="366.601562" xlink:href="#Times-Roman-48"/>
       <use x="416.601562" xlink:href="#Times-Roman-49"/>
      </g>
     </g>
    </g>
    <g id="xtick_2">
     <g id="line2d_2">
      <g>
       <use style="stroke:#000000;stroke-width:0.8;" x="126.077323" xlink:href="#m0974017f6a" y="230.4"/>
      </g>
     </g>
     <g id="text_2">
      <!-- 2018-01-15 -->
      <g transform="translate(84.580056 266.667374)rotate(-30)scale(0.1 -0.1)">
       <defs>
        <path d="M 7.46875 8.9375 
Q 10.25 8.9375 14.765625 5.78125 
Q 19.28125 2.640625 21.734375 2.640625 
Q 27.34375 2.640625 31.546875 7.59375 
Q 35.75 12.546875 35.75 19.78125 
Q 35.75 32.421875 22.265625 37.984375 
Q 14.796875 41.0625 8.34375 41.0625 
Q 7.28125 41.0625 7 41.140625 
Q 6.734375 41.21875 6.34375 41.65625 
Q 6.453125 42.046875 6.515625 42.3125 
Q 6.59375 42.578125 6.6875 42.828125 
L 17.328125 66.15625 
L 38.28125 66.15625 
Q 39.84375 66.15625 40.6875 66.6875 
Q 41.546875 67.234375 42.921875 68.703125 
L 43.703125 68.015625 
L 39.890625 58.984375 
Q 39.703125 58.546875 38.8125 58.421875 
Q 37.9375 58.296875 36.921875 58.296875 
L 18.015625 58.296875 
L 13.875 49.75 
Q 21.875 48.390625 25.59375 47.171875 
Q 31.6875 45.125 35.796875 41.109375 
Q 39.3125 37.640625 41.109375 33.3125 
Q 42.921875 29 42.921875 24.171875 
Q 42.921875 13.375 35.234375 6.140625 
Q 27.546875 -1.078125 15.765625 -1.078125 
Q 10.984375 -1.078125 8.0625 -0.140625 
Q 3.171875 1.375 3.171875 5.28125 
Q 3.171875 6.734375 4.21875 7.828125 
Q 5.28125 8.9375 7.46875 8.9375 
z
" id="Times-Roman-53"/>
       </defs>
       <use xlink:href="#Times-Roman-50"/>
       <use x="50" xlink:href="#Times-Roman-48"/>
       <use x="100" xlink:href="#Times-Roman-49"/>
       <use x="150" xlink:href="#Times-Roman-56"/>
       <use x="200" xlink:href="#Times-Roman-45"/>
       <use x="233.300781" xlink:href="#Times-Roman-48"/>
       <use x="283.300781" xlink:href="#Times-Roman-49"/>
       <use x="333.300781" xlink:href="#Times-Roman-45"/>
       <use x="366.601562" xlink:href="#Times-Roman-49"/>
       <use x="416.601562" xlink:href="#Times-Roman-53"/>
      </g>
     </g>
    </g>
    <g id="xtick_3">
     <g id="line2d_3">
      <g>
       <use style="stroke:#000000;stroke-width:0.8;" x="182.936464" xlink:href="#m0974017f6a" y="230.4"/>
      </g>
     </g>
     <g id="text_3">
      <!-- 2018-02-01 -->
      <g transform="translate(141.439197 266.667374)rotate(-30)scale(0.1 -0.1)">
       <use xlink:href="#Times-Roman-50"/>
       <use x="50" xlink:href="#Times-Roman-48"/>
       <use x="100" xlink:href="#Times-Roman-49"/>
       <use x="150" xlink:href="#Times-Roman-56"/>
       <use x="200" xlink:href="#Times-Roman-45"/>
       <use x="233.300781" xlink:href="#Times-Roman-48"/>
       <use x="283.300781" xlink:href="#Times-Roman-50"/>
       <use x="333.300781" xlink:href="#Times-Roman-45"/>
       <use x="366.601562" xlink:href="#Times-Roman-48"/>
       <use x="416.601562" xlink:href="#Times-Roman-49"/>
      </g>
     </g>
    </g>
    <g id="xtick_4">
     <g id="line2d_4">
      <g>
       <use style="stroke:#000000;stroke-width:0.8;" x="229.761638" xlink:href="#m0974017f6a" y="230.4"/>
      </g>
     </g>
     <g id="text_4">
      <!-- 2018-02-15 -->
      <g transform="translate(188.264372 266.667374)rotate(-30)scale(0.1 -0.1)">
       <use xlink:href="#Times-Roman-50"/>
       <use x="50" xlink:href="#Times-Roman-48"/>
       <use x="100" xlink:href="#Times-Roman-49"/>
       <use x="150" xlink:href="#Times-Roman-56"/>
       <use x="200" xlink:href="#Times-Roman-45"/>
       <use x="233.300781" xlink:href="#Times-Roman-48"/>
       <use x="283.300781" xlink:href="#Times-Roman-50"/>
       <use x="333.300781" xlink:href="#Times-Roman-45"/>
       <use x="366.601562" xlink:href="#Times-Roman-49"/>
       <use x="416.601562" xlink:href="#Times-Roman-53"/>
      </g>
     </g>
    </g>
    <g id="xtick_5">
     <g id="line2d_5">
      <g>
       <use style="stroke:#000000;stroke-width:0.8;" x="276.586813" xlink:href="#m0974017f6a" y="230.4"/>
      </g>
     </g>
     <g id="text_5">
      <!-- 2018-03-01 -->
      <g transform="translate(235.089547 266.667374)rotate(-30)scale(0.1 -0.1)">
       <defs>
        <path d="M 7.765625 8.5 
Q 10.453125 8.5 14.859375 5.71875 
Q 19.28125 2.9375 22.359375 2.9375 
Q 29.203125 2.9375 32.515625 7.546875 
Q 35.84375 12.15625 35.84375 17.578125 
Q 35.84375 22.796875 33.15625 26.765625 
Q 28.609375 33.453125 17.828125 33.453125 
Q 17.1875 33.453125 16.59375 33.421875 
Q 16.015625 33.40625 15.234375 33.296875 
L 15.140625 34.578125 
Q 22.953125 37.40625 27.4375 41.0625 
Q 31.9375 44.734375 31.9375 50.734375 
Q 31.9375 56.0625 28.390625 58.84375 
Q 24.859375 61.625 20.3125 61.625 
Q 14.9375 61.625 10.84375 57.671875 
Q 8.59375 55.515625 6 51.03125 
L 4.5 51.375 
Q 6.453125 58.796875 11.765625 63.234375 
Q 17.09375 67.671875 24.078125 67.671875 
Q 31.546875 67.671875 35.625 63.5625 
Q 39.703125 59.46875 39.703125 54.109375 
Q 39.703125 49.359375 36.328125 45.40625 
Q 34.421875 43.171875 30.421875 40.375 
Q 35.109375 38.375 37.9375 35.6875 
Q 43.265625 30.5625 43.265625 22.703125 
Q 43.265625 13.421875 35.953125 6.34375 
Q 28.65625 -0.734375 15.1875 -0.734375 
Q 9.1875 -0.734375 6.765625 1.046875 
Q 4.34375 2.828125 4.34375 4.890625 
Q 4.34375 6.15625 5.140625 7.328125 
Q 5.953125 8.5 7.765625 8.5 
z
" id="Times-Roman-51"/>
       </defs>
       <use xlink:href="#Times-Roman-50"/>
       <use x="50" xlink:href="#Times-Roman-48"/>
       <use x="100" xlink:href="#Times-Roman-49"/>
       <use x="150" xlink:href="#Times-Roman-56"/>
       <use x="200" xlink:href="#Times-Roman-45"/>
       <use x="233.300781" xlink:href="#Times-Roman-48"/>
       <use x="283.300781" xlink:href="#Times-Roman-51"/>
       <use x="333.300781" xlink:href="#Times-Roman-45"/>
       <use x="366.601562" xlink:href="#Times-Roman-48"/>
       <use x="416.601562" xlink:href="#Times-Roman-49"/>
      </g>
     </g>
    </g>
    <g id="xtick_6">
     <g id="line2d_6">
      <g>
       <use style="stroke:#000000;stroke-width:0.8;" x="323.411988" xlink:href="#m0974017f6a" y="230.4"/>
      </g>
     </g>
     <g id="text_6">
      <!-- 2018-03-15 -->
      <g transform="translate(281.914721 266.667374)rotate(-30)scale(0.1 -0.1)">
       <use xlink:href="#Times-Roman-50"/>
       <use x="50" xlink:href="#Times-Roman-48"/>
       <use x="100" xlink:href="#Times-Roman-49"/>
       <use x="150" xlink:href="#Times-Roman-56"/>
       <use x="200" xlink:href="#Times-Roman-45"/>
       <use x="233.300781" xlink:href="#Times-Roman-48"/>
       <use x="283.300781" xlink:href="#Times-Roman-51"/>
       <use x="333.300781" xlink:href="#Times-Roman-45"/>
       <use x="366.601562" xlink:href="#Times-Roman-49"/>
       <use x="416.601562" xlink:href="#Times-Roman-53"/>
      </g>
     </g>
    </g>
    <g id="xtick_7">
     <g id="line2d_7">
      <g>
       <use style="stroke:#000000;stroke-width:0.8;" x="380.271129" xlink:href="#m0974017f6a" y="230.4"/>
      </g>
     </g>
     <g id="text_7">
      <!-- 2018-04-01 -->
      <g transform="translate(338.773862 266.667374)rotate(-30)scale(0.1 -0.1)">
       <defs>
        <path d="M 29.15625 57.03125 
L 5.171875 23.140625 
L 29.15625 23.140625 
z
M 32.375 67.09375 
L 37.015625 67.09375 
L 37.015625 23.140625 
L 47.21875 23.140625 
L 47.21875 16.65625 
L 37.015625 16.65625 
L 37.015625 0 
L 29.25 0 
L 29.25 16.65625 
L 1.125 16.65625 
L 1.125 23.140625 
z
" id="Times-Roman-52"/>
       </defs>
       <use xlink:href="#Times-Roman-50"/>
       <use x="50" xlink:href="#Times-Roman-48"/>
       <use x="100" xlink:href="#Times-Roman-49"/>
       <use x="150" xlink:href="#Times-Roman-56"/>
       <use x="200" xlink:href="#Times-Roman-45"/>
       <use x="233.300781" xlink:href="#Times-Roman-48"/>
       <use x="283.300781" xlink:href="#Times-Roman-52"/>
       <use x="333.300781" xlink:href="#Times-Roman-45"/>
       <use x="366.601562" xlink:href="#Times-Roman-48"/>
       <use x="416.601562" xlink:href="#Times-Roman-49"/>
      </g>
     </g>
    </g>
   </g>
   <g id="matplotlib.axis_2">
    <g id="ytick_1">
     <g id="line2d_8">
      <defs>
       <path d="M 0 0 
L -3.5 0 
" id="m9821f1a60d" style="stroke:#000000;stroke-width:0.8;"/>
      </defs>
      <g>
       <use style="stroke:#000000;stroke-width:0.8;" x="54" xlink:href="#m9821f1a60d" y="216.718886"/>
      </g>
     </g>
     <g id="text_8">
      <!-- −0.04 -->
      <g transform="translate(23.860937 220.147011)scale(0.1 -0.1)">
       <defs>
        <path d="M 2.984375 28.65625 
L 53.46875 28.65625 
L 53.46875 21.828125 
L 2.984375 21.828125 
z
" id="Times-Roman-8722"/>
        <path d="M 16.3125 -1.171875 
Q 13.96875 -1.171875 12.359375 0.453125 
Q 10.75 2.09375 10.75 4.390625 
Q 10.75 6.6875 12.375 8.296875 
Q 14.015625 9.90625 16.3125 9.90625 
Q 18.609375 9.90625 20.21875 8.296875 
Q 21.828125 6.6875 21.828125 4.390625 
Q 21.828125 2.09375 20.234375 0.453125 
Q 18.65625 -1.171875 16.3125 -1.171875 
z
" id="Times-Roman-46"/>
       </defs>
       <use xlink:href="#Times-Roman-8722"/>
       <use x="56.396484" xlink:href="#Times-Roman-48"/>
       <use x="106.396484" xlink:href="#Times-Roman-46"/>
       <use x="131.396484" xlink:href="#Times-Roman-48"/>
       <use x="181.396484" xlink:href="#Times-Roman-52"/>
      </g>
     </g>
    </g>
    <g id="ytick_2">
     <g id="line2d_9">
      <g>
       <use style="stroke:#000000;stroke-width:0.8;" x="54" xlink:href="#m9821f1a60d" y="190.780273"/>
      </g>
     </g>
     <g id="text_9">
      <!-- −0.03 -->
      <g transform="translate(23.860937 194.208398)scale(0.1 -0.1)">
       <use xlink:href="#Times-Roman-8722"/>
       <use x="56.396484" xlink:href="#Times-Roman-48"/>
       <use x="106.396484" xlink:href="#Times-Roman-46"/>
       <use x="131.396484" xlink:href="#Times-Roman-48"/>
       <use x="181.396484" xlink:href="#Times-Roman-51"/>
      </g>
     </g>
    </g>
    <g id="ytick_3">
     <g id="line2d_10">
      <g>
       <use style="stroke:#000000;stroke-width:0.8;" x="54" xlink:href="#m9821f1a60d" y="164.841661"/>
      </g>
     </g>
     <g id="text_10">
      <!-- −0.02 -->
      <g transform="translate(23.860937 168.269786)scale(0.1 -0.1)">
       <use xlink:href="#Times-Roman-8722"/>
       <use x="56.396484" xlink:href="#Times-Roman-48"/>
       <use x="106.396484" xlink:href="#Times-Roman-46"/>
       <use x="131.396484" xlink:href="#Times-Roman-48"/>
       <use x="181.396484" xlink:href="#Times-Roman-50"/>
      </g>
     </g>
    </g>
    <g id="ytick_4">
     <g id="line2d_11">
      <g>
       <use style="stroke:#000000;stroke-width:0.8;" x="54" xlink:href="#m9821f1a60d" y="138.903048"/>
      </g>
     </g>
     <g id="text_11">
      <!-- −0.01 -->
      <g transform="translate(23.860937 142.331173)scale(0.1 -0.1)">
       <use xlink:href="#Times-Roman-8722"/>
       <use x="56.396484" xlink:href="#Times-Roman-48"/>
       <use x="106.396484" xlink:href="#Times-Roman-46"/>
       <use x="131.396484" xlink:href="#Times-Roman-48"/>
       <use x="181.396484" xlink:href="#Times-Roman-49"/>
      </g>
     </g>
    </g>
    <g id="ytick_5">
     <g id="line2d_12">
      <g>
       <use style="stroke:#000000;stroke-width:0.8;" x="54" xlink:href="#m9821f1a60d" y="112.964436"/>
      </g>
     </g>
     <g id="text_12">
      <!-- 0.00 -->
      <g transform="translate(29.5 116.392561)scale(0.1 -0.1)">
       <use xlink:href="#Times-Roman-48"/>
       <use x="50" xlink:href="#Times-Roman-46"/>
       <use x="75" xlink:href="#Times-Roman-48"/>
       <use x="125" xlink:href="#Times-Roman-48"/>
      </g>
     </g>
    </g>
    <g id="ytick_6">
     <g id="line2d_13">
      <g>
       <use style="stroke:#000000;stroke-width:0.8;" x="54" xlink:href="#m9821f1a60d" y="87.025823"/>
      </g>
     </g>
     <g id="text_13">
      <!-- 0.01 -->
      <g transform="translate(29.5 90.453948)scale(0.1 -0.1)">
       <use xlink:href="#Times-Roman-48"/>
       <use x="50" xlink:href="#Times-Roman-46"/>
       <use x="75" xlink:href="#Times-Roman-48"/>
       <use x="125" xlink:href="#Times-Roman-49"/>
      </g>
     </g>
    </g>
    <g id="ytick_7">
     <g id="line2d_14">
      <g>
       <use style="stroke:#000000;stroke-width:0.8;" x="54" xlink:href="#m9821f1a60d" y="61.087211"/>
      </g>
     </g>
     <g id="text_14">
      <!-- 0.02 -->
      <g transform="translate(29.5 64.515336)scale(0.1 -0.1)">
       <use xlink:href="#Times-Roman-48"/>
       <use x="50" xlink:href="#Times-Roman-46"/>
       <use x="75" xlink:href="#Times-Roman-48"/>
       <use x="125" xlink:href="#Times-Roman-50"/>
      </g>
     </g>
    </g>
    <g id="ytick_8">
     <g id="line2d_15">
      <g>
       <use style="stroke:#000000;stroke-width:0.8;" x="54" xlink:href="#m9821f1a60d" y="35.148598"/>
      </g>
     </g>
     <g id="text_15">
      <!-- 0.03 -->
      <g transform="translate(29.5 38.576723)scale(0.1 -0.1)">
       <use xlink:href="#Times-Roman-48"/>
       <use x="50" xlink:href="#Times-Roman-46"/>
       <use x="75" xlink:href="#Times-Roman-48"/>
       <use x="125" xlink:href="#Times-Roman-51"/>
      </g>
     </g>
    </g>
    <g id="text_16">
     <!-- SPX Log Returns -->
     <g transform="translate(17.682812 167.760469)rotate(-90)scale(0.1 -0.1)">
      <defs>
       <path d="M 6.453125 20.125 
Q 8.984375 13.375 12.40625 9.375 
Q 18.359375 2.390625 27.203125 2.390625 
Q 31.984375 2.390625 35.46875 5.421875 
Q 38.96875 8.453125 38.96875 13.875 
Q 38.96875 18.75 35.453125 22.359375 
Q 33.15625 24.65625 25.78125 29.25 
L 17.234375 34.578125 
Q 13.375 37.015625 11.078125 39.5 
Q 6.84375 44.234375 6.84375 49.953125 
Q 6.84375 57.515625 11.859375 62.546875 
Q 16.890625 67.578125 25.203125 67.578125 
Q 28.609375 67.578125 33.421875 65.890625 
Q 38.234375 64.203125 38.921875 64.203125 
Q 40.765625 64.203125 41.46875 65.078125 
Q 42.1875 65.96875 42.578125 67.578125 
L 44.625 67.578125 
L 46.828125 46.296875 
L 44.4375 46.296875 
Q 42 55.90625 36.59375 59.71875 
Q 31.203125 63.53125 25.921875 63.53125 
Q 21.828125 63.53125 18.765625 61.109375 
Q 15.71875 58.6875 15.71875 54.390625 
Q 15.71875 50.53125 18.0625 47.796875 
Q 20.40625 45.015625 25.34375 42 
L 34.125 36.578125 
Q 42.390625 31.5 45.75 27.25 
Q 49.078125 22.953125 49.078125 17.09375 
Q 49.078125 9.234375 43.140625 3.953125 
Q 37.203125 -1.3125 27.984375 -1.3125 
Q 23.34375 -1.3125 18.28125 0.4375 
Q 13.234375 2.203125 12.5 2.203125 
Q 10.75 2.203125 10.125 1.125 
Q 9.515625 0.046875 9.328125 -1.171875 
L 7.125 -1.171875 
L 4.15625 20.125 
z
M 27.828125 67.578125 
z
" id="Times-Roman-83"/>
       <path d="M 43.265625 48 
Q 43.265625 57.171875 35.359375 60.59375 
Q 31.109375 62.453125 24.609375 62.453125 
Q 21.53125 62.453125 20.828125 61.84375 
Q 20.125 61.234375 20.125 59.125 
L 20.125 33.0625 
Q 22.796875 32.8125 23.625 32.765625 
Q 24.46875 32.71875 25.25 32.71875 
Q 32.125 32.71875 36.078125 34.671875 
Q 43.265625 38.234375 43.265625 48 
z
M 1.609375 1.8125 
Q 7.328125 2.34375 8.734375 4.078125 
Q 10.15625 5.8125 10.15625 12.015625 
L 10.15625 55.328125 
Q 10.15625 60.546875 8.5625 62.203125 
Q 6.984375 63.875 1.609375 64.3125 
L 1.609375 66.15625 
L 27.984375 66.15625 
Q 40.671875 66.15625 47.40625 61.21875 
Q 54.15625 56.296875 54.15625 48.25 
Q 54.15625 38.03125 46.671875 33.4375 
Q 39.203125 28.859375 27.984375 28.859375 
Q 26.375 28.859375 23.859375 28.921875 
Q 21.34375 29 20.125 29 
L 20.125 10.84375 
Q 20.125 5.171875 21.84375 3.703125 
Q 23.578125 2.25 29.59375 1.8125 
L 29.59375 0 
L 1.609375 0 
z
" id="Times-Roman-80"/>
       <path d="M 1.03125 1.8125 
Q 5.078125 2.25 7.171875 3.953125 
Q 9.28125 5.671875 15.484375 13.28125 
L 31.109375 32.515625 
L 20.015625 48.578125 
Q 12.84375 58.984375 9.9375 61.546875 
Q 7.03125 64.109375 2.203125 64.3125 
L 2.203125 66.15625 
L 32.375 66.15625 
L 32.375 64.3125 
Q 28.03125 64.15625 26.703125 63.71875 
Q 24.703125 63.09375 24.703125 60.9375 
Q 24.703125 59.578125 25.6875 57.671875 
Q 26.171875 56.6875 27.046875 55.421875 
L 37.453125 40.375 
L 48.828125 54.15625 
Q 51.3125 57.125 52.203125 58.9375 
Q 52.734375 60.015625 52.734375 60.890625 
Q 52.734375 63.09375 50.59375 63.8125 
Q 49.265625 64.265625 45.796875 64.3125 
L 45.796875 66.15625 
L 69.53125 66.15625 
L 69.53125 64.3125 
Q 65.53125 64.203125 63.328125 63.03125 
Q 59.859375 61.140625 54.734375 54.828125 
L 40.046875 36.765625 
L 59.234375 9.234375 
Q 62.3125 4.78125 64.359375 3.578125 
Q 66.40625 2.390625 70.359375 1.8125 
L 70.359375 0 
L 40.71875 0 
L 40.71875 1.953125 
Q 44.96875 2.046875 46.65625 2.6875 
Q 48.34375 3.328125 48.34375 5.125 
Q 48.34375 6.6875 46.09375 10.296875 
Q 43.84375 13.921875 33.640625 28.90625 
L 21.828125 13.96875 
Q 19.234375 10.6875 18.21875 9.1875 
Q 16.609375 6.78125 16.609375 5.609375 
Q 16.609375 3.46875 19.140625 2.59375 
Q 20.65625 2.046875 24.265625 1.8125 
L 24.265625 0 
L 1.03125 0 
z
" id="Times-Roman-88"/>
       <path id="Times-Roman-32"/>
       <path d="M 1.125 1.8125 
Q 6.640625 2.390625 8.265625 3.78125 
Q 9.90625 5.171875 9.90625 10.84375 
L 9.90625 55.328125 
Q 9.90625 60.640625 8.296875 62.28125 
Q 6.6875 63.921875 1.125 64.3125 
L 1.125 66.15625 
L 29.390625 66.15625 
L 29.390625 64.3125 
Q 23.875 64.015625 22 62.5 
Q 20.125 60.984375 20.125 56 
L 20.125 7.953125 
Q 20.125 6.296875 20.671875 5.34375 
Q 21.234375 4.390625 23.140625 4.15625 
Q 24.265625 4 25.515625 3.953125 
Q 26.765625 3.90625 30.171875 3.90625 
Q 43.5 3.90625 48.1875 6.09375 
Q 52.875 8.296875 57.28125 17.328125 
L 59.8125 17.328125 
L 54.9375 0 
L 1.125 0 
z
" id="Times-Roman-76"/>
       <path d="M 2.546875 22.65625 
Q 2.546875 32.375 8.71875 39.078125 
Q 14.890625 45.796875 24.609375 45.796875 
Q 34.28125 45.796875 40.625 39.453125 
Q 46.96875 33.109375 46.96875 22.5625 
Q 46.96875 12.84375 40.8125 5.65625 
Q 34.671875 -1.515625 24.90625 -1.515625 
Q 15.53125 -1.515625 9.03125 5.359375 
Q 2.546875 12.25 2.546875 22.65625 
z
M 23.25 42.875 
Q 19.390625 42.875 16.546875 40.328125 
Q 11.671875 35.890625 11.671875 25 
Q 11.671875 16.3125 15.59375 8.78125 
Q 19.53125 1.265625 26.515625 1.265625 
Q 31.984375 1.265625 34.9375 6.296875 
Q 37.890625 11.328125 37.890625 19.484375 
Q 37.890625 27.9375 34.125 35.40625 
Q 30.375 42.875 23.25 42.875 
z
M 25.046875 45.796875 
z
" id="Times-Roman-111"/>
       <path d="M 9.8125 -9.03125 
Q 9.8125 -13.140625 14.421875 -14.703125 
Q 19.046875 -16.265625 25 -16.265625 
Q 33.109375 -16.265625 38.1875 -13.453125 
Q 43.265625 -10.640625 43.265625 -6.546875 
Q 43.265625 -3.265625 39.15625 -2.203125 
Q 36.625 -1.5625 29.546875 -1.46875 
Q 27.734375 -1.421875 25.734375 -1.34375 
Q 23.734375 -1.265625 22.078125 -1.171875 
Q 21 -1.125 18.609375 -0.78125 
Q 16.21875 -0.4375 15.046875 -0.203125 
Q 14.453125 -0.203125 12.15625 -3.265625 
Q 9.8125 -6.390625 9.8125 -9.03125 
z
M 16.15625 16.40625 
Q 11.71875 17.875 9.25 21.625 
Q 6.78125 25.390625 6.78125 30.078125 
Q 6.78125 35.796875 11.328125 40.921875 
Q 15.875 46.046875 24.171875 46.046875 
Q 27.734375 46.046875 32.03125 44.359375 
Q 36.328125 42.671875 40.28125 42.671875 
Q 41.3125 42.671875 43.375 42.75 
Q 45.453125 42.828125 46.390625 42.828125 
L 46.96875 42.828125 
L 46.96875 38.875 
L 38.53125 38.875 
Q 39.40625 36.8125 39.890625 35.296875 
Q 40.71875 32.46875 40.71875 29.9375 
Q 40.71875 24.359375 36.109375 19.703125 
Q 31.5 15.046875 23.6875 15.046875 
Q 22.46875 15.046875 19.28125 15.484375 
Q 17.875 15.484375 15.546875 13.078125 
Q 13.234375 10.6875 13.234375 9.1875 
Q 13.234375 7.625 16.65625 6.890625 
Q 18.890625 6.390625 21.625 6.390625 
Q 34.1875 6.390625 38.671875 4.984375 
Q 46.046875 2.6875 46.046875 -4.890625 
Q 46.046875 -12.59375 37.421875 -17.1875 
Q 28.8125 -21.78125 20.015625 -21.78125 
Q 12.015625 -21.78125 7.328125 -18.53125 
Q 2.640625 -15.28125 2.640625 -11.71875 
Q 2.640625 -9.96875 3.875 -8.28125 
Q 5.125 -6.59375 8.796875 -3.265625 
L 12.015625 -0.390625 
L 12.59375 0.203125 
Q 10.359375 1.078125 9.234375 1.90625 
Q 7.28125 3.421875 7.28125 5.375 
Q 7.28125 7.171875 8.953125 9.34375 
Q 10.640625 11.53125 16.15625 16.40625 
z
M 25.4375 17.390625 
Q 28.125 17.390625 29.9375 18.84375 
Q 32.859375 21.1875 32.859375 27 
Q 32.859375 31.640625 30.484375 37.453125 
Q 28.125 43.265625 22.609375 43.265625 
Q 17.828125 43.265625 16.015625 38.71875 
Q 15.09375 36.328125 15.09375 32.8125 
Q 15.09375 26.859375 17.96875 22.125 
Q 20.84375 17.390625 25.4375 17.390625 
z
M 25.046875 46.046875 
z
" id="Times-Roman-103"/>
       <path d="M 19.875 34.234375 
Q 30.671875 34.625 35.296875 36.46875 
Q 43.265625 39.75 43.265625 48.78125 
Q 43.265625 57.46875 36.140625 60.640625 
Q 32.328125 62.359375 26.03125 62.359375 
Q 21.78125 62.359375 20.828125 61.75 
Q 19.875 61.140625 19.875 58.890625 
L 19.875 34.234375 
z
M 1.125 1.8125 
Q 6.890625 2.34375 8.296875 4.046875 
Q 9.71875 5.765625 9.71875 12.015625 
L 9.71875 55.328125 
Q 9.71875 60.59375 8.125 62.234375 
Q 6.546875 63.875 1.125 64.3125 
L 1.125 66.15625 
L 28.8125 66.15625 
Q 37.453125 66.15625 43.21875 63.96875 
Q 54.15625 59.8125 54.15625 48.6875 
Q 54.15625 41.21875 49.296875 37.203125 
Q 44.4375 33.203125 36.078125 31.9375 
L 56.6875 6.59375 
Q 58.59375 4.25 60.5 3.171875 
Q 62.40625 2.09375 65.375 1.8125 
L 65.375 0 
L 49.265625 0 
L 25.4375 30.765625 
L 19.875 30.515625 
L 19.875 10.84375 
Q 19.875 5.28125 21.5625 3.78125 
Q 23.25 2.296875 28.90625 1.8125 
L 28.90625 0 
L 1.125 0 
z
" id="Times-Roman-82"/>
       <path d="M 22.90625 45.796875 
Q 29.78125 45.796875 34.953125 41.03125 
Q 40.140625 36.28125 40.140625 27.546875 
L 9.125 27.546875 
Q 9.625 16.21875 14.25 11.03125 
Q 18.890625 5.859375 25.25 5.859375 
Q 30.375 5.859375 33.890625 8.546875 
Q 37.40625 11.234375 40.375 16.15625 
L 42.09375 15.578125 
Q 40.09375 9.375 34.59375 4.09375 
Q 29.109375 -1.171875 21.140625 -1.171875 
Q 11.96875 -1.171875 6.953125 5.765625 
Q 1.953125 12.703125 1.953125 21.734375 
Q 1.953125 31.546875 7.765625 38.671875 
Q 13.578125 45.796875 22.90625 45.796875 
z
M 20.0625 42.234375 
Q 14.5 42.234375 11.578125 37.3125 
Q 10.015625 34.671875 9.328125 30.671875 
L 29.9375 30.671875 
Q 29.390625 35.546875 28.078125 37.9375 
Q 25.6875 42.234375 20.0625 42.234375 
z
M 22.265625 45.796875 
z
" id="Times-Roman-101"/>
       <path d="M 25.4375 45.015625 
L 25.4375 41.5 
L 15.484375 41.5 
L 15.375 13.375 
Q 15.375 9.671875 16.015625 7.765625 
Q 17.1875 4.390625 20.609375 4.390625 
Q 22.359375 4.390625 23.65625 5.21875 
Q 24.953125 6.0625 26.609375 7.859375 
L 27.875 6.78125 
L 26.8125 5.328125 
Q 24.265625 1.90625 21.4375 0.484375 
Q 18.609375 -0.921875 15.96875 -0.921875 
Q 10.203125 -0.921875 8.15625 4.203125 
Q 7.03125 6.984375 7.03125 11.921875 
L 7.03125 41.5 
L 1.703125 41.5 
Q 1.46875 41.65625 1.34375 41.796875 
Q 1.21875 41.9375 1.21875 42.1875 
Q 1.21875 42.671875 1.4375 42.9375 
Q 1.65625 43.21875 2.828125 44.1875 
Q 6.203125 46.96875 7.6875 48.703125 
Q 9.1875 50.4375 14.703125 57.859375 
Q 15.328125 57.859375 15.453125 57.765625 
Q 15.578125 57.671875 15.578125 57.03125 
L 15.578125 45.015625 
z
" id="Times-Roman-116"/>
       <path d="M 15.484375 45.21875 
L 15.484375 13.96875 
Q 15.484375 10.640625 16.40625 8.640625 
Q 18.21875 4.9375 23.046875 4.9375 
Q 26.375 4.9375 29.546875 7.125 
Q 31.34375 8.34375 33.203125 10.5 
L 33.203125 37.25 
Q 33.203125 41.015625 31.734375 42.1875 
Q 30.28125 43.359375 25.875 43.609375 
L 25.875 45.21875 
L 41.65625 45.21875 
L 41.65625 10.84375 
Q 41.65625 7.515625 42.84375 6.265625 
Q 44.046875 5.03125 47.90625 5.171875 
L 47.90625 3.8125 
Q 45.21875 3.078125 43.9375 2.703125 
Q 42.671875 2.34375 39.703125 1.375 
Q 38.421875 0.921875 34.125 -0.734375 
Q 33.890625 -0.734375 33.84375 -0.515625 
Q 33.796875 -0.296875 33.796875 0 
L 33.796875 7.859375 
Q 30.46875 3.90625 27.734375 2 
Q 23.578125 -0.921875 18.953125 -0.921875 
Q 14.703125 -0.921875 10.9375 2.09375 
Q 7.125 5.078125 7.125 12.109375 
L 7.125 37.453125 
Q 7.125 41.359375 5.46875 42.671875 
Q 4.390625 43.5 0.875 43.84375 
L 0.875 45.21875 
z
M 25.046875 45.796875 
z
" id="Times-Roman-117"/>
       <path d="M 0.4375 1.609375 
Q 4.9375 2 6.390625 3.1875 
Q 7.859375 4.390625 7.859375 8.296875 
L 7.859375 30.328125 
Q 7.859375 35.15625 6.953125 37.234375 
Q 6.0625 39.3125 3.65625 39.3125 
Q 3.171875 39.3125 2.359375 39.1875 
Q 1.5625 39.0625 0.6875 38.875 
L 0.6875 40.484375 
Q 3.46875 41.453125 6.390625 42.46875 
Q 9.328125 43.5 10.453125 43.953125 
Q 12.890625 44.875 15.484375 46.046875 
Q 15.828125 46.046875 15.890625 45.796875 
Q 15.96875 45.5625 15.96875 44.78125 
L 15.96875 36.765625 
Q 19.09375 41.109375 22 43.546875 
Q 24.90625 46 28.03125 46 
Q 30.515625 46 32.078125 44.5 
Q 33.640625 43.015625 33.640625 40.765625 
Q 33.640625 38.765625 32.4375 37.390625 
Q 31.25 36.03125 29.4375 36.03125 
Q 27.59375 36.03125 25.703125 37.734375 
Q 23.828125 39.453125 22.75 39.453125 
Q 21.046875 39.453125 18.546875 36.6875 
Q 16.0625 33.9375 16.0625 31 
L 16.0625 8.984375 
Q 16.0625 4.78125 18.015625 3.140625 
Q 19.96875 1.515625 24.515625 1.609375 
L 24.515625 0 
L 0.4375 0 
z
" id="Times-Roman-114"/>
       <path d="M 1.8125 1.375 
Q 5.28125 1.8125 6.671875 3.09375 
Q 8.0625 4.390625 8.0625 8.890625 
L 8.0625 33.640625 
Q 8.0625 36.765625 7.46875 38.03125 
Q 6.546875 39.890625 3.65625 39.890625 
Q 3.21875 39.890625 2.75 39.84375 
Q 2.296875 39.796875 1.609375 39.703125 
L 1.609375 41.40625 
Q 3.609375 42 11.078125 44.4375 
L 15.671875 45.953125 
Q 16.015625 45.953125 16.078125 45.703125 
Q 16.15625 45.453125 16.15625 45.015625 
L 16.15625 37.84375 
Q 20.65625 42.046875 23.1875 43.609375 
Q 27 46 31.109375 46 
Q 34.421875 46 37.15625 44.09375 
Q 42.4375 40.375 42.4375 30.859375 
L 42.4375 8.0625 
Q 42.4375 4.546875 43.84375 2.984375 
Q 45.265625 1.421875 48.578125 1.375 
L 48.578125 0 
L 27.734375 0 
L 27.734375 1.375 
Q 31.296875 1.859375 32.703125 3.34375 
Q 34.125 4.828125 34.125 9.8125 
L 34.125 30.671875 
Q 34.125 34.859375 32.5625 37.609375 
Q 31 40.375 26.8125 40.375 
Q 23.921875 40.375 20.953125 38.421875 
Q 19.28125 37.3125 16.65625 34.71875 
L 16.65625 7.375 
Q 16.65625 3.859375 18.21875 2.65625 
Q 19.78125 1.46875 23.140625 1.375 
L 23.140625 0 
L 1.8125 0 
z
M 25.046875 46 
z
" id="Times-Roman-110"/>
       <path d="M 5.171875 15.375 
L 6.78125 15.375 
Q 7.90625 9.8125 9.8125 6.84375 
Q 13.234375 1.375 19.828125 1.375 
Q 23.484375 1.375 25.609375 3.390625 
Q 27.734375 5.421875 27.734375 8.640625 
Q 27.734375 10.6875 26.515625 12.59375 
Q 25.296875 14.5 22.21875 16.3125 
L 16.75 19.4375 
Q 10.75 22.65625 7.90625 25.921875 
Q 5.078125 29.203125 5.078125 33.640625 
Q 5.078125 39.109375 8.984375 42.625 
Q 12.890625 46.140625 18.796875 46.140625 
Q 21.390625 46.140625 24.484375 45.15625 
Q 27.59375 44.1875 27.984375 44.1875 
Q 28.859375 44.1875 29.25 44.421875 
Q 29.640625 44.671875 29.9375 45.21875 
L 31.109375 45.21875 
L 31.453125 31.59375 
L 29.9375 31.59375 
Q 28.953125 36.328125 27.296875 38.96875 
Q 24.265625 43.84375 18.5625 43.84375 
Q 15.140625 43.84375 13.1875 41.75 
Q 11.234375 39.65625 11.234375 36.8125 
Q 11.234375 32.328125 17.96875 28.8125 
L 24.421875 25.34375 
Q 34.8125 19.671875 34.8125 12.15625 
Q 34.8125 6.390625 30.484375 2.734375 
Q 26.171875 -0.921875 19.1875 -0.921875 
Q 16.265625 -0.921875 12.546875 0.046875 
Q 8.84375 1.03125 8.15625 1.03125 
Q 7.5625 1.03125 7.125 0.609375 
Q 6.6875 0.203125 6.453125 -0.390625 
L 5.171875 -0.390625 
z
M 19.484375 46.140625 
z
" id="Times-Roman-115"/>
      </defs>
      <use xlink:href="#Times-Roman-83"/>
      <use x="55.615234" xlink:href="#Times-Roman-80"/>
      <use x="111.230469" xlink:href="#Times-Roman-88"/>
      <use x="183.447266" xlink:href="#Times-Roman-32"/>
      <use x="208.447266" xlink:href="#Times-Roman-76"/>
      <use x="269.53125" xlink:href="#Times-Roman-111"/>
      <use x="319.53125" xlink:href="#Times-Roman-103"/>
      <use x="369.53125" xlink:href="#Times-Roman-32"/>
      <use x="394.53125" xlink:href="#Times-Roman-82"/>
      <use x="461.230469" xlink:href="#Times-Roman-101"/>
      <use x="505.615234" xlink:href="#Times-Roman-116"/>
      <use x="533.398438" xlink:href="#Times-Roman-117"/>
      <use x="583.398438" xlink:href="#Times-Roman-114"/>
      <use x="616.699219" xlink:href="#Times-Roman-110"/>
      <use x="666.699219" xlink:href="#Times-Roman-115"/>
     </g>
    </g>
   </g>
   <g id="line2d_16">
    <path clip-path="url(#p51d1a03b1f)" d="M 79.252148 112.964436 
L 82.596803 91.515593 
L 85.941459 96.419665 
L 89.286114 102.535706 
L 92.630769 94.783684 
L 102.664735 108.656126 
L 106.009391 109.587012 
L 109.354046 115.851004 
L 112.698701 94.783995 
L 116.043357 95.515723 
L 126.077323 112.964436 
L 129.421978 122.122616 
L 132.766633 88.657346 
L 136.111289 117.160519 
L 139.455944 101.614612 
L 149.48991 92.124409 
L 152.834565 107.330556 
L 156.179221 114.417342 
L 159.523876 111.401792 
L 162.868531 82.43044 
L 172.902498 130.485285 
L 176.247153 141.389634 
L 179.591808 111.696386 
L 182.936464 114.646033 
L 186.281119 168.56821 
L 196.315085 221.498182 
L 199.65974 68.115087 
L 203.004396 125.970415 
L 206.349051 212.203109 
L 209.693706 74.508769 
L 219.727672 77.120735 
L 223.072328 106.195698 
L 226.416983 78.43122 
L 229.761638 81.846241 
L 233.106294 111.995888 
L 243.14026 112.964436 
L 246.484915 128.160616 
L 249.82957 127.260929 
L 253.174226 110.440408 
L 256.518881 71.718726 
L 266.552847 82.646248 
L 269.897502 146.135542 
L 273.242158 141.906236 
L 276.586813 147.758402 
L 279.931469 99.842648 
L 289.965435 84.505582 
L 293.31009 106.128618 
L 296.654745 114.219843 
L 299.999401 101.413587 
L 303.344056 68.273383 
L 313.378022 116.271082 
L 316.722677 129.523414 
L 320.067333 127.855716 
L 323.411988 114.993448 
L 326.756643 108.549689 
L 336.790609 150.07232 
L 340.135265 109.123684 
L 343.47992 117.751904 
L 346.824575 179.068697 
L 350.169231 167.927855 
L 360.203197 43.461818 
L 363.547852 158.168397 
L 366.892507 120.540894 
L 370.237163 77.491367 
L 373.581818 112.964436 
" style="fill:none;stroke:#008000;stroke-linecap:square;stroke-width:1.5;"/>
   </g>
   <g id="patch_3">
    <path d="M 54 230.4 
L 54 34.56 
" style="fill:none;stroke:#000000;stroke-linecap:square;stroke-linejoin:miter;stroke-width:0.8;"/>
   </g>
   <g id="patch_4">
    <path d="M 388.8 230.4 
L 388.8 34.56 
" style="fill:none;stroke:#000000;stroke-linecap:square;stroke-linejoin:miter;stroke-width:0.8;"/>
   </g>
   <g id="patch_5">
    <path d="M 54 230.4 
L 388.8 230.4 
" style="fill:none;stroke:#000000;stroke-linecap:square;stroke-linejoin:miter;stroke-width:0.8;"/>
   </g>
   <g id="patch_6">
    <path d="M 54 34.56 
L 388.8 34.56 
" style="fill:none;stroke:#000000;stroke-linecap:square;stroke-linejoin:miter;stroke-width:0.8;"/>
   </g>
  </g>
  <g id="axes_2">
   <g id="matplotlib.axis_3">
    <g id="ytick_9">
     <g id="line2d_17">
      <defs>
       <path d="M 0 0 
L 3.5 0 
" id="m450c1ec2c3" style="stroke:#000000;stroke-width:0.8;"/>
      </defs>
      <g>
       <use style="stroke:#000000;stroke-width:0.8;" x="388.8" xlink:href="#m450c1ec2c3" y="216.126123"/>
      </g>
     </g>
     <g id="text_17">
      <!-- 10 -->
      <g transform="translate(395.8 219.554248)scale(0.1 -0.1)">
       <use xlink:href="#Times-Roman-49"/>
       <use x="50" xlink:href="#Times-Roman-48"/>
      </g>
     </g>
    </g>
    <g id="ytick_10">
     <g id="line2d_18">
      <g>
       <use style="stroke:#000000;stroke-width:0.8;" x="388.8" xlink:href="#m450c1ec2c3" y="184.525774"/>
      </g>
     </g>
     <g id="text_18">
      <!-- 15 -->
      <g transform="translate(395.8 187.953899)scale(0.1 -0.1)">
       <use xlink:href="#Times-Roman-49"/>
       <use x="50" xlink:href="#Times-Roman-53"/>
      </g>
     </g>
    </g>
    <g id="ytick_11">
     <g id="line2d_19">
      <g>
       <use style="stroke:#000000;stroke-width:0.8;" x="388.8" xlink:href="#m450c1ec2c3" y="152.925426"/>
      </g>
     </g>
     <g id="text_19">
      <!-- 20 -->
      <g transform="translate(395.8 156.353551)scale(0.1 -0.1)">
       <use xlink:href="#Times-Roman-50"/>
       <use x="50" xlink:href="#Times-Roman-48"/>
      </g>
     </g>
    </g>
    <g id="ytick_12">
     <g id="line2d_20">
      <g>
       <use style="stroke:#000000;stroke-width:0.8;" x="388.8" xlink:href="#m450c1ec2c3" y="121.325077"/>
      </g>
     </g>
     <g id="text_20">
      <!-- 25 -->
      <g transform="translate(395.8 124.753202)scale(0.1 -0.1)">
       <use xlink:href="#Times-Roman-50"/>
       <use x="50" xlink:href="#Times-Roman-53"/>
      </g>
     </g>
    </g>
    <g id="ytick_13">
     <g id="line2d_21">
      <g>
       <use style="stroke:#000000;stroke-width:0.8;" x="388.8" xlink:href="#m450c1ec2c3" y="89.724728"/>
      </g>
     </g>
     <g id="text_21">
      <!-- 30 -->
      <g transform="translate(395.8 93.152853)scale(0.1 -0.1)">
       <use xlink:href="#Times-Roman-51"/>
       <use x="50" xlink:href="#Times-Roman-48"/>
      </g>
     </g>
    </g>
    <g id="ytick_14">
     <g id="line2d_22">
      <g>
       <use style="stroke:#000000;stroke-width:0.8;" x="388.8" xlink:href="#m450c1ec2c3" y="58.12438"/>
      </g>
     </g>
     <g id="text_22">
      <!-- 35 -->
      <g transform="translate(395.8 61.552505)scale(0.1 -0.1)">
       <use xlink:href="#Times-Roman-51"/>
       <use x="50" xlink:href="#Times-Roman-53"/>
      </g>
     </g>
    </g>
    <g id="text_23">
     <!-- VIX Index -->
     <g transform="translate(416.65625 154.001094)rotate(-90)scale(0.1 -0.1)">
      <defs>
       <path d="M 28.21875 66.15625 
L 28.21875 64.3125 
Q 24.46875 64.265625 23.09375 63.8125 
Q 20.703125 63.03125 20.703125 60.640625 
Q 20.703125 59.421875 21.546875 57.21875 
Q 22.40625 55.03125 24.75 49.859375 
L 40.375 15.046875 
L 54.59375 52.734375 
Q 55.515625 55.21875 56 56.921875 
Q 56.5 58.640625 56.5 59.71875 
Q 56.5 62.59375 54 63.625 
Q 52.546875 64.203125 49.171875 64.3125 
L 49.171875 66.15625 
L 69.625 66.15625 
L 69.625 64.453125 
Q 66.453125 64.015625 64.9375 62.75 
Q 62.640625 60.84375 60.40625 55.078125 
L 38.28125 -1.171875 
L 36.765625 -1.171875 
L 12.109375 53.8125 
Q 8.984375 60.796875 7.09375 62.5 
Q 5.21875 64.203125 1.609375 64.453125 
L 1.609375 66.15625 
z
" id="Times-Roman-86"/>
       <path d="M 1.609375 1.8125 
Q 7.71875 2.25 9.515625 3.640625 
Q 11.328125 5.03125 11.328125 10.84375 
L 11.328125 55.328125 
Q 11.328125 60.84375 9.515625 62.421875 
Q 7.71875 64.015625 1.609375 64.3125 
L 1.609375 66.15625 
L 31.203125 66.15625 
L 31.203125 64.3125 
Q 25.09375 64.015625 23.28125 62.421875 
Q 21.484375 60.84375 21.484375 55.328125 
L 21.484375 10.84375 
Q 21.484375 5.03125 23.28125 3.640625 
Q 25.09375 2.25 31.203125 1.8125 
L 31.203125 0 
L 1.609375 0 
z
M 16.40625 66.15625 
z
" id="Times-Roman-73"/>
       <path d="M 23.6875 46.140625 
Q 27.25 46.140625 30.21875 44.578125 
Q 32.171875 43.5625 33.984375 41.75 
L 33.984375 57.28125 
Q 33.984375 60.25 33.328125 61.375 
Q 32.671875 62.5 30.171875 62.5 
Q 29.59375 62.5 29.15625 62.453125 
Q 28.71875 62.40625 27.203125 62.25 
L 27.203125 63.875 
L 31.203125 64.890625 
Q 33.40625 65.484375 35.59375 66.109375 
Q 37.796875 66.75 39.453125 67.328125 
Q 40.234375 67.578125 42.046875 68.265625 
L 42.328125 68.171875 
L 42.234375 63.03125 
Q 42.1875 60.25 42.140625 57.296875 
Q 42.09375 54.34375 42.09375 51.46875 
L 42 11.578125 
Q 42 8.40625 42.78125 7.125 
Q 43.5625 5.859375 46.921875 5.859375 
Q 47.46875 5.859375 48 5.875 
Q 48.53125 5.90625 49.078125 6 
L 49.078125 4.390625 
Q 48.78125 4.296875 42 1.953125 
L 34.328125 -0.921875 
L 33.984375 -0.484375 
L 33.984375 5.515625 
Q 31.25 2.546875 29.25 1.265625 
Q 25.6875 -0.921875 21 -0.921875 
Q 12.703125 -0.921875 7.546875 5.5 
Q 2.390625 11.921875 2.390625 20.359375 
Q 2.390625 30.953125 8.5625 38.546875 
Q 14.75 46.140625 23.6875 46.140625 
z
M 25.484375 4.34375 
Q 29.296875 4.34375 31.640625 6.59375 
Q 33.984375 8.84375 33.984375 10.84375 
L 33.984375 31.78125 
Q 33.984375 38.140625 30.59375 40.75 
Q 27.203125 43.359375 23.96875 43.359375 
Q 17.828125 43.359375 14.40625 37.90625 
Q 10.984375 32.46875 10.984375 24.515625 
Q 10.984375 16.65625 14.625 10.5 
Q 18.265625 4.34375 25.484375 4.34375 
z
" id="Times-Roman-100"/>
       <path d="M 23.140625 44.875 
L 23.140625 43.5 
Q 21.296875 43.453125 20 42.984375 
Q 18.703125 42.53125 18.703125 41.0625 
Q 18.703125 40.140625 21.296875 35.84375 
Q 22.65625 33.59375 24.75 30.328125 
Q 27.640625 34.28125 29.046875 36.53125 
Q 31.453125 40.140625 31.453125 41.21875 
Q 31.453125 42.484375 30.421875 42.921875 
Q 29.390625 43.359375 27.546875 43.5 
L 27.546875 44.875 
L 43.265625 44.875 
L 43.265625 43.5 
Q 40.765625 43.3125 38.609375 42.15625 
Q 36.46875 41.015625 35.15625 39.109375 
L 26.8125 27.046875 
L 39.703125 7.515625 
Q 42.1875 3.71875 43.921875 2.59375 
Q 45.65625 1.46875 47.90625 1.375 
L 47.90625 0 
L 27.734375 0 
L 27.734375 1.375 
L 29.15625 1.46875 
Q 30.28125 1.5625 31.03125 2.140625 
Q 31.78125 2.734375 31.78125 3.609375 
Q 31.78125 4.546875 29.9375 7.71875 
Q 29.046875 9.28125 27.296875 11.96875 
Q 26.46875 13.28125 24.828125 15.625 
Q 23.1875 17.96875 22.078125 19.625 
L 14.203125 7.375 
Q 12.796875 5.171875 12.453125 4.4375 
Q 12.109375 3.71875 12.109375 3.21875 
Q 12.109375 2.296875 12.859375 2 
Q 13.625 1.703125 16.15625 1.375 
L 16.15625 0 
L 1.703125 0 
L 1.703125 1.375 
Q 4.34375 1.90625 5.609375 2.734375 
Q 6.890625 3.5625 8.984375 6.59375 
L 20.359375 23.140625 
L 10.984375 37.359375 
Q 8.15625 41.609375 7.078125 42.390625 
Q 6 43.171875 2.390625 43.5 
L 2.390625 44.875 
z
" id="Times-Roman-120"/>
      </defs>
      <use xlink:href="#Times-Roman-86"/>
      <use x="72.216797" xlink:href="#Times-Roman-73"/>
      <use x="105.517578" xlink:href="#Times-Roman-88"/>
      <use x="177.734375" xlink:href="#Times-Roman-32"/>
      <use x="202.734375" xlink:href="#Times-Roman-73"/>
      <use x="236.035156" xlink:href="#Times-Roman-110"/>
      <use x="286.035156" xlink:href="#Times-Roman-100"/>
      <use x="336.035156" xlink:href="#Times-Roman-101"/>
      <use x="380.419922" xlink:href="#Times-Roman-120"/>
     </g>
    </g>
   </g>
   <g id="line2d_23">
    <path clip-path="url(#p51d1a03b1f)" d="M 69.218182 209.55325 
L 79.252148 209.55325 
L 82.596803 217.579739 
L 85.941459 221.498182 
L 89.286114 221.055777 
L 92.630769 221.055777 
L 102.664735 219.159756 
L 106.009391 215.620517 
L 109.354046 217.263735 
L 112.698701 216.884531 
L 116.043357 215.114911 
L 126.077323 215.114911 
L 129.421978 205.634807 
L 132.766633 204.054789 
L 136.111289 202.095568 
L 139.455944 208.099634 
L 149.48991 209.616451 
L 152.834565 209.174046 
L 156.179221 206.83562 
L 159.523876 206.140412 
L 162.868531 209.300447 
L 172.902498 191.857055 
L 176.247153 185.852989 
L 179.591808 193.753076 
L 182.936464 194.195481 
L 186.281119 169.926419 
L 196.315085 43.461818 
L 199.65974 89.85113 
L 203.004396 104.071287 
L 206.349051 67.857294 
L 209.693706 95.6656 
L 219.727672 117.469828 
L 223.072328 121.514685 
L 226.416983 157.602277 
L 229.761638 158.423892 
L 233.106294 156.338269 
L 243.14026 156.338269 
L 246.484915 149.133384 
L 249.82957 152.799024 
L 253.174226 161.015121 
L 256.518881 175.10887 
L 266.552847 179.469718 
L 269.897502 161.836724 
L 273.242158 153.873436 
L 276.586813 137.31486 
L 279.931469 155.516654 
L 289.965435 160.951914 
L 293.31009 163.290333 
L 296.654745 167.082382 
L 299.999401 174.79286 
L 303.344056 186.800999 
L 313.378022 179.59612 
L 316.722677 175.99368 
L 320.067333 170.432019 
L 323.411988 174.476863 
L 326.756643 179.469718 
L 336.790609 159.119094 
L 340.135265 164.301545 
L 343.47992 166.450368 
L 346.824575 131.816393 
L 350.169231 122.14668 
L 360.203197 146.415747 
L 363.547852 137.125251 
L 366.892507 134.786819 
L 370.237163 153.115034 
" style="fill:none;stroke:#0000ff;stroke-linecap:square;stroke-width:1.5;"/>
   </g>
   <g id="patch_7">
    <path d="M 54 230.4 
L 54 34.56 
" style="fill:none;stroke:#000000;stroke-linecap:square;stroke-linejoin:miter;stroke-width:0.8;"/>
   </g>
   <g id="patch_8">
    <path d="M 388.8 230.4 
L 388.8 34.56 
" style="fill:none;stroke:#000000;stroke-linecap:square;stroke-linejoin:miter;stroke-width:0.8;"/>
   </g>
   <g id="patch_9">
    <path d="M 54 230.4 
L 388.8 230.4 
" style="fill:none;stroke:#000000;stroke-linecap:square;stroke-linejoin:miter;stroke-width:0.8;"/>
   </g>
   <g id="patch_10">
    <path d="M 54 34.56 
L 388.8 34.56 
" style="fill:none;stroke:#000000;stroke-linecap:square;stroke-linejoin:miter;stroke-width:0.8;"/>
   </g>
   <g id="legend_1">
    <g id="patch_11">
     <path d="M 331.45625 225.4 
L 381.8 225.4 
Q 383.8 225.4 383.8 223.4 
L 383.8 196.04375 
Q 383.8 194.04375 381.8 194.04375 
L 331.45625 194.04375 
Q 329.45625 194.04375 329.45625 196.04375 
L 329.45625 223.4 
Q 329.45625 225.4 331.45625 225.4 
z
" style="fill:#ffffff;opacity:0.8;stroke:#cccccc;stroke-linejoin:miter;"/>
    </g>
    <g id="line2d_24">
     <path d="M 333.45625 201.54375 
L 353.45625 201.54375 
" style="fill:none;stroke:#008000;stroke-linecap:square;stroke-width:1.5;"/>
    </g>
    <g id="line2d_25"/>
    <g id="text_24">
     <!-- SPX -->
     <g transform="translate(361.45625 205.04375)scale(0.1 -0.1)">
      <use xlink:href="#Times-Roman-83"/>
      <use x="55.615234" xlink:href="#Times-Roman-80"/>
      <use x="111.230469" xlink:href="#Times-Roman-88"/>
     </g>
    </g>
    <g id="line2d_26">
     <path d="M 333.45625 215.721875 
L 353.45625 215.721875 
" style="fill:none;stroke:#0000ff;stroke-linecap:square;stroke-width:1.5;"/>
    </g>
    <g id="line2d_27"/>
    <g id="text_25">
     <!-- VIX -->
     <g transform="translate(361.45625 219.221875)scale(0.1 -0.1)">
      <use xlink:href="#Times-Roman-86"/>
      <use x="72.216797" xlink:href="#Times-Roman-73"/>
      <use x="105.517578" xlink:href="#Times-Roman-88"/>
     </g>
    </g>
   </g>
  </g>
 </g>
 <defs>
  <clipPath id="p51d1a03b1f">
   <rect height="195.84" width="334.8" x="54" y="34.56"/>
  </clipPath>
 </defs>
</svg>
