<?xml version="1.0" encoding="utf-8" standalone="no"?>
<!DOCTYPE svg PUBLIC "-//W3C//DTD SVG 1.1//EN"
  "http://www.w3.org/Graphics/SVG/1.1/DTD/svg11.dtd">
<!-- Created with matplotlib (https://matplotlib.org/) -->
<svg height="288pt" version="1.1" viewBox="0 0 432 288" width="432pt" xmlns="http://www.w3.org/2000/svg" xmlns:xlink="http://www.w3.org/1999/xlink">
 <metadata>
  <rdf:RDF xmlns:cc="http://creativecommons.org/ns#" xmlns:dc="http://purl.org/dc/elements/1.1/" xmlns:rdf="http://www.w3.org/1999/02/22-rdf-syntax-ns#">
   <cc:Work>
    <dc:type rdf:resource="http://purl.org/dc/dcmitype/StillImage"/>
    <dc:date>2021-02-05T19:06:48.362131</dc:date>
    <dc:format>image/svg+xml</dc:format>
    <dc:creator>
     <cc:Agent>
      <dc:title>Matplotlib v3.3.2, https://matplotlib.org/</dc:title>
     </cc:Agent>
    </dc:creator>
   </cc:Work>
  </rdf:RDF>
 </metadata>
 <defs>
  <style type="text/css">*{stroke-linecap:butt;stroke-linejoin:round;}</style>
 </defs>
 <g id="figure_1">
  <g id="patch_1">
   <path d="M 0 288 
L 432 288 
L 432 0 
L 0 0 
z
" style="fill:#ffffff;"/>
  </g>
  <g id="axes_1">
   <g id="patch_2">
    <path d="M 27.8 230.336855 
L 409.569254 230.336855 
L 409.569254 10.8 
L 27.8 10.8 
z
" style="fill:#ffffff;"/>
   </g>
   <g id="matplotlib.axis_1">
    <g id="xtick_1">
     <g id="line2d_1">
      <defs>
       <path d="M 0 0 
L 0 3.5 
" id="m0ef016cc3a" style="stroke:#000000;stroke-width:0.8;"/>
      </defs>
      <g>
       <use style="stroke:#000000;stroke-width:0.8;" x="45.153148" xlink:href="#m0ef016cc3a" y="230.336855"/>
      </g>
     </g>
     <g id="text_1">
      <!-- 2018-01-01 -->
      <g transform="translate(30.310535 275.178117)rotate(-45)scale(0.1 -0.1)">
       <defs>
        <path d="M 2.984375 1.125 
Q 20.84375 19.671875 27.234375 28.359375 
Q 33.640625 37.0625 33.640625 45.3125 
Q 33.640625 52.546875 29.734375 56.328125 
Q 25.828125 60.109375 20.40625 60.109375 
Q 13.71875 60.109375 9.578125 55.21875 
Q 7.28125 52.546875 5.171875 46.96875 
L 3.078125 47.40625 
Q 5.515625 58.640625 11.34375 63.015625 
Q 17.1875 67.390625 23.875 67.390625 
Q 32.125 67.390625 37.21875 62.1875 
Q 42.328125 56.984375 42.328125 49.46875 
Q 42.328125 41.453125 36.8125 34.03125 
Q 31.296875 26.609375 12.84375 7.625 
L 35.25 7.625 
Q 39.9375 7.625 41.84375 8.734375 
Q 43.75 9.859375 46.140625 14.203125 
L 47.40625 13.625 
L 42 0 
L 2.984375 0 
z
" id="Times-Roman-50"/>
        <path d="M 23.921875 1.8125 
Q 31.109375 1.8125 33.78125 9.671875 
Q 36.46875 17.53125 36.46875 32.421875 
Q 36.46875 44.28125 34.859375 51.375 
Q 31.84375 64.546875 23.53125 64.546875 
Q 15.234375 64.546875 12.15625 50.984375 
Q 10.546875 43.75 10.546875 31.9375 
Q 10.546875 20.84375 12.203125 14.203125 
Q 15.328125 1.8125 23.921875 1.8125 
z
M 23.78125 67.1875 
Q 35.015625 67.1875 41.21875 55.421875 
Q 46.140625 45.90625 46.140625 33.546875 
Q 46.140625 23.828125 43.109375 15.234375 
Q 37.40625 -0.921875 23.34375 -0.921875 
Q 13.71875 -0.921875 7.515625 7.8125 
Q 0.875 17.140625 0.875 33.15625 
Q 0.875 45.75 5.328125 54.828125 
Q 11.328125 67.1875 23.78125 67.1875 
z
" id="Times-Roman-48"/>
        <path d="M 29.59375 67.09375 
Q 29.78125 66.84375 29.796875 66.71875 
Q 29.828125 66.609375 29.828125 66.15625 
L 29.828125 7.375 
Q 29.828125 3.609375 31.828125 2.578125 
Q 33.84375 1.5625 39.3125 1.375 
L 39.3125 0 
L 11.765625 0 
L 11.765625 1.46875 
Q 17.671875 1.765625 19.484375 3.078125 
Q 21.296875 4.390625 21.296875 8.796875 
L 21.296875 54 
Q 21.296875 56.34375 20.703125 57.5625 
Q 20.125 58.796875 18.171875 58.796875 
Q 16.890625 58.796875 14.859375 58.078125 
Q 12.84375 57.375 11.078125 56.59375 
L 11.078125 57.953125 
L 29 67.09375 
L 29.59375 67.09375 
z
" id="Times-Roman-49"/>
        <path d="M 25.140625 1.65625 
Q 30.765625 1.65625 33.640625 4.78125 
Q 36.53125 7.90625 36.53125 12.59375 
Q 36.53125 17.921875 33.46875 21.21875 
Q 30.421875 24.515625 20.953125 31.203125 
Q 16.75 28.5625 14.84375 24.359375 
Q 12.9375 20.171875 12.9375 16.265625 
Q 12.9375 9.578125 16.375 5.609375 
Q 19.828125 1.65625 25.140625 1.65625 
z
M 25.78125 38.96875 
Q 30.375 42.1875 32.125 44.390625 
Q 35.15625 48.140625 35.15625 53.46875 
Q 35.15625 58.109375 32.296875 61.34375 
Q 29.4375 64.59375 23.640625 64.59375 
Q 19.140625 64.59375 16.203125 61.765625 
Q 13.28125 58.9375 13.28125 54.890625 
Q 13.28125 50.296875 16.71875 46.359375 
Q 20.171875 42.4375 25.78125 38.96875 
z
M 18.265625 33.296875 
Q 11.8125 38.484375 9.46875 41.546875 
Q 5.859375 46.234375 5.859375 51.90625 
Q 5.859375 58.34375 11.203125 62.828125 
Q 16.546875 67.328125 25.09375 67.328125 
Q 32.953125 67.328125 37.59375 63.078125 
Q 42.234375 58.84375 42.234375 53.21875 
Q 42.234375 47.515625 37.5 42.96875 
Q 34.765625 40.375 28.65625 37.015625 
Q 36.96875 30.859375 40.546875 26.296875 
Q 44.140625 21.734375 44.140625 15.53125 
Q 44.140625 8.5 38.84375 3.703125 
Q 33.546875 -1.078125 24.65625 -1.078125 
Q 16.703125 -1.078125 11.015625 3.34375 
Q 5.328125 7.765625 5.328125 14.984375 
Q 5.328125 21.1875 9.28125 25.921875 
Q 11.859375 29 18.265625 33.296875 
z
" id="Times-Roman-56"/>
        <path d="M 3.90625 25.6875 
L 28.46875 25.6875 
L 28.46875 19.4375 
L 3.90625 19.4375 
z
" id="Times-Roman-45"/>
       </defs>
       <use xlink:href="#Times-Roman-50"/>
       <use x="50" xlink:href="#Times-Roman-48"/>
       <use x="100" xlink:href="#Times-Roman-49"/>
       <use x="150" xlink:href="#Times-Roman-56"/>
       <use x="200" xlink:href="#Times-Roman-45"/>
       <use x="233.300781" xlink:href="#Times-Roman-48"/>
       <use x="283.300781" xlink:href="#Times-Roman-49"/>
       <use x="333.300781" xlink:href="#Times-Roman-45"/>
       <use x="366.601562" xlink:href="#Times-Roman-48"/>
       <use x="416.601562" xlink:href="#Times-Roman-49"/>
      </g>
     </g>
    </g>
    <g id="xtick_2">
     <g id="line2d_2">
      <g>
       <use style="stroke:#000000;stroke-width:0.8;" x="100.367709" xlink:href="#m0ef016cc3a" y="230.336855"/>
      </g>
     </g>
     <g id="text_2">
      <!-- 2018-01-15 -->
      <g transform="translate(85.525096 275.178117)rotate(-45)scale(0.1 -0.1)">
       <defs>
        <path d="M 7.46875 8.9375 
Q 10.25 8.9375 14.765625 5.78125 
Q 19.28125 2.640625 21.734375 2.640625 
Q 27.34375 2.640625 31.546875 7.59375 
Q 35.75 12.546875 35.75 19.78125 
Q 35.75 32.421875 22.265625 37.984375 
Q 14.796875 41.0625 8.34375 41.0625 
Q 7.28125 41.0625 7 41.140625 
Q 6.734375 41.21875 6.34375 41.65625 
Q 6.453125 42.046875 6.515625 42.3125 
Q 6.59375 42.578125 6.6875 42.828125 
L 17.328125 66.15625 
L 38.28125 66.15625 
Q 39.84375 66.15625 40.6875 66.6875 
Q 41.546875 67.234375 42.921875 68.703125 
L 43.703125 68.015625 
L 39.890625 58.984375 
Q 39.703125 58.546875 38.8125 58.421875 
Q 37.9375 58.296875 36.921875 58.296875 
L 18.015625 58.296875 
L 13.875 49.75 
Q 21.875 48.390625 25.59375 47.171875 
Q 31.6875 45.125 35.796875 41.109375 
Q 39.3125 37.640625 41.109375 33.3125 
Q 42.921875 29 42.921875 24.171875 
Q 42.921875 13.375 35.234375 6.140625 
Q 27.546875 -1.078125 15.765625 -1.078125 
Q 10.984375 -1.078125 8.0625 -0.140625 
Q 3.171875 1.375 3.171875 5.28125 
Q 3.171875 6.734375 4.21875 7.828125 
Q 5.28125 8.9375 7.46875 8.9375 
z
" id="Times-Roman-53"/>
       </defs>
       <use xlink:href="#Times-Roman-50"/>
       <use x="50" xlink:href="#Times-Roman-48"/>
       <use x="100" xlink:href="#Times-Roman-49"/>
       <use x="150" xlink:href="#Times-Roman-56"/>
       <use x="200" xlink:href="#Times-Roman-45"/>
       <use x="233.300781" xlink:href="#Times-Roman-48"/>
       <use x="283.300781" xlink:href="#Times-Roman-49"/>
       <use x="333.300781" xlink:href="#Times-Roman-45"/>
       <use x="366.601562" xlink:href="#Times-Roman-49"/>
       <use x="416.601562" xlink:href="#Times-Roman-53"/>
      </g>
     </g>
    </g>
    <g id="xtick_3">
     <g id="line2d_3">
      <g>
       <use style="stroke:#000000;stroke-width:0.8;" x="167.413963" xlink:href="#m0ef016cc3a" y="230.336855"/>
      </g>
     </g>
     <g id="text_3">
      <!-- 2018-02-01 -->
      <g transform="translate(152.571349 275.178117)rotate(-45)scale(0.1 -0.1)">
       <use xlink:href="#Times-Roman-50"/>
       <use x="50" xlink:href="#Times-Roman-48"/>
       <use x="100" xlink:href="#Times-Roman-49"/>
       <use x="150" xlink:href="#Times-Roman-56"/>
       <use x="200" xlink:href="#Times-Roman-45"/>
       <use x="233.300781" xlink:href="#Times-Roman-48"/>
       <use x="283.300781" xlink:href="#Times-Roman-50"/>
       <use x="333.300781" xlink:href="#Times-Roman-45"/>
       <use x="366.601562" xlink:href="#Times-Roman-48"/>
       <use x="416.601562" xlink:href="#Times-Roman-49"/>
      </g>
     </g>
    </g>
    <g id="xtick_4">
     <g id="line2d_4">
      <g>
       <use style="stroke:#000000;stroke-width:0.8;" x="222.628524" xlink:href="#m0ef016cc3a" y="230.336855"/>
      </g>
     </g>
     <g id="text_4">
      <!-- 2018-02-15 -->
      <g transform="translate(207.785911 275.178117)rotate(-45)scale(0.1 -0.1)">
       <use xlink:href="#Times-Roman-50"/>
       <use x="50" xlink:href="#Times-Roman-48"/>
       <use x="100" xlink:href="#Times-Roman-49"/>
       <use x="150" xlink:href="#Times-Roman-56"/>
       <use x="200" xlink:href="#Times-Roman-45"/>
       <use x="233.300781" xlink:href="#Times-Roman-48"/>
       <use x="283.300781" xlink:href="#Times-Roman-50"/>
       <use x="333.300781" xlink:href="#Times-Roman-45"/>
       <use x="366.601562" xlink:href="#Times-Roman-49"/>
       <use x="416.601562" xlink:href="#Times-Roman-53"/>
      </g>
     </g>
    </g>
    <g id="xtick_5">
     <g id="line2d_5">
      <g>
       <use style="stroke:#000000;stroke-width:0.8;" x="277.843086" xlink:href="#m0ef016cc3a" y="230.336855"/>
      </g>
     </g>
     <g id="text_5">
      <!-- 2018-03-01 -->
      <g transform="translate(263.000473 275.178117)rotate(-45)scale(0.1 -0.1)">
       <defs>
        <path d="M 7.765625 8.5 
Q 10.453125 8.5 14.859375 5.71875 
Q 19.28125 2.9375 22.359375 2.9375 
Q 29.203125 2.9375 32.515625 7.546875 
Q 35.84375 12.15625 35.84375 17.578125 
Q 35.84375 22.796875 33.15625 26.765625 
Q 28.609375 33.453125 17.828125 33.453125 
Q 17.1875 33.453125 16.59375 33.421875 
Q 16.015625 33.40625 15.234375 33.296875 
L 15.140625 34.578125 
Q 22.953125 37.40625 27.4375 41.0625 
Q 31.9375 44.734375 31.9375 50.734375 
Q 31.9375 56.0625 28.390625 58.84375 
Q 24.859375 61.625 20.3125 61.625 
Q 14.9375 61.625 10.84375 57.671875 
Q 8.59375 55.515625 6 51.03125 
L 4.5 51.375 
Q 6.453125 58.796875 11.765625 63.234375 
Q 17.09375 67.671875 24.078125 67.671875 
Q 31.546875 67.671875 35.625 63.5625 
Q 39.703125 59.46875 39.703125 54.109375 
Q 39.703125 49.359375 36.328125 45.40625 
Q 34.421875 43.171875 30.421875 40.375 
Q 35.109375 38.375 37.9375 35.6875 
Q 43.265625 30.5625 43.265625 22.703125 
Q 43.265625 13.421875 35.953125 6.34375 
Q 28.65625 -0.734375 15.1875 -0.734375 
Q 9.1875 -0.734375 6.765625 1.046875 
Q 4.34375 2.828125 4.34375 4.890625 
Q 4.34375 6.15625 5.140625 7.328125 
Q 5.953125 8.5 7.765625 8.5 
z
" id="Times-Roman-51"/>
       </defs>
       <use xlink:href="#Times-Roman-50"/>
       <use x="50" xlink:href="#Times-Roman-48"/>
       <use x="100" xlink:href="#Times-Roman-49"/>
       <use x="150" xlink:href="#Times-Roman-56"/>
       <use x="200" xlink:href="#Times-Roman-45"/>
       <use x="233.300781" xlink:href="#Times-Roman-48"/>
       <use x="283.300781" xlink:href="#Times-Roman-51"/>
       <use x="333.300781" xlink:href="#Times-Roman-45"/>
       <use x="366.601562" xlink:href="#Times-Roman-48"/>
       <use x="416.601562" xlink:href="#Times-Roman-49"/>
      </g>
     </g>
    </g>
    <g id="xtick_6">
     <g id="line2d_6">
      <g>
       <use style="stroke:#000000;stroke-width:0.8;" x="333.057647" xlink:href="#m0ef016cc3a" y="230.336855"/>
      </g>
     </g>
     <g id="text_6">
      <!-- 2018-03-15 -->
      <g transform="translate(318.215034 275.178117)rotate(-45)scale(0.1 -0.1)">
       <use xlink:href="#Times-Roman-50"/>
       <use x="50" xlink:href="#Times-Roman-48"/>
       <use x="100" xlink:href="#Times-Roman-49"/>
       <use x="150" xlink:href="#Times-Roman-56"/>
       <use x="200" xlink:href="#Times-Roman-45"/>
       <use x="233.300781" xlink:href="#Times-Roman-48"/>
       <use x="283.300781" xlink:href="#Times-Roman-51"/>
       <use x="333.300781" xlink:href="#Times-Roman-45"/>
       <use x="366.601562" xlink:href="#Times-Roman-49"/>
       <use x="416.601562" xlink:href="#Times-Roman-53"/>
      </g>
     </g>
    </g>
    <g id="xtick_7">
     <g id="line2d_7">
      <g>
       <use style="stroke:#000000;stroke-width:0.8;" x="400.103901" xlink:href="#m0ef016cc3a" y="230.336855"/>
      </g>
     </g>
     <g id="text_7">
      <!-- 2018-04-01 -->
      <g transform="translate(385.261287 275.178117)rotate(-45)scale(0.1 -0.1)">
       <defs>
        <path d="M 29.15625 57.03125 
L 5.171875 23.140625 
L 29.15625 23.140625 
z
M 32.375 67.09375 
L 37.015625 67.09375 
L 37.015625 23.140625 
L 47.21875 23.140625 
L 47.21875 16.65625 
L 37.015625 16.65625 
L 37.015625 0 
L 29.25 0 
L 29.25 16.65625 
L 1.125 16.65625 
L 1.125 23.140625 
z
" id="Times-Roman-52"/>
       </defs>
       <use xlink:href="#Times-Roman-50"/>
       <use x="50" xlink:href="#Times-Roman-48"/>
       <use x="100" xlink:href="#Times-Roman-49"/>
       <use x="150" xlink:href="#Times-Roman-56"/>
       <use x="200" xlink:href="#Times-Roman-45"/>
       <use x="233.300781" xlink:href="#Times-Roman-48"/>
       <use x="283.300781" xlink:href="#Times-Roman-52"/>
       <use x="333.300781" xlink:href="#Times-Roman-45"/>
       <use x="366.601562" xlink:href="#Times-Roman-48"/>
       <use x="416.601562" xlink:href="#Times-Roman-49"/>
      </g>
     </g>
    </g>
   </g>
   <g id="matplotlib.axis_2">
    <g id="ytick_1">
     <g id="line2d_8">
      <defs>
       <path d="M 0 0 
L -3.5 0 
" id="m4e52b72f08" style="stroke:#000000;stroke-width:0.8;"/>
      </defs>
      <g>
       <use style="stroke:#000000;stroke-width:0.8;" x="27.8" xlink:href="#m4e52b72f08" y="214.335823"/>
      </g>
     </g>
     <g id="text_8">
      <!-- 10 -->
      <g transform="translate(10.8 217.763948)scale(0.1 -0.1)">
       <use xlink:href="#Times-Roman-49"/>
       <use x="50" xlink:href="#Times-Roman-48"/>
      </g>
     </g>
    </g>
    <g id="ytick_2">
     <g id="line2d_9">
      <g>
       <use style="stroke:#000000;stroke-width:0.8;" x="27.8" xlink:href="#m4e52b72f08" y="178.911797"/>
      </g>
     </g>
     <g id="text_9">
      <!-- 15 -->
      <g transform="translate(10.8 182.339922)scale(0.1 -0.1)">
       <use xlink:href="#Times-Roman-49"/>
       <use x="50" xlink:href="#Times-Roman-53"/>
      </g>
     </g>
    </g>
    <g id="ytick_3">
     <g id="line2d_10">
      <g>
       <use style="stroke:#000000;stroke-width:0.8;" x="27.8" xlink:href="#m4e52b72f08" y="143.487772"/>
      </g>
     </g>
     <g id="text_10">
      <!-- 20 -->
      <g transform="translate(10.8 146.915897)scale(0.1 -0.1)">
       <use xlink:href="#Times-Roman-50"/>
       <use x="50" xlink:href="#Times-Roman-48"/>
      </g>
     </g>
    </g>
    <g id="ytick_4">
     <g id="line2d_11">
      <g>
       <use style="stroke:#000000;stroke-width:0.8;" x="27.8" xlink:href="#m4e52b72f08" y="108.063747"/>
      </g>
     </g>
     <g id="text_11">
      <!-- 25 -->
      <g transform="translate(10.8 111.491872)scale(0.1 -0.1)">
       <use xlink:href="#Times-Roman-50"/>
       <use x="50" xlink:href="#Times-Roman-53"/>
      </g>
     </g>
    </g>
    <g id="ytick_5">
     <g id="line2d_12">
      <g>
       <use style="stroke:#000000;stroke-width:0.8;" x="27.8" xlink:href="#m4e52b72f08" y="72.639721"/>
      </g>
     </g>
     <g id="text_12">
      <!-- 30 -->
      <g transform="translate(10.8 76.067846)scale(0.1 -0.1)">
       <use xlink:href="#Times-Roman-51"/>
       <use x="50" xlink:href="#Times-Roman-48"/>
      </g>
     </g>
    </g>
    <g id="ytick_6">
     <g id="line2d_13">
      <g>
       <use style="stroke:#000000;stroke-width:0.8;" x="27.8" xlink:href="#m4e52b72f08" y="37.215696"/>
      </g>
     </g>
     <g id="text_13">
      <!-- 35 -->
      <g transform="translate(10.8 40.643821)scale(0.1 -0.1)">
       <use xlink:href="#Times-Roman-51"/>
       <use x="50" xlink:href="#Times-Roman-53"/>
      </g>
     </g>
    </g>
    <g id="text_14">
     <!-- Level -->
     <g transform="translate(4.621875 131.950459)rotate(-90)scale(0.1 -0.1)">
      <defs>
       <path d="M 1.125 1.8125 
Q 6.640625 2.390625 8.265625 3.78125 
Q 9.90625 5.171875 9.90625 10.84375 
L 9.90625 55.328125 
Q 9.90625 60.640625 8.296875 62.28125 
Q 6.6875 63.921875 1.125 64.3125 
L 1.125 66.15625 
L 29.390625 66.15625 
L 29.390625 64.3125 
Q 23.875 64.015625 22 62.5 
Q 20.125 60.984375 20.125 56 
L 20.125 7.953125 
Q 20.125 6.296875 20.671875 5.34375 
Q 21.234375 4.390625 23.140625 4.15625 
Q 24.265625 4 25.515625 3.953125 
Q 26.765625 3.90625 30.171875 3.90625 
Q 43.5 3.90625 48.1875 6.09375 
Q 52.875 8.296875 57.28125 17.328125 
L 59.8125 17.328125 
L 54.9375 0 
L 1.125 0 
z
" id="Times-Roman-76"/>
       <path d="M 22.90625 45.796875 
Q 29.78125 45.796875 34.953125 41.03125 
Q 40.140625 36.28125 40.140625 27.546875 
L 9.125 27.546875 
Q 9.625 16.21875 14.25 11.03125 
Q 18.890625 5.859375 25.25 5.859375 
Q 30.375 5.859375 33.890625 8.546875 
Q 37.40625 11.234375 40.375 16.15625 
L 42.09375 15.578125 
Q 40.09375 9.375 34.59375 4.09375 
Q 29.109375 -1.171875 21.140625 -1.171875 
Q 11.96875 -1.171875 6.953125 5.765625 
Q 1.953125 12.703125 1.953125 21.734375 
Q 1.953125 31.546875 7.765625 38.671875 
Q 13.578125 45.796875 22.90625 45.796875 
z
M 20.0625 42.234375 
Q 14.5 42.234375 11.578125 37.3125 
Q 10.015625 34.671875 9.328125 30.671875 
L 29.9375 30.671875 
Q 29.390625 35.546875 28.078125 37.9375 
Q 25.6875 42.234375 20.0625 42.234375 
z
M 22.265625 45.796875 
z
" id="Times-Roman-101"/>
       <path d="M 21.484375 45.359375 
L 21.484375 43.84375 
Q 18.953125 43.5625 17.890625 43.0625 
Q 16.84375 42.578125 16.84375 40.921875 
Q 16.84375 40.140625 17.0625 39.421875 
Q 17.28125 38.71875 17.828125 37.359375 
L 27.984375 12.109375 
L 36.765625 34.46875 
Q 37.40625 36.078125 37.96875 37.828125 
Q 38.53125 39.59375 38.53125 40.53125 
Q 38.53125 42.4375 36.71875 43.265625 
Q 35.640625 43.703125 33.796875 43.84375 
L 33.796875 45.359375 
L 47.65625 45.359375 
L 47.65625 43.84375 
Q 45.265625 43.65625 44.21875 42.265625 
Q 43.171875 40.875 41.15625 35.84375 
L 27.046875 0.6875 
Q 26.65625 -0.25 26.40625 -0.578125 
Q 26.171875 -0.921875 25.734375 -0.921875 
Q 25.25 -0.921875 24.90625 -0.359375 
Q 24.5625 0.203125 24.171875 1.03125 
L 9.234375 36.765625 
Q 7.421875 41.109375 5.375 42.671875 
Q 4.15625 43.5625 1.8125 43.84375 
L 1.8125 45.359375 
z
" id="Times-Roman-118"/>
       <path d="M 2.046875 1.375 
Q 6.59375 1.8125 8.203125 3.203125 
Q 9.8125 4.59375 9.8125 8.640625 
L 9.8125 56.34375 
Q 9.8125 59.578125 9.28125 60.796875 
Q 8.296875 62.84375 5.328125 62.84375 
Q 4.640625 62.84375 3.828125 62.6875 
Q 3.03125 62.546875 1.8125 62.25 
L 1.8125 63.875 
Q 8.40625 65.625 17.671875 68.5625 
Q 18.015625 68.5625 18.09375 68.265625 
Q 18.171875 67.96875 18.171875 67 
L 18.171875 8.453125 
Q 18.171875 4.203125 19.625 2.953125 
Q 21.09375 1.703125 25.6875 1.375 
L 25.6875 0 
L 2.046875 0 
z
" id="Times-Roman-108"/>
      </defs>
      <use xlink:href="#Times-Roman-76"/>
      <use x="61.083984" xlink:href="#Times-Roman-101"/>
      <use x="105.46875" xlink:href="#Times-Roman-118"/>
      <use x="155.46875" xlink:href="#Times-Roman-101"/>
      <use x="199.853516" xlink:href="#Times-Roman-108"/>
     </g>
    </g>
   </g>
   <g id="line2d_14">
    <path clip-path="url(#p486d6be493)" d="M 45.153148 206.967626 
L 49.097045 215.965328 
L 53.040942 220.357907 
L 56.98484 219.861971 
L 60.928737 219.861971 
L 72.760429 217.736529 
L 76.704326 213.769039 
L 80.648223 215.611088 
L 84.59212 215.186 
L 88.536018 213.202254 
L 100.367709 213.202254 
L 104.311607 202.575046 
L 108.255504 200.803845 
L 112.199401 198.607556 
L 116.143298 205.33812 
L 127.97499 207.038474 
L 131.918887 206.542537 
L 135.862785 203.921159 
L 139.806682 203.141831 
L 143.750579 206.684233 
L 155.582271 187.130171 
L 159.526168 180.399607 
L 163.470065 189.255613 
L 167.413963 189.751549 
L 171.35786 162.545905 
L 183.189552 20.778948 
L 187.133449 72.781417 
L 191.077346 88.722229 
L 195.021244 48.126303 
L 198.965141 79.299445 
L 210.796833 103.742008 
L 214.74073 108.276298 
L 218.684627 148.730528 
L 222.628524 149.65156 
L 226.572422 147.313574 
L 238.404113 147.313574 
L 242.348011 139.236889 
L 246.291908 143.346076 
L 250.235805 152.55633 
L 254.179702 168.355438 
L 266.011394 173.243953 
L 269.955291 153.477347 
L 273.899189 144.550493 
L 277.843086 125.988311 
L 281.786983 146.392542 
L 293.618675 152.485475 
L 297.562572 155.106845 
L 301.506469 159.357735 
L 305.450367 168.001191 
L 309.394264 181.462327 
L 321.225956 173.38565 
L 325.169853 169.347311 
L 329.11375 163.112682 
L 333.057647 167.646957 
L 337.001545 173.243953 
L 348.833236 150.430881 
L 352.777134 156.240414 
L 356.721031 158.649248 
L 360.664928 119.824523 
L 364.608825 108.984764 
L 376.440517 136.190416 
L 380.384414 125.775759 
L 384.328312 123.154374 
L 388.272209 143.700323 
L 392.216106 143.700323 
" style="fill:none;stroke:#1f77b4;stroke-linecap:square;stroke-width:1.5;"/>
   </g>
   <g id="patch_3">
    <path d="M 27.8 230.336855 
L 27.8 10.8 
" style="fill:none;stroke:#000000;stroke-linecap:square;stroke-linejoin:miter;stroke-width:0.8;"/>
   </g>
   <g id="patch_4">
    <path d="M 409.569254 230.336855 
L 409.569254 10.8 
" style="fill:none;stroke:#000000;stroke-linecap:square;stroke-linejoin:miter;stroke-width:0.8;"/>
   </g>
   <g id="patch_5">
    <path d="M 27.8 230.336855 
L 409.569254 230.336855 
" style="fill:none;stroke:#000000;stroke-linecap:square;stroke-linejoin:miter;stroke-width:0.8;"/>
   </g>
   <g id="patch_6">
    <path d="M 27.8 10.8 
L 409.569254 10.8 
" style="fill:none;stroke:#000000;stroke-linecap:square;stroke-linejoin:miter;stroke-width:0.8;"/>
   </g>
  </g>
 </g>
 <defs>
  <clipPath id="p486d6be493">
   <rect height="219.536855" width="381.769254" x="27.8" y="10.8"/>
  </clipPath>
 </defs>
</svg>
